<svg width="24" height="24" viewBox="0 0 24 24" fill="none" xmlns="http://www.w3.org/2000/svg">
<path fill-rule="evenodd" clip-rule="evenodd" d="M10.5 19C5.80558 19 2 15.1944 2 10.5C2 5.80558 5.80558 2 10.5 2C15.1944 2 19 5.80558 19 10.5C19 12.6673 18.1889 14.6451 16.8536 16.1465L21.8284 21.1213L21.1213 21.8284L16.1465 16.8536C14.6451 18.1889 12.6673 19 10.5 19ZM10.5 18C14.6421 18 18 14.6421 18 10.5C18 6.35786 14.6421 3 10.5 3C6.35786 3 3 6.35786 3 10.5C3 14.6421 6.35786 18 10.5 18Z" fill="#979797"/>
<mask id="mask0_435_303350" style="mask-type:alpha" maskUnits="userSpaceOnUse" x="2" y="2" width="20" height="20">
<path fill-rule="evenodd" clip-rule="evenodd" d="M10.5 19C5.80558 19 2 15.1944 2 10.5C2 5.80558 5.80558 2 10.5 2C15.1944 2 19 5.80558 19 10.5C19 12.6673 18.1889 14.6451 16.8536 16.1465L21.8284 21.1213L21.1213 21.8284L16.1465 16.8536C14.6451 18.1889 12.6673 19 10.5 19ZM10.5 18C14.6421 18 18 14.6421 18 10.5C18 6.35786 14.6421 3 10.5 3C6.35786 3 3 6.35786 3 10.5C3 14.6421 6.35786 18 10.5 18Z" fill="white"/>
</mask>
<g mask="url(#mask0_435_303350)">
<rect width="24" height="24" fill="white"/>
</g>
</svg>
