<svg width="116" height="40" viewBox="0 0 116 40" xmlns="http://www.w3.org/2000/svg" xmlns:xlink="http://www.w3.org/1999/xlink">
    <defs>
        <path d="M110.2 0c3.203 0 5.8 2.686 5.8 6v28c0 3.314-2.597 6-5.8 6H5.8C2.597 40 0 37.314 0 34V6c0-3.314 2.597-6 5.8-6h104.4zm-.03 1H5.83C3.234 1 1.115 3.122 1.005 5.783L1 6v28c0 2.689 2.05 4.882 4.621 4.995l.21.005h104.338c2.598 0 4.717-2.122 4.827-4.783L115 34V6c0-2.689-2.05-4.882-4.621-4.995l-.21-.005zM48.687 21.158a3.04 3.04 0 0 1 2.405 1.133c.664.76.982 1.77.982 3.013 0 1.382-.374 2.488-1.134 3.29a3.346 3.346 0 0 1-2.515 1.078c-1.078 0-1.852-.387-2.322-1.161v4.284h-1.81v-8.79c0-.87-.028-1.77-.07-2.681h1.59l.096 1.299h.028c.608-.968 1.52-1.465 2.75-1.465zm9.385 0a3.04 3.04 0 0 1 2.405 1.133c.663.76.981 1.77.981 3.013 0 1.382-.373 2.488-1.133 3.29a3.346 3.346 0 0 1-2.516 1.078c-1.078 0-1.852-.387-2.322-1.161v4.284h-1.81v-8.79c0-.87-.028-1.77-.07-2.681h1.59l.097 1.299h.028c.608-.968 1.52-1.465 2.75-1.465zm-37.25-7.924.278.018c.705.014 2.696.276 3.98 2.142-.11.056-2.376 1.396-2.349 4.133.026 3.083 2.538 4.231 2.868 4.367l.035.014a10.648 10.648 0 0 1-1.507 3.082c-.884 1.327-1.824 2.626-3.303 2.654-1.437.041-1.907-.843-3.58-.843-1.672 0-2.183.83-3.565.884-1.41.056-2.488-1.41-3.414-2.736-1.839-2.695-3.276-7.602-1.355-10.933.926-1.644 2.626-2.695 4.45-2.723 1.41-.027 2.737.954 3.594.954.762 0 2.124-.928 3.592-1.008l.276-.005zm48.113 4.8c1.023 0 1.88.18 2.571.54l-.456 1.478a4.419 4.419 0 0 0-2.17-.525c-.636 0-1.133.152-1.493.47-.29.262-.456.636-.456 1.023-.013.428.18.843.526 1.105.304.263.856.553 1.644.87.968.402 1.686.844 2.143 1.37.47.524.718 1.23.704 1.948a3.028 3.028 0 0 1-1.009 2.35c-.732.663-1.769.995-3.082.995-1.216 0-2.197-.235-2.93-.705l.415-1.507c.788.47 1.7.719 2.612.705.677 0 1.216-.152 1.59-.456.373-.29.594-.76.566-1.23a1.596 1.596 0 0 0-.47-1.16c-.318-.319-.829-.61-1.561-.872-1.977-.732-2.972-1.81-2.972-3.234a2.803 2.803 0 0 1 1.05-2.28c.691-.595 1.617-.885 2.778-.885zm14.07 3.11c1.203 0 2.156.4 2.889 1.189.705.787 1.05 1.782 1.05 2.999 0 1.257-.359 2.28-1.078 3.082-.746.83-1.741 1.244-2.985 1.244-1.202 0-2.156-.401-2.861-1.189-.705-.788-1.064-1.797-1.064-3 0-1.257.36-2.293 1.092-3.109.732-.801 1.713-1.202 2.957-1.216zm-7.035-1.852v2.032h1.99l-.013 1.368h-1.99v3.953c0 1.009.359 1.506 1.064 1.506.276 0 .539-.027.801-.083l.056 1.382a3.747 3.747 0 0 1-1.41.194c-.719 0-1.272-.221-1.672-.65-.401-.428-.609-1.174-.609-2.197v-4.119H73v-1.354h1.188V19.83l1.783-.54zm21.561 1.824c1.175 0 2.06.443 2.668 1.313.497.719.732 1.576.732 2.585 0 .276-.013.553-.069.815h-5.431c.013.802.276 1.424.787 1.852.456.373 1.05.567 1.783.567a5.992 5.992 0 0 0 2.198-.387l.276 1.258c-.87.359-1.796.525-2.736.497-1.272 0-2.253-.373-2.986-1.12-.718-.746-1.078-1.74-1.078-2.998 0-1.23.332-2.253 1.01-3.069.704-.87 1.658-1.313 2.846-1.313zM39.07 18.172l3.663 11.306h-1.935l-1.065-3.317h-3.676l-1.009 3.317h-1.866l3.635-11.306h2.253zm53.322 2.944c.152 0 .304.014.456.028l-.014 1.769c-.193-.028-.373-.055-.567-.055a1.724 1.724 0 0 0-1.478.718 2.745 2.745 0 0 0-.456 1.604v4.284H88.52v-5.597c0-.94-.014-1.797-.055-2.571h1.575l.07 1.562h.055c.166-.512.483-.954.912-1.3a2.24 2.24 0 0 1 1.313-.442zm-9.426 1.369a1.83 1.83 0 0 0-1.659.967 3.605 3.605 0 0 0-.483 1.963c-.014.677.152 1.34.483 1.92.387.65.94.968 1.645.968.691 0 1.23-.331 1.63-.981a4.008 4.008 0 0 0 .499-1.949 3.715 3.715 0 0 0-.484-1.921c-.373-.65-.926-.967-1.631-.967zm-25.472.124c-.443 0-.871.152-1.217.442-.36.29-.608.705-.718 1.161-.056.18-.083.36-.083.553v1.355a2.22 2.22 0 0 0 .539 1.506c.323.36.78.587 1.262.609h.161a1.845 1.845 0 0 0 1.59-.789c.387-.525.58-1.216.58-2.073 0-.788-.18-1.451-.539-1.962a1.884 1.884 0 0 0-1.575-.802zm-9.371 0c-.442 0-.871.152-1.216.442a2.06 2.06 0 0 0-.72 1.161c-.054.18-.082.36-.082.553v1.355c-.014.552.18 1.091.553 1.506.323.36.77.587 1.249.609h.16a1.845 1.845 0 0 0 1.59-.789c.387-.525.58-1.216.58-2.073 0-.788-.18-1.451-.539-1.962a1.884 1.884 0 0 0-1.575-.802zm-10.214-2.93h-.028c-.037.161-.081.347-.133.558l-.115.455c-.083.326-.18.698-.29 1.115l-.94 2.958h3.026l-.953-2.958c-.097-.304-.29-1.009-.567-2.128zm59.514 2.709a1.66 1.66 0 0 0-1.438.746 2.766 2.766 0 0 0-.539 1.41h3.76a2.5 2.5 0 0 0-.346-1.396c-.318-.511-.801-.76-1.437-.76zM45.427 10.059c1.05 0 1.575.553 1.575 1.659v1.479c0 .318.014.636.056.953l-.802-.027-.07-.456h-.027c-.276.373-.719.58-1.175.553-.718 0-1.23-.498-1.23-1.175 0-.995.857-1.507 2.35-1.507v-.069c0-.525-.277-.788-.83-.788-.373 0-.732.097-1.05.304l-.18-.58c.415-.249.899-.36 1.383-.346zm9.44 0c1.05 0 1.575.553 1.575 1.659v1.479c0 .318.014.636.055.953h-.787v-.027l-.07-.456h-.027c-.277.373-.719.58-1.175.553-.719 0-1.23-.498-1.23-1.175 0-.995.857-1.507 2.336-1.507v-.069c0-.525-.277-.788-.83-.788-.373 0-.732.097-1.05.304l-.18-.58c.415-.249.899-.36 1.382-.346zm4.021-1.783v2.42h.014c.263-.443.691-.664 1.272-.664.967 0 1.645.829 1.645 2.031.013 1.244-.733 2.157-1.756 2.157a1.348 1.348 0 0 1-1.257-.705h-.014l-.056.622h-.76a9.95 9.95 0 0 0 .027-.791v-5.07h.885zm15.452 1.77c1.148 0 1.935.829 1.935 2.059.014 1.23-.801 2.115-1.99 2.115-1.175 0-1.935-.871-1.935-2.06 0-1.244.774-2.114 1.99-2.114zm11.583-.926v.995h.98l-.013.663h-.981v1.949c0 .497.166.746.525.746.138 0 .263-.014.4-.041l.028.677c-.22.069-.456.11-.69.097-.706 0-1.12-.387-1.12-1.396v-2.032h-.58v-.663h.58v-.733l.87-.262zm-18.673.912c1.023 0 1.673.76 1.673 1.907 0 .124-.014.263-.042.4h-2.667c.013.761.525 1.19 1.257 1.19.374 0 .733-.056 1.078-.194l.139.622a3.21 3.21 0 0 1-1.341.249c-1.258 0-1.99-.788-1.99-2.018 0-1.23.76-2.156 1.893-2.156zm27.283 0c1.023 0 1.673.76 1.673 1.907 0 .124-.014.263-.042.4h-2.667c.013.761.525 1.19 1.257 1.19.373 0 .733-.056 1.078-.194l.139.622a3.21 3.21 0 0 1-1.341.249c-1.258 0-1.99-.788-1.99-2.018 0-1.23.76-2.156 1.893-2.156zm-5.487-1.756v2.405h.014a1.337 1.337 0 0 1 1.202-.65c.844 0 1.369.664 1.369 1.7v2.392h-.899v-2.28c0-.72-.276-1.079-.801-1.079-.456 0-.885.318-.885.954v2.419h-.884v-5.86h.884zm-25.002 0v5.847h-.885V8.276h.885zm-12.135 0v5.847h-.885V8.276h.885zm-2.46 1.839v4.008h-.885v-4.008h.885zm-9.33 0 .691 2.114c.111.36.222.691.29 1.01h.028c.07-.291.166-.623.29-1.01l.678-2.114h.926l-1.52 4.008h-.871l-1.465-4.008h.953zm-3.372-1.548 1.81 5.556h-.953l-.525-1.631h-1.81l-.498 1.63h-.926l1.796-5.555h1.106zm42.97 1.465c.843 0 1.396.65 1.396 1.686l-.042 2.405h-.884v-2.295c0-.704-.277-1.064-.802-1.064s-.884.456-.884.982v2.377h-.885v-2.861c0-.36-.014-.733-.028-1.147h.788l.042.622h.027a1.438 1.438 0 0 1 1.272-.705zm-24.132 2.1c-.995 0-1.479.235-1.479.802 0 .415.25.622.608.622a.838.838 0 0 0 .871-.815v-.608zm-9.453 0c-.996 0-1.48.235-1.48.802 0 .415.25.622.609.622a.838.838 0 0 0 .87-.815v-.608zm28.18-1.45c-.649 0-1.05.594-1.05 1.437 0 .843.415 1.423 1.05 1.423.637 0 1.037-.635 1.037-1.437s-.4-1.424-1.036-1.424zm-14.442.055c-.53.025-.95.436-.98.952l-.002.817a.986.986 0 0 0 .954 1.009h.014c.663 0 1.064-.54 1.064-1.41 0-.816-.414-1.368-1.05-1.368zM21.115 8c.152 1.272-.36 2.543-1.105 3.47-.788.911-2.018 1.616-3.22 1.533-.167-1.23.442-2.543 1.133-3.344.774-.913 2.114-1.618 3.192-1.659zM36.18 9.3h-.014c-.055.234-.138.58-.262 1.05l-.456 1.45h1.479l-.47-1.45c-.042-.152-.138-.498-.277-1.05zm58.284 1.354c-.511 0-.912.442-.981 1.05h1.866c0-.622-.318-1.05-.885-1.05zm-27.283 0c-.511 0-.912.442-.967 1.05h1.852c0-.622-.318-1.05-.885-1.05zM49.048 8.387a.53.53 0 0 1 .497.525.525.525 0 0 1-.511.54h-.055a.521.521 0 0 1-.498-.567c.028-.305.263-.526.567-.498z" id="a"/>
    </defs>
    <g fill="none" fill-rule="evenodd">
        <mask id="b" fill="#fff">
            <use xlink:href="#a"/>
        </mask>
        <use fill="#79849A" fill-rule="nonzero" xlink:href="#a"/>
        <g mask="url(#b)" fill="#79849A">
            <path d="M0 .034h116v40H0z"/>
        </g>
    </g>
</svg>
