<svg xmlns="http://www.w3.org/2000/svg" width="460" height="300" viewBox="0 0 460 300">
    <g fill="none" fill-rule="evenodd">
        <g>
            <g>
                <g>
                    <g fill="#FFA126">
                        <path d="M129.94 158.229L148.44 158l3.559 9c-.62 21.358-1.286 35.525-2 42.5-2.276 22.233-5.187 29.892-7 31.5-2.667 2.365-15.333 4.032-38 5v-8c10.189 1.043 17.49.21 21.906-2.5 13.299-8.16 20.43-34.34 10.932-61.004-2.373-6.664-5.006-12.086-7.898-16.267z" transform="translate(-490 -380) translate(490 380) translate(10 10) translate(110 1)"/>
                        <path d="M79 240.05v6.2l26-.25v-8c-3.167 1.012-7.736 1.695-13.708 2.05-5.972.356-10.07.356-12.292 0zM68 254.5c5.5-8.534 9-30.5 12-33.5 2-2 6.667-3.5 14-4.5-9-1-14.833.667-17.5 5-4 6.5-8.541 24.466-14.5 33-3.973 5.69-12.64 13.856-26 24.5 17.667-10.644 28.333-18.81 32-24.5zM24.668 174.657L28 217.5 23 198c-.667-10.667-1.667-17.5-3-20.5s-3.167-5.105-5.5-6.315c2.305.412 4.139.85 5.5 1.315 1.361.465 2.917 1.184 4.668 2.157zM16 223c-3-7-5-14.667-6-23s.5-14.167 4.5-17.5c-4-1.173-7.833-1.507-11.5-1-5.5.76-2.272 14.974 1.808 23.812C7.528 211.204 11.258 217.1 16 223zM96.5 89c2.452 1.932 4.285 2.265 5.5 1 .96-1 2.19-2.377 2-4-.086-.734-.836-1.9-2.25-3.5.993 2 .91 3.667-.25 5-1.16 1.333-2.827 1.833-5 1.5z" transform="translate(-490 -380) translate(490 380) translate(10 10) translate(110 1)"/>
                        <path d="M174.822 89.853l-10.787-5.467c-2.578-8.17-7.755-14.074-15.53-17.711-10.024-4.69-24.312 1.645-28.185 14.087-.794 2.551 5.154 5.357 10.466-2.519 6.43-9.534 18.404-9.902 30.338 5.989 1.413 1.881 5.98 3.755 13.698 5.62z" transform="translate(-490 -380) translate(490 380) translate(10 10) translate(110 1) rotate(146 147.535 77.49)"/>
                        <path d="M111 0c-2.5 3.152-4.5 6.568-6 10.25-1.5 3.682-3.167 9.265-5 16.75.667-6.583 1.5-11.875 2.5-15.875S105 3.417 107 0h4zM100 0v26.5c-.514-7.717-1.18-13.55-2-17.5-.82-3.95-1.986-6.95-3.5-9h5.5zM146.262 52.5c2.45.235 4.03.735 4.738 1.5 1.402 1.515 1.89 5.056 1.524 6.346-.914 3.23-6.04 4.154-5.583 6.923.206 1.249 2.74 1.385 2.74 1.385S150.259 70 147.5 70c-.647 0-1.67-.34-2-1-.5-1 .175-2.806.762-3.5 2.961-3.5 5.738-6 3.419-10-.888-1.532-2.028-2.532-3.42-3zM146.78 76.5c1.104 0 2-2 1.22-3.5-.27-.52-.296 1.148-1.22 1.715-1.28.785-2-.72-2-.215 0 1.105.895 2 2 2zM139.77 120.108c-1.982 1.895-2.973 3.457-2.973 4.687 0 .91 9.774 29.454 21.613 58.134 12.169 29.48 26.429 59.107 27.662 59.107 1.09 0 7.24.405 13.19-1.661 3.622-1.258 6.197-3.168 7.725-5.728-11.096 1.512-18.732-1.228-22.907-8.22-3.83-6.415-16.919-32.413-38.096-86.138-2.276-5.772-4.347-12.5-6.213-20.18zM186.975 121.324c.56 5.353.56 11.021 0 17.006-.56 5.984-.055 13.895 1.514 23.733l-2.417.8c-2.65-6.788-4.403-10.518-5.262-11.19-.86-.671-1.857-1.964-2.993-3.878 2.847.847 4.935-1.054 6.263-5.702 1.328-4.649 2.293-11.572 2.895-20.77zM176.408 109.094c-3.698 1.97-6.045 3.592-7.043 4.863-1.558 1.983-1.943 4.748-1.943 6.816 0 6.086 1.957 9.698 3.429 13.32.98 2.414 2.106 4.902 3.374 7.463-2.25-7.793-3.374-14.184-3.374-19.173 0-4.99 1.852-9.42 5.557-13.289z" transform="translate(-490 -380) translate(490 380) translate(10 10) translate(110 1)"/>
                        <path d="M186.975 138.33c0 5.89.8 9.528 2.398 10.914 1.598 1.387 3.544 1.526 5.837.42l-5.205 12.36h-2.15c-1.083-5.667-1.677-9.927-1.783-12.78-.106-2.852.195-6.49.903-10.914zM189.643 162.399c-1.738-.161-2.929-.161-3.571 0-.643.161-1.307.597-1.992 1.307 1.575 3.364 2.745 6.002 3.51 7.915.765 1.914 1.779 4.736 3.04 8.467l2.089-.922c-.313-2.7-1.339-5.674-3.076-8.922-1.738-3.25-1.738-5.864 0-7.845z" transform="translate(-490 -380) translate(490 380) translate(10 10) translate(110 1)"/>
                        <path d="M182.426 154.898c.731 2.497.989 4.124.773 4.881-.216.757-.688.964-1.416.62l2.297 3.707 2.347-1.244-4.001-7.964zM175.179 147.371c-1.916 2.117-3.05 4.508-3.4 7.172-.47 3.548-.076 10.646.136 15.097.452 9.464 1.95 18.793 4.493 27.985.219-4.74.328-9.099.328-13.075 0-5.965-1.231-8.07-2.704-21.053-.982-8.656-.6-14.03 1.147-16.126zM192.719 179.639l-1.596.45v2.499c1.596 7 2.127 12.746 1.596 17.24-.798 6.743-4.17 14.46-2.714 22.816.971 5.57 2.238 9.946 3.8 13.125v-11.012c-1.449-4.282-1.81-8.113-1.086-11.495.553-2.585 3.17-9.922 2.383-18.942-.26-2.984-1.055-7.878-2.383-14.681z" transform="translate(-490 -380) translate(490 380) translate(10 10) translate(110 1)"/>
                        <path d="M223.5 222.458c-5.061 2.595-8.902 3.769-11.523 3.524-2.62-.246-5.3-2.812-8.037-7.7-1.94-4.73-3.134-8.256-3.58-10.578-.67-3.484-.67-4.607-1.805-10.759-.617-3.348-2.763-8.967-6.438-16.857l.602-.922c2.596 4.6 4.813 8.787 6.65 12.558 4.861 9.982 5.9 18.268 9.52 20.983 3.259 2.445 6.623 2.564 10.091.356-1.243 1.486-2.35 2.493-3.321 3.021-.971.529-2.392.897-4.263 1.105-2.35 1.912-2.35 3.669 0 5.27 2.35 1.6 6.385 1.6 12.104 0zM79 240.051L79 246.25 71.984 246.25 73.758 240.375zM46.147 240.53l-3.289 3.418c-2.555-.494-4.447-.92-5.676-1.276-1.229-.357-2.73-1.07-4.506-2.142 2.888.418 5.494.627 7.817.627 2.324 0 4.209-.21 5.654-.627zM140.888 148.456L145 149l3.77 9.229c-79.18-.871-119.103-1.635-119.77-2.292-1-.984 3.099-3.373 5.584-4.647 1.658-.85 4.66-1.794 9.008-2.834-.3 4.496 2.648 6.847 8.845 7.052 45.24 1.494 77.934.89 83.53-1.265 4.824-1.858 6.465-3.787 4.92-5.787z" transform="translate(-490 -380) translate(490 380) translate(10 10) translate(110 1)"/>
                    </g>
                    <g stroke-linecap="round">
                        <path stroke="#323A48" d="M440 224.5l-14.04.59m-7.124.3l-96.859 4.073M283 231l-21 1m-126 4.5l-100.493 4.064m-18.52.749L0 242" transform="translate(-490 -380) translate(490 380) translate(10 10)"/>
                        <g stroke="#E1E4EA">
                            <path stroke-linejoin="round" d="M0 0L74 94M13 279.249L74 94M74 94L0 35.5M74 94L0 158M74 94L0 133.299M74 94L59.5 0M74 94L168.5 0M74 94L110 165.5M74 94L146 142.202M74 94L175 142.202" transform="translate(-490 -380) translate(490 380) translate(10 10) translate(0 1)"/>
                            <path d="M56.5 103.5c1.667-3.333 2.333-7.333 2-12-.333-4.667-1.5-8.833-3.5-12.5 1-.333 1.833-.833 2.5-1.5S58.667 76 59 75c2 .333 4 .333 6 0s3.833-1.167 5.5-2.5c2.333 2.667 5 4.5 8 5.5S85 79.5 89 79.5c-.667 5-.5 9.333.5 13s3.667 7.833 8 12.5c-1.052.635-1.719 1.135-2 1.5-.281.365-.448.948-.5 1.749-2.667-.5-5-.249-7 .751s-3.5 2.333-4.5 4c-2.333-1-5.167-1.5-8.5-1.5s-5.833.716-7.5 2.15c-.667-2.1-1.833-3.65-3.5-4.65-1.667-1-3.5-1.5-5.5-1.5 0-1-.167-1.833-.5-2.5-.333-.667-.833-1.167-1.5-1.5z" transform="translate(-490 -380) translate(490 380) translate(10 10) translate(0 1)"/>
                            <path d="M66.75 47c4.833 5.667 10.417 10 16.75 13s12.833 4.667 19.5 5c-1 6.667-.833 14.167.5 22.5s4.333 16.667 9 25c-1 .766-1.667 1.6-2 2.5-.333.9-.5 1.934-.5 3.101-4.333.266-8.031 1.399-11.094 3.399-3.062 2-5.364 4.75-6.906 8.25-4.667-1.5-9.917-2.25-15.75-2.25s-10.583 1-14.25 3c-2.333-2.333-5.5-4.333-9.5-6-4-1.667-7.667-2.5-11-2.5-.333-2-.833-3.667-1.5-5-.667-1.333-1.667-2.45-3-3.35 2.667-6.767 4-14.317 4-22.65 0-8.333-1.333-17-4-26 2-.667 3.667-1.833 5-3.5 1.333-1.667 2.167-3.333 2.5-5 4.667 0 8.833-.833 12.5-2.5s6.917-4 9.75-7z" transform="translate(-490 -380) translate(490 380) translate(10 10) translate(0 1)"/>
                            <path d="M61.5 15.5c8.771 7.486 19.438 12.986 32 16.5 12.562 3.514 25.729 4.68 39.5 3.5-4.142 16.613-5.808 32.113-5 46.5.808 14.387 4.142 28.553 10 42.5-1.663 1.405-2.773 2.905-3.332 4.5-.558 1.595-.614 3.428-.168 5.5-6.86.502-12.763 2.336-17.713 5.5-4.949 3.164-9.211 7.83-12.787 14-8.933-1.78-17.933-1.78-27 0s-17.9 5.28-26.5 10.5c-3.823-7.22-8.323-12.72-13.5-16.5-5.177-3.78-11.177-5.947-18-6.5.298-3.589-.035-6.589-1-9-.965-2.411-2.631-4.411-5-6 4.5-12.941 7-25.941 7.5-39 .5-13.059-1-26.226-4.5-39.5 3.05-1.574 5.383-3.574 7-6s2.617-5.426 3-9c6-1 12.333-3 19-6s12.167-6.833 16.5-11.5zM0 186.624c12 3.584 23.833 11.71 35.5 24.376 16.667-6.087 35.5-9.13 56.5-9.13" transform="translate(-490 -380) translate(490 380) translate(10 10) translate(0 1)"/>
                        </g>
                        <g stroke="#E1E4EA" stroke-linejoin="round">
                            <path d="M0 126.899L61.75 111.649M61.75 111.649L9.003.899M61.75 111.649L112.857 61.899M61.75 111.649L112.857 86.649M61.75 111.649L6.357 158.899M61.75 111.649L33.001.899M61.75 111.649L112.857 187.523M61.75 111.649L38.357 220.256M48.357 83.399c1.044.435 2.044.435 3 0s1.785-1.269 2.488-2.5c3.37 4.025 7.374 7.025 12.012 9 4.637 1.974 9.637 2.808 15 2.5-.021 1.624.312 3.124 1 4.5s1.688 2.542 3 3.5c-3.566 3.95-6.233 8.45-8 13.5-1.768 5.05-2.601 10.55-2.5 16.5-3.383-.806-6.55-.806-9.5 0-2.95.805-5.736 2.43-8.357 4.875-2.422-2.674-4.57-4.633-6.447-5.875-1.875-1.243-3.94-2.076-6.196-2.5-.054-2.033-.554-3.866-1.5-5.5s-2.28-2.967-4-4c3.6-4.108 6.267-9.108 8-15 1.733-5.892 2.4-12.226 2-19z" transform="translate(-490 -380) translate(490 380) translate(10 10) translate(327.143 .101)"/>
                            <path d="M41.357 68.899c1.998.384 3.665.384 5 0s2.567-1.217 3.696-2.5c6.533 5.217 13.634 8.884 21.304 11 7.67 2.116 15.67 2.616 24 1.5-.054 3.007.279 5.632 1 7.875.72 2.243 1.887 4.284 3.5 6.125-5.178 7.71-8.845 16.502-11 26.375-2.156 9.873-2.673 20.248-1.554 31.125-6.625-1.893-12.774-2.393-18.446-1.5-5.673.893-11.173 3.226-16.5 7-2.901-5.204-6.068-9.204-9.5-12-3.433-2.796-7.426-4.63-11.982-5.5-.454-3.563-1.293-6.73-2.518-9.5-1.225-2.77-2.892-5.27-5-7.5 7.006-6.934 12.006-14.768 15-23.5 2.994-8.733 3.994-18.4 3-29zM30.875 44.899c2.119 0 4.28-.5 6.482-1.5s4.035-2.333 5.5-4c10.667 7.333 21.833 11.833 33.5 13.5 11.667 1.667 23.833 2 36.5 1" transform="translate(-490 -380) translate(490 380) translate(10 10) translate(327.143 .101)"/>
                            <path d="M113 162.199c-3.429 3.467-5.976 8.367-7.643 14.7-11.153-2.28-21.986-2.28-32.5 0s-19.847 6.655-28 13.123C41.53 179.224 37.579 171.35 33 166.4c-4.577-4.95-11.625-8.972-21.144-12.064.777-7.204.777-12.849 0-16.936s-2.61-8.087-5.5-12c16.345-23.667 24.345-50.333 24-80" transform="translate(-490 -380) translate(490 380) translate(10 10) translate(327.143 .101)"/>
                        </g>
                        <g stroke="#323A48">
                            <path stroke-linejoin="round" d="M226.447 70.875c12.304.346 20.918 1.193 22.038 2.689 4.388 5.86 2.194 20.695-.547 22.615-4.916 3.443-124.365 8.41-127.347 5.716-4.38-3.956-7.256-19.934-1.578-25.01 1.804-1.613 15.094-3.128 32.528-4.257" transform="translate(-490 -380) translate(490 380) translate(10 10) translate(98.906 92.249) rotate(70 183.416 86.77)"/>
                            <g stroke-linejoin="round">
                                <path d="M53.434 52.74c-.052-3.708.71-5.176 1.736-6.352 1.81-2.074 13.966-1.49 15.444 1.372.791 1.532.986 3.04.986 4.97" transform="translate(-490 -380) translate(490 380) translate(10 10) translate(98.906 92.249) rotate(62 107.361 180.22) rotate(5 62.516 48.946)"/>
                                <path d="M56.614 43.829C42.59 34.273 32.217 1.403 19.14 2.699 7.064 3.893-6.795 45.254 10.35 48.658" transform="translate(-490 -380) translate(490 380) translate(10 10) translate(98.906 92.249) rotate(62 107.361 180.22) rotate(5 29.47 25.66)"/>
                                <path d="M72.062 50.5c17.49-6.571 20.493-37.797 34.402-37.797 14.528 0 24.12 40.214 14.393 44" transform="translate(-490 -380) translate(490 380) translate(10 10) translate(98.906 92.249) rotate(62 107.361 180.22) rotate(5 98.43 34.703)"/>
                                <path d="M50.967 44.602C36.033 41.907 20.36 29.004 15.2 31.032c-3.44 1.35-5.075 4.737-4.908 10.159" transform="translate(-490 -380) translate(490 380) translate(10 10) translate(98.906 92.249) rotate(62 107.361 180.22) rotate(5 30.623 37.709)"/>
                                <path d="M77.843 50.36c13.058-2.39 25.01-12.305 31.354-10.552 6.344 1.754 6.28 9.384 4.875 11.754" transform="translate(-490 -380) translate(490 380) translate(10 10) translate(98.906 92.249) rotate(62 107.361 180.22) rotate(5 96.343 45.582)"/>
                                <path d="M72.156 54.726c14.733.022 25.002 1.834 30.805 5.438 5.804 3.603 11.99 6.532 18.56 8.786-3.06.056-5.878-.075-8.456-.394-2.578-.318-4.937-.968-7.075-1.949 1.69 1.48 3.732 2.875 6.124 4.188 2.393 1.313 5.884 2.795 10.474 4.446-10.956-.027-19.652-2.762-26.087-8.204-6.436-5.442-14.275-8.77-23.517-9.982" transform="translate(-490 -380) translate(490 380) translate(10 10) translate(98.906 92.249) rotate(62 107.361 180.22) rotate(5 97.372 64.983)"/>
                                <path d="M50.127 50.587c-9.86-.584-15.206.683-16.04 3.8-.544 2.038 3.876 7.448 19.873 12.13 5.174 1.515 14.65 3.792 28.43 6.832-4.311-1.59-8.003-3.157-11.075-4.701-3.073-1.545-6.024-3.24-8.854-5.083l20.566 4.144c-30.403-8.548-41.216-13.524-32.44-14.93" transform="translate(-490 -380) translate(490 380) translate(10 10) translate(98.906 92.249) rotate(62 107.361 180.22) rotate(5 58.536 61.899)"/>
                                <path d="M48.686 82.565c-1.122-1.182-.896-8.938-.218-16.312m2.49-14.08c2.28-.428 20.546.875 22.278 2.504.62.582.904 4.385.906 9.11m-.475 11.599c-.407 4.857-1.06 8.82-1.9 9.464" transform="translate(-490 -380) translate(490 380) translate(10 10) translate(98.906 92.249) rotate(62 107.361 180.22)"/>
                            </g>
                            <path stroke-linejoin="round" d="M116.094 154.717c0-17.31-1.667-28.3-5-32.966-5-7-38.5-8-42.5-1s-7.5 26.554-14.5 31.588c-4.667 3.356-18 9.16-40 17.412h30.979l2.02 18c16-9.333 26.334-17 31-23 7-9 9.115-30.513 13-35 3-3.463 13.397-5.402 17-3 2 1.334 3.334 4.334 4 9" transform="translate(-490 -380) translate(490 380) translate(10 10) translate(98.906 92.249)"/>
                            <path d="M90.094 154.751c0-9.5-.573-17.914-1-21" transform="translate(-490 -380) translate(490 380) translate(10 10) translate(98.906 92.249)"/>
                            <path stroke-linejoin="round" d="M163.094 75.751c-1.048 45.406-4.25 69.844-9 74-4.778 4.181-41.305 5.865-71.016 5.052m-29.449-2.104c-5.222-.783-8.69-1.765-9.535-2.948-3.18-4.45-6.359-32.553-9.538-84.306-.154-2.51 4.155-5.582 12.538-9.323 5.588-2.493 41.922-1.95 109 1.63" transform="translate(-490 -380) translate(490 380) translate(10 10) translate(98.906 92.249)"/>
                            <path stroke-linejoin="round" d="M35.762 83.408c-1.879-1.33-4.141-2.432-6.668-3.022-7-1.635-18 1.352-22 6.352-5.124 6.405-10 18.554-5 49.013l12-16 13 12c-8-19-8-38.1-2-40" transform="translate(-490 -380) translate(490 380) translate(10 10) translate(98.906 92.249)"/>
                            <path stroke-linejoin="round" d="M40.094 131.751c-4-22.666-8.667-36-14-40-2.914-2.185-16-6-20 7M78.82 119.194c-2.348.318-3.94.669-4.778 1.05-2.456 1.12-3.598 2.597-3.84 4" transform="translate(-490 -380) translate(490 380) translate(10 10) translate(98.906 92.249)"/>
                        </g>
                        <g stroke="#323A48" stroke-linejoin="round">
                            <path d="M15.5 0L15.5 82M15.5 91c2.21 0 4-2.09 4-4.5s-1.79-4.5-4-4.5-4 1.607-4 4.34c0 2.731 1.79 4.66 4 4.66z" transform="translate(-490 -380) translate(490 380) translate(10 10) translate(194.5 1)"/>
                            <path d="M18.46 83.5c1.693-2.333 2.54-4.667 2.54-7s-.5-4.667-1.5-7M19.5 86c2.997-1.432 4.98-3.117 5.95-5.056.97-1.938 1.32-4.92 1.05-8.944M19.5 87c2.518-.034 4.852.633 7 2 2.148 1.367 3.482 3.034 4 5M19 89c2.696 2 4.044 4.417 4.044 7.25s-.848 5.583-2.544 8.25" transform="translate(-490 -380) translate(490 380) translate(10 10) translate(194.5 1)"/>
                            <path d="M8.495 83.5c2.425-2.82 3.592-5.653 3.5-8.5-.092-2.847-1.092-5.014-3-6.5" transform="translate(-490 -380) translate(490 380) translate(10 10) translate(194.5 1) matrix(-1 0 0 1 20.495 0)"/>
                            <path d="M3.498 85c2.968-.86 5.055-2.193 6.26-4s1.785-4.474 1.74-8" transform="translate(-490 -380) translate(490 380) translate(10 10) translate(194.5 1) matrix(-1 0 0 1 14.998 0)"/>
                            <path d="M.5 87c2.185-.034 4.352.633 6.5 2 2.148 1.367 3.648 3.034 4.5 5" transform="translate(-490 -380) translate(490 380) translate(10 10) translate(194.5 1) matrix(-1 0 0 1 12 0)"/>
                            <path d="M7.5 89c3 2 4.5 4.167 4.5 6.5s-.75 5-2.25 8" transform="translate(-490 -380) translate(490 380) translate(10 10) translate(194.5 1) matrix(-1 0 0 1 19.5 0)"/>
                            <path d="M17.25 91c0 .8-.167 1.467-.5 2M13.75 91c0 .8.167 1.467.5 2M15.5 26.5S19 9.4 26.5 0M15.5 29.5c-1.167-9-5.167-18.833-12-29.5" transform="translate(-490 -380) translate(490 380) translate(10 10) translate(194.5 1)"/>
                            <path d="M6.5 4.6C7.5 5.533 9 6 11 6s3.5-.467 4.5-1.4c.653.933 1.82 1.4 3.5 1.4s3.18-.667 4.5-2M9.5 10.25c.667 1.167 1.667 1.75 3 1.75s2.333-.333 3-1c.667.333 1.5.5 2.5.5s1.833-.417 2.5-1.25" transform="translate(-490 -380) translate(490 380) translate(10 10) translate(194.5 1)"/>
                            <path d="M85.214 69.785L74.427 64.32c-2.578-8.17-7.755-14.074-15.53-17.712-11.664-5.456-28.911 4.02-29.279 20.659-.367 16.64 17.737 28.247 30.199 22.782 8.308-3.644 12.931-10.499 13.87-20.563l11.527.3z" transform="translate(-490 -380) translate(490 380) translate(10 10) translate(194.5 1) rotate(146 57.413 68.237)"/>
                            <path d="M61.762 52.5c5.537 0 7.224 4.445 6.262 7.846-.914 3.23-6.04 4.154-5.583 6.923.206 1.249 2.74 1.385 2.74 1.385s-.438 1.846-3.197 1.846c-2.283 0-3.196-1.385-2.74-3.23.462-1.867 2.844-3.232 2.844-5.54 0-1.845-.988-2.475-2.283-2.307-1.617.21-3.303 1.087-4.11 0-1.37-1.846.646-6.923 6.067-6.923zM62.28 76.5c1.104 0 2-.895 2-2s-.896-2-2-2c-1.105 0-2 .895-2 2s.895 2 2 2z" transform="translate(-490 -380) translate(490 380) translate(10 10) translate(194.5 1)"/>
                        </g>
                        <path stroke="#323A48" stroke-linejoin="round" d="M102.152 208.65c0 2.234.228 5.091.684 8.573M153.592 149.456c-4.45 0-15.977 5.895-14.592 7.482.924 1.057 39.699 1.745 116.326 2.062M319.125 113.487c1.66 2.412 1.66 5.173 0 8.284M337.484 190.8c3.82.362 6.792 1.191 8.918 2.487" transform="translate(-490 -380) translate(490 380) translate(10 10)"/>
                    </g>
                </g>
            </g>
        </g>
    </g>
</svg>
