<svg xmlns="http://www.w3.org/2000/svg" xmlns:xlink="http://www.w3.org/1999/xlink" width="32" height="32" viewBox="0 0 32 32">
    <defs>
        <path id="rdjwgz23na" d="M19.14 6.004L16.733 6l-.227.004c-2.846.092-4.708 1.922-4.708 4.652v1.496H9.86c-.476 0-.861.356-.861.794v2.813l.007.1c.053.391.415.694.854.694h1.937v6.653c0 .439.386.794.862.794h3.157l.108-.006c.425-.05.753-.383.753-.788v-6.653h2.347c.476 0 .861-.355.861-.794l.001-2.813c0-.21-.09-.412-.252-.56l-.085-.07c-.15-.106-.334-.164-.524-.164h-2.348v-1.2c0-.613.082-.735.715-.747l1.746-.002c.476 0 .861-.355.861-.794V6.797c0-.437-.385-.793-.86-.793zm-2.408.886l2.302.003v2.42h-1.517c-1.308 0-1.804.52-1.804 1.638v2.091h3.209l-.002 2.62-3.207.001v7.446h-2.95v-7.446H9.966v-2.621h2.799v-2.386c0-2.315 1.534-3.766 3.968-3.766z"/>
    </defs>
    <g fill="none" fill-rule="evenodd">
        <g>
            <g>
                <g>
                    <g transform="translate(-1097 -956) translate(0 937) translate(1044 20) translate(54)">
                        <use fill="#4F5869" fill-rule="nonzero" xlink:href="#rdjwgz23na"/>
                        <rect width="30" height="30" stroke="#4F5869" stroke-width=".8" rx="15"/>
                    </g>
                </g>
            </g>
        </g>
    </g>
</svg>
