<svg width="21" height="22" viewBox="0 0 21 22" fill="none" xmlns="http://www.w3.org/2000/svg">
<g clip-path="url(#clip0_2024_4595)">
<path d="M10.4674 9.51324V13.5797H16.1009C15.8535 14.8875 15.1112 15.9947 13.9978 16.7393L17.3951 19.3835C19.3743 17.551 20.5164 14.8589 20.5164 11.6614C20.5164 10.9167 20.4498 10.2007 20.326 9.51354H10.4677L10.4674 9.51324Z" fill="#4285F4"/>
<path d="M4.60101 13.4207L3.83486 14.009L1.12292 16.128C2.8454 19.5547 6.37553 21.9222 10.4671 21.9222C13.2933 21.9222 15.6627 20.9868 17.3945 19.3832L13.9973 16.739C13.0648 17.369 11.8753 17.7508 10.4668 17.7508C7.74531 17.7508 5.43288 15.9086 4.60508 13.4265L4.60072 13.4204L4.60101 13.4207Z" fill="#34A853"/>
<path d="M1.12292 6.71642C0.409101 8.12896 0 9.72321 0 11.4222C0 13.1211 0.409101 14.7154 1.12292 16.1279C1.12292 16.1375 4.60566 13.4169 4.60566 13.4169C4.39631 12.7869 4.27245 12.1187 4.27245 11.4219C4.27245 10.7251 4.39631 10.0569 4.60566 9.42688L1.12292 6.71613V6.71642Z" fill="#FBBC05"/>
<path d="M10.4674 5.10322C12.009 5.10322 13.3794 5.63785 14.4735 6.6686L17.471 3.6618C15.6534 1.96256 13.2936 0.92218 10.4674 0.92218C6.37553 0.92218 2.8451 3.28001 1.12292 6.71643L4.60566 9.42747C5.43346 6.94568 7.74589 5.10322 10.4674 5.10322Z" fill="#EA4335"/>
</g>
<defs>
<clipPath id="clip0_2024_4595">
<rect width="20.5161" height="21" fill="white" transform="translate(0 0.92218)"/>
</clipPath>
</defs>
</svg>
