<svg width="332" height="179" viewBox="0 0 332 179" fill="none" xmlns="http://www.w3.org/2000/svg">
<path fill-rule="evenodd" clip-rule="evenodd" d="M67.5983 81.2048C64.8095 80.7481 62.6315 80.9701 61.0643 81.8708C58.7136 83.2219 60.3244 100.632 61.8424 101.765C62.4802 102.241 74.5819 103.605 88.4284 104.017C107.542 104.584 130.057 104.086 131.018 103.689C132.122 103.233 132.391 102.591 131.823 101.765C105.253 101.864 87.6331 100.504 78.9622 97.6854C70.2912 94.867 66.5033 89.3735 67.5983 81.2048Z" fill="#FFA126"/>
<path fill-rule="evenodd" clip-rule="evenodd" d="M72.9211 103.333L67.221 102.898C67.0482 139.273 68.1434 158.767 70.5067 161.377C74.0516 165.293 115.414 164.74 125.057 160.865C125.639 159.773 125.921 158.89 125.9 158.216C103.2 161.427 88.3994 159.168 81.4992 151.437C74.5991 143.706 71.7397 127.672 72.9211 103.333Z" fill="#FFA126"/>
<path fill-rule="evenodd" clip-rule="evenodd" d="M145.064 136.335C142.24 136.195 140.289 136.545 139.212 137.385C137.595 138.646 139.259 153.889 140.241 154.526C140.62 154.772 152.386 155.968 165.644 156.384C186.741 157.045 212.993 156.852 213.564 156.209C214.185 155.512 214.495 154.766 214.495 153.972C178.835 155.354 158.055 154.566 152.154 151.606C146.253 148.646 143.89 143.556 145.064 136.335Z" fill="#FFA126"/>
<path fill-rule="evenodd" clip-rule="evenodd" d="M149.644 155.763L143.887 155.163C144.48 167.598 145.401 174.451 146.65 175.72C147.637 176.723 164.239 178.327 179.931 178.161C194.03 178.012 206.634 176.723 208.086 175.72C209.01 175.082 209.408 174.351 209.28 173.528C182.811 175.398 166.162 174.962 159.334 172.221C152.505 169.481 149.276 163.995 149.644 155.763Z" fill="#FFA126"/>
<path fill-rule="evenodd" clip-rule="evenodd" d="M72.8883 3.55695C70.9628 6.85053 70 11.9924 70 18.9825C70 27.3798 70.7703 36.2994 71.8138 37.5305C73.1518 39.109 79.6183 40.6955 91.2135 42.2902L95.6789 49.3397L100.117 41.7489C107.492 41.2961 112.609 40.8748 115.467 40.4851C119.755 39.9005 84.6492 41.1867 77.4645 33.8175C72.6747 28.9047 71.1493 18.8179 72.8883 3.55695Z" fill="#FFA126"/>
<path fill-rule="evenodd" clip-rule="evenodd" d="M84.972 12.266C82.0001 15.9442 81.6516 19.5361 83.9267 23.0417C86.2018 26.5474 90.4345 30.1393 96.6248 33.8175L103.306 29.3549C97.0454 30.7355 91.8744 29.3672 87.7925 25.25C83.7106 21.1328 82.7704 16.8048 84.972 12.266Z" fill="#FFA126"/>
<path fill-rule="evenodd" clip-rule="evenodd" d="M157.361 71C156.12 73.6907 155.5 77.6798 155.5 82.9671C155.5 89.3189 156.604 96.9858 157.361 97.917C158.819 99.7079 170.69 99.2134 171.672 100.021C172.326 100.559 173.474 102.386 175.114 105.5C176.623 102.475 177.788 100.648 178.611 100.021C179.16 99.6021 183.335 99.2307 186.985 98.5239C188.194 98.2897 189.699 97.839 191.5 97.1719C175.69 98.8328 165.678 97.7178 161.464 93.8268C157.25 89.9358 155.883 82.3269 157.361 71Z" fill="#FFA126"/>
<path fill-rule="evenodd" clip-rule="evenodd" d="M166.812 77.75C164.105 80.0361 163.775 82.6611 165.822 85.625C167.869 88.5889 170.783 91.2139 174.566 93.5L179.5 90.1806C175.55 91.4923 171.966 90.5675 168.75 87.4063C165.534 84.2451 164.888 81.0263 166.812 77.75Z" fill="#FFA126"/>
<path fill-rule="evenodd" clip-rule="evenodd" d="M206.814 26.1395C205.105 29.6968 204.25 34.9705 204.25 41.9606C204.25 50.3579 205.77 60.4938 206.814 61.725C208.821 64.0926 225.172 63.4389 226.524 64.5066C227.426 65.2183 229.006 67.6328 231.265 71.75C233.343 67.7502 234.948 65.3358 236.081 64.5066C236.838 63.9527 242.589 63.4617 247.615 62.5273C249.281 62.2177 251.354 61.6219 253.834 60.7399C232.058 62.9357 218.268 61.4615 212.464 56.3175C206.661 51.1735 204.777 41.1141 206.814 26.1395Z" fill="#FFA126"/>
<path fill-rule="evenodd" clip-rule="evenodd" d="M219.627 34.3929C216.094 38.4542 215.713 42.4773 218.485 46.462C221.256 50.4468 225.136 53.4819 230.125 55.5675C231.683 54.9674 232.933 54.4031 233.875 53.8745C234.816 53.3459 236.005 52.5416 237.441 51.4615C231.221 52.9872 225.933 51.625 221.578 47.375C217.223 43.125 216.573 38.7976 219.627 34.3929Z" fill="#FFA126"/>
<path fill-rule="evenodd" clip-rule="evenodd" d="M89.9698 77.4304C85.7317 76.4263 82.6092 75.2563 80.6024 73.9204C77.5921 71.9164 73.2331 69.5 71.7863 69.5C71.1743 69.5 69.4178 70.5566 68.916 72.0327C68.029 74.6422 68.6841 76.744 69.7222 76.744C70.4303 76.744 71.0103 74.5451 73.8347 74.4251C79.271 74.1943 83.2064 76.9569 86.0298 77.7761C88.9748 78.6305 90.2881 78.5153 89.9698 77.4304Z" fill="#FFA126"/>
<path fill-rule="evenodd" clip-rule="evenodd" d="M72.4286 55.25C70.6455 55.9899 69.0284 57.5223 67.5774 59.8472C65.7639 62.7529 64.3696 67.9817 64.2224 68.9228C63.6048 72.8706 64.3605 76.8369 65.4215 77.8974C67.9958 80.4703 75.6013 80.583 78.8618 80.3311C81.0355 80.1631 82.8361 79.5528 84.2636 78.5C74.6141 79.8869 68.8569 79.1369 66.9918 76.25C65.6366 74.1524 65.9926 68.204 68.2935 61.9129C69.1832 59.4804 70.5615 57.2594 72.4286 55.25Z" fill="#FFA126"/>
<path fill-rule="evenodd" clip-rule="evenodd" d="M95.2772 75.4542C93.5119 75.6454 92.5138 75.9662 92.283 76.4166C92.0523 76.867 91.8746 77.9746 91.75 79.7394L99.787 79.3333C97.281 79.5257 95.6396 79.1979 94.863 78.3499C94.0863 77.502 94.2244 76.5367 95.2772 75.4542Z" fill="#FFA126"/>
<path fill-rule="evenodd" clip-rule="evenodd" d="M88.75 78.5C82.5416 78.9101 78.8188 79.9912 77.5814 81.7433C76.3441 83.4953 75.5669 88.4142 75.25 96.5C75.6959 95.9603 76.2514 95.158 76.9164 94.0934C77.9139 92.4964 77.5814 84.8948 79 82.6776C80.4468 80.4163 83.6968 79.0238 88.75 78.5Z" fill="#FFA126"/>
<path fill-rule="evenodd" clip-rule="evenodd" d="M101.016 79.1731C107.153 80.4923 110.464 81.5409 110.95 82.3189C111.25 82.7992 112.178 84.6262 112.502 87.927C112.636 89.2904 112.636 91.8981 112.502 95.75C113.517 94.3606 114.282 93.1737 114.797 92.1893C115.569 90.7127 114.147 81.8772 112.502 80.6129C110.998 79.4566 107.169 78.7511 101.016 78.4966V79.1731Z" fill="#FFA126"/>
<path fill-rule="evenodd" clip-rule="evenodd" d="M103.854 77.8384C103.329 77.281 104.867 77.1092 106.837 76.4785C109.093 75.7566 111.914 74.5775 113.377 73.8328C116.117 72.4373 120.941 70.3387 122.385 73.1087C123.83 75.8786 123.335 78.5 121.858 78.5C120.382 78.5 121.747 75.4845 118.036 75.125C114.325 74.7655 104.476 78.5 103.854 77.8384Z" fill="#FFA126"/>
<path fill-rule="evenodd" clip-rule="evenodd" d="M107.139 71C105.726 73.1357 104.668 74.5088 103.965 75.1195C103.263 75.7301 102.191 76.3969 100.75 77.1199L101.016 78.3499C105.761 78.502 108.807 78.7163 110.155 78.9929C111.502 79.2694 113.291 79.5212 115.521 79.7481L122.958 80.3C124.205 80.7173 125.075 80.7173 125.566 80.3C126.058 79.8827 126.648 78.9817 127.338 77.5968C126.061 78.9057 123.699 79.3711 120.25 78.9929C118.115 78.7587 113.116 77.5754 108.535 77.75C106.239 77.8375 104.212 76.5344 105.769 73.8951C106.093 73.3453 106.55 72.3803 107.139 71Z" fill="#FFA126"/>
<path fill-rule="evenodd" clip-rule="evenodd" d="M206.129 123.75C207.068 127.591 207.281 130.62 206.767 132.839C206.342 134.677 203.602 135.457 198.546 135.18C208.758 135.623 214.074 136.167 214.495 136.814C214.815 137.304 215.548 142.171 215.423 146.858C215.302 151.434 214.336 155.836 213.565 156.209C212.523 156.713 211.73 156.772 211.185 156.384C211.185 161.065 211.185 163.406 211.185 163.406C220.523 164.261 228.414 164.174 239.232 163.945C250.051 163.716 258.683 161.699 259.307 160.865C259.723 160.309 259.931 159.846 259.931 159.477C236.741 161.79 223.605 161.508 220.523 158.632C215.9 154.318 222.418 137.238 216.265 134.112C210.935 131.405 208.776 128.395 209.787 125.082L206.129 123.75Z" fill="#FFA126"/>
<path fill-rule="evenodd" clip-rule="evenodd" d="M206.421 125.404C216.922 125.567 224.528 125.688 229.238 125.766C252.844 126.159 264.347 125.705 264.973 125.404C265.786 125.014 266.191 124.348 266.187 123.406C234.579 123.767 216.887 123.48 213.109 122.546C206.055 120.803 208.801 118.1 203.253 112.939C199.867 109.789 198.95 106.414 200.5 102.815C198.012 102.786 196.284 103.055 195.314 103.62C194.345 104.186 193.99 107.612 194.25 113.899C195.481 112.127 197.315 111.886 199.75 113.177C202.185 114.468 204.409 118.544 206.421 125.404Z" fill="#FFA126"/>
<path fill-rule="evenodd" clip-rule="evenodd" d="M168.997 132.145C164.51 130.339 161.362 128.915 159.555 127.871C156.843 126.305 152.733 124.25 151.286 124.25C150.674 124.25 148.918 125.307 148.416 126.783C147.529 129.392 148.184 131.494 149.222 131.494C149.93 131.494 150.51 129.295 153.335 129.175C158.771 128.944 161.124 130.931 163.947 131.75C166.892 132.604 168.575 132.736 168.997 132.145Z" fill="#FFA126"/>
<path fill-rule="evenodd" clip-rule="evenodd" d="M151.929 110C150.145 110.74 148.528 112.272 147.077 114.597C145.264 117.503 143.87 122.732 143.722 123.673C143.105 127.621 143.86 131.587 144.922 132.647C147.496 135.22 153.153 135.692 156.414 135.44C158.587 135.272 160.783 134.876 163 134.251C153.776 135.241 148.232 134.292 146.367 131.405C145.011 129.308 145.493 122.954 147.794 116.663C148.683 114.23 150.062 112.009 151.929 110Z" fill="#FFA126"/>
<path fill-rule="evenodd" clip-rule="evenodd" d="M174.468 130.172C172.909 130.385 172.014 130.716 171.783 131.167C171.552 131.617 171.375 132.725 171.25 134.489L180.25 134.117C177.35 134.113 175.512 133.687 174.735 132.839C173.959 131.991 173.869 131.102 174.468 130.172Z" fill="#FFA126"/>
<path fill-rule="evenodd" clip-rule="evenodd" d="M168.25 133.25C162.042 133.66 158.319 134.741 157.081 136.493C155.844 138.245 155.067 143.164 154.75 151.25C155.196 150.71 155.751 149.908 156.416 148.843C157.414 147.246 157.081 139.472 158.966 137.392C160.819 135.346 163.914 133.965 168.25 133.25Z" fill="#FFA126"/>
<path fill-rule="evenodd" clip-rule="evenodd" d="M182.865 134.487C187.436 135.43 189.964 136.291 190.45 137.069C190.936 137.847 191.454 142.324 192.002 150.5C192.986 149.178 193.735 148.025 194.25 147.041C195.022 145.564 193.647 136.764 192.002 135.5C190.498 134.344 187.452 133.594 182.865 133.25V134.487Z" fill="#FFA126"/>
<path fill-rule="evenodd" clip-rule="evenodd" d="M183.354 132.588C182.829 132.031 184.367 131.859 186.337 131.228C188.593 130.507 191.414 129.328 192.877 128.583C195.617 127.187 200.428 125.609 201.872 128.379C203.316 131.149 202.835 133.25 201.358 133.25C199.882 133.25 201.247 130.235 197.536 129.875C193.825 129.515 183.976 133.25 183.354 132.588Z" fill="#FFA126"/>
<path fill-rule="evenodd" clip-rule="evenodd" d="M189.055 123.947C187.04 126.875 185.682 128.645 184.979 129.256C184.276 129.866 183.194 130.544 181.732 131.29C182.168 131.873 182.433 132.359 182.525 132.751C182.618 133.142 182.58 133.615 182.413 134.169C186.451 134.056 189.13 134 190.449 134C191.768 134 193.596 134.406 195.932 135.218H203.242C204.58 135.149 205.494 134.907 205.986 134.489C206.477 134.072 206.738 132.769 206.767 130.581C204.939 133.238 202.301 134.378 198.852 134C196.716 133.766 194.306 132.345 189.726 132.52C187.43 132.607 185.819 131.539 187.162 128.875C187.584 128.038 188.215 126.395 189.055 123.947Z" fill="#FFA126"/>
<path fill-rule="evenodd" clip-rule="evenodd" d="M223.294 98C220.109 96.9578 217.612 95.9148 215.805 94.8711C213.093 93.3054 208.983 91.25 207.536 91.25C206.924 91.25 205.168 92.3066 204.666 93.7827C203.779 96.3922 204.434 98.494 205.472 98.494C206.18 98.494 206.839 96.4677 209.585 96.1751C213.575 95.75 216.447 97.5558 219.271 98.375C222.216 99.2295 223.557 99.1045 223.294 98Z" fill="#FFA126"/>
<path fill-rule="evenodd" clip-rule="evenodd" d="M208.179 77C206.395 77.7399 204.778 79.2723 203.327 81.5972C201.514 84.5029 200.12 89.7317 199.972 90.6728C199.355 94.6206 200.11 98.5869 201.172 99.6474C203.746 102.22 210.024 102.289 213.284 102.037C215.458 101.869 218.147 101.273 221.352 100.25C210.949 101.637 204.814 100.887 202.949 98C201.594 95.9024 201.743 89.954 204.044 83.6629C204.933 81.2304 206.312 79.0094 208.179 77Z" fill="#FFA126"/>
<path fill-rule="evenodd" clip-rule="evenodd" d="M229.507 95.75C227.4 95.9128 226.231 96.2193 226 96.6697C225.769 97.1201 225.519 98.4767 225.25 100.739L234.25 101C231.865 100.848 230.284 100.348 229.507 99.5C228.73 98.6521 228.73 97.402 229.507 95.75Z" fill="#FFA126"/>
<path fill-rule="evenodd" clip-rule="evenodd" d="M224.712 99.8394C218.362 100.523 214.569 101.741 213.331 103.493C212.094 105.245 211.317 110.164 211 118.25C211.446 117.71 212.001 116.908 212.666 115.843C213.664 114.246 213.331 107.361 214.712 104.704C215.945 102.332 219.278 100.711 224.712 99.8394Z" fill="#FFA126"/>
<path fill-rule="evenodd" clip-rule="evenodd" d="M237.25 101.525C242.917 102.87 245.994 103.931 246.48 104.709C246.966 105.487 247.557 109.751 248.252 117.5C248.763 116.684 249.276 115.783 249.79 114.799C250.563 113.322 250.187 104.425 248.252 102.813C246.78 101.586 243.112 100.732 237.25 100.25V101.525Z" fill="#FFA126"/>
<path fill-rule="evenodd" clip-rule="evenodd" d="M239.604 99.5884C239.079 99.031 240.617 98.8592 242.587 98.2285C244.843 97.5066 247.664 96.3275 249.127 95.5828C251.867 94.1873 256.691 92.0887 258.135 94.8587C259.58 97.6286 259.085 100.25 257.608 100.25C256.132 100.25 257.497 97.2345 253.786 96.875C250.075 96.5155 240.226 100.25 239.604 99.5884Z" fill="#FFA126"/>
<path fill-rule="evenodd" clip-rule="evenodd" d="M244.071 90.6238C241.87 93.177 240.418 94.7588 239.715 95.3694C239.013 95.98 237.941 96.6469 236.5 97.3699C236.746 98.0672 236.895 98.5886 236.949 98.9341C237.003 99.2796 237.103 99.7182 237.25 100.25C241.809 100.317 245.074 100.546 247.044 100.938C250 101.525 250.11 101.55 253.148 101.75C255.174 101.883 257.378 101.883 259.759 101.75C260.822 101.367 261.599 100.967 262.091 100.55C262.582 100.133 262.96 99.0727 263.224 97.3699C262.42 100.168 260.293 101.378 256.844 101C254.709 100.766 248.864 100.25 244.362 99.5C242.219 99.143 241.166 97.3699 242.48 94.181C242.71 93.6229 243.24 92.4372 244.071 90.6238Z" fill="#FFA126"/>
<path fill-rule="evenodd" clip-rule="evenodd" d="M92.2593 79.7334C91.1691 79.6297 90.4367 79.7185 90.062 80C89.5 80.4221 88.2768 88.1287 88.5134 92.1893C88.75 96.2499 88.938 103.944 89.5 103.981C89.8747 104.006 91.0812 104.006 93.1195 103.981C91.8363 101.159 91.1947 96.6185 91.1947 90.3608C91.1947 84.1031 91.5495 80.5607 92.2593 79.7334Z" fill="#FFA126"/>
<path fill-rule="evenodd" clip-rule="evenodd" d="M91.7485 103.981H89.112C88.746 112.54 88.6572 119.842 88.8454 125.888C89.1278 134.957 90.1835 163.621 91.2214 164.181C91.9133 164.554 92.8816 164.512 94.1264 164.056C92.4784 154.044 91.5823 142.058 91.4379 128.099C91.2936 114.14 91.3971 106.101 91.7485 103.981Z" fill="#FFA126"/>
<path fill-rule="evenodd" clip-rule="evenodd" d="M172.167 134.487C171.326 134.271 170.778 134.399 170.523 134.871C170.14 135.58 169.97 142.176 169.97 146.022C169.97 148.586 170.249 152.04 170.806 156.384L174.549 156.513C172.959 153.988 172.073 150.57 171.89 146.26C171.708 141.949 171.8 138.025 172.167 134.487Z" fill="#FFA126"/>
<path fill-rule="evenodd" clip-rule="evenodd" d="M174.036 156.512L171.25 156.41C171.25 161.051 171.357 164.997 171.572 168.247C171.787 171.497 172.064 174.802 172.404 178.162L174.985 178.174C174.636 176.006 174.319 172.413 174.036 167.396C173.753 162.38 173.753 158.752 174.036 156.512Z" fill="#FFA126"/>
<path fill-rule="evenodd" clip-rule="evenodd" d="M226.335 101.46C224.329 101.098 223.327 101.12 223.327 101.525C223.327 102.133 222.305 111.266 222.305 115.017C222.305 118.769 223.276 125.762 223.724 125.762C224.022 125.762 225.099 125.762 226.954 125.762C226.176 123.823 225.608 119.889 225.25 113.96C224.891 108.031 225.253 103.864 226.335 101.46Z" fill="#FFA126"/>
<path fill-rule="evenodd" clip-rule="evenodd" d="M226.665 125.762C225.008 125.524 224.028 125.524 223.724 125.762C223.268 126.12 223.268 140.649 223.724 146.022C224.18 151.395 224.562 163.897 225.432 164.179C226.012 164.367 227.281 164.367 229.238 164.179C228.102 162.328 227.245 155.783 226.665 144.543C226.085 133.302 226.085 127.042 226.665 125.762Z" fill="#FFA126"/>
<path d="M127.273 103.945C127.255 104.975 127.646 157.008 125.057 160.865C122.467 164.723 74.3048 165.554 70.5068 161.377C67.9748 158.592 66.8036 122.046 67.241 103.324" stroke="#323A48" stroke-linecap="round" stroke-linejoin="round"/>
<path d="M89.4736 104.017C87.7338 102.534 89.4736 162.562 91.2135 163.946M103.809 163.945C105.166 160.891 105.914 107.594 104.561 104.311" stroke="#323A48" stroke-linecap="round" stroke-linejoin="round"/>
<path d="M97.9799 104.017C81.3881 103.753 62.8627 103.13 61.8426 101.765C59.7807 99.0049 58.4044 84.0473 61.0645 81.8708C61.8353 81.2402 67.9156 80.6904 76.2208 80.3052M120.185 80.0476C126.782 80.3483 131.378 80.8725 131.965 81.6748C134.301 84.8694 133.145 102.722 131.018 103.689C130.089 104.111 116.206 104.224 101.764 104.1" stroke="#323A48" stroke-linecap="round" stroke-linejoin="round"/>
<path d="M91.6837 79.2495C91.6948 77.1 91.9452 76.9025 92.4734 76.2299C93.4048 75.0439 99.1135 75.3718 100.276 76.9826C100.714 77.5905 100.695 78.6567 100.682 79.4065" stroke="#323A48" stroke-linecap="round" stroke-linejoin="round"/>
<path d="M171.214 133.921C171.212 132.13 171.532 131.342 172.187 130.785C173.343 129.804 180.978 130.219 181.883 131.617C182.368 132.365 182.478 133.096 182.461 134.027" stroke="#323A48" stroke-linecap="round" stroke-linejoin="round"/>
<path d="M225.25 100.943C225.265 98.4274 225.613 97.3185 226.318 96.5313C227.559 95.1433 235.7 95.6645 236.653 97.6204C237.162 98.6671 237.273 99.692 237.246 101" stroke="#323A48" stroke-linecap="round" stroke-linejoin="round"/>
<path d="M91.7495 76.9512C84.4755 71.8376 79.7013 54.8674 72.8255 55.4235C66.4762 55.937 58.8251 77.3872 67.7939 79.3199" stroke="#323A48" stroke-linecap="round" stroke-linejoin="round"/>
<path d="M171.25 131.479C163.976 126.366 159.201 109.617 152.326 110.173C145.976 110.687 138.325 132.137 147.294 134.07" stroke="#323A48" stroke-linecap="round" stroke-linejoin="round"/>
<path d="M226 96.6697C218.726 91.5561 215.451 76.6174 208.575 77.1735C202.226 77.687 194.575 99.1372 203.544 101.07" stroke="#323A48" stroke-linecap="round" stroke-linejoin="round"/>
<path d="M100.413 76.8251C109.424 73.6217 111.241 57.6831 118.36 57.8074C125.797 57.9372 130.579 78.4513 125.566 80.3" stroke="#323A48" stroke-linecap="round" stroke-linejoin="round"/>
<path d="M181.793 131.296C190.805 128.093 190.741 112.433 197.86 112.557C205.297 112.687 209.848 133.334 204.835 135.183" stroke="#323A48" stroke-linecap="round" stroke-linejoin="round"/>
<path d="M236.821 97.25C245.875 93.7679 246.991 79.4331 254.11 79.5574C261.547 79.6872 266.26 99.1513 261.247 101" stroke="#323A48" stroke-linecap="round" stroke-linejoin="round"/>
<path d="M89.3659 77.3653C81.6849 75.7652 73.7187 68.6051 71.0369 69.6613C69.2491 70.3654 68.3726 72.1928 68.4075 75.1437" stroke="#323A48" stroke-linecap="round" stroke-linejoin="round"/>
<path d="M168.866 132.115C161.185 130.515 153.219 123.355 150.537 124.411C148.749 125.115 147.873 126.943 147.907 129.894" stroke="#323A48" stroke-linecap="round" stroke-linejoin="round"/>
<path d="M222.899 98C215.218 96.3998 209.469 90.3551 206.787 91.4113C204.999 92.1154 204.123 93.9428 204.157 96.8936" stroke="#323A48" stroke-linecap="round" stroke-linejoin="round"/>
<path d="M103.656 77.1457C110.557 76.0674 116.943 71.2042 120.27 72.142C123.597 73.0798 123.497 76.9063 122.736 78.0823" stroke="#323A48" stroke-linecap="round" stroke-linejoin="round"/>
<path d="M183.914 132.115C190.816 131.037 196.443 125.954 199.77 126.892C203.098 127.83 202.997 131.656 202.236 132.832" stroke="#323A48" stroke-linecap="round" stroke-linejoin="round"/>
<path d="M239.406 98.8957C246.307 97.8174 252.693 92.9542 256.02 93.892C259.347 94.8298 259.247 98.6563 258.486 99.8323" stroke="#323A48" stroke-linecap="round" stroke-linejoin="round"/>
<path d="M101.016 78.35C111.994 79.1306 118.013 80.3661 119.075 82.0563C120.136 83.7465 120.353 87.9006 119.725 94.5185L116.858 88.6842L112.454 95.9523C112.554 87.5502 111.859 82.8675 110.37 81.9044C108.882 80.9412 106.383 80.2196 102.875 79.7394" stroke="#323A48" stroke-linecap="round" stroke-linejoin="round"/>
<path d="M183.662 133.289C192.553 133.929 197.529 135.095 198.591 136.785C199.652 138.475 199.869 142.629 199.241 149.247L196.374 143.413L191.97 150.681C192.07 142.279 191.375 137.596 189.886 136.633C188.398 135.67 186.151 134.957 183.145 134.494" stroke="#323A48" stroke-linecap="round" stroke-linejoin="round"/>
<path d="M237.25 100.25C247.916 100.916 253.779 102.095 254.84 103.785C255.902 105.475 256.119 109.629 255.491 116.247L252.624 110.413L248.22 117.681C248.144 109.615 247.361 105.101 245.872 104.138C244.384 103.174 241.604 102.293 237.532 101.494" stroke="#323A48" stroke-linecap="round" stroke-linejoin="round"/>
<path d="M104.128 104.295C104.885 103.242 105.827 83.0395 103.741 79.9993C103.272 79.3158 91.0195 79.4066 90.2428 79.7637C87.8124 80.8811 87.8817 102.494 89.0691 104.03" stroke="#323A48" stroke-linecap="round" stroke-linejoin="round"/>
<path d="M184.057 156.384C184.814 155.332 185.218 136.138 184.057 134.75C183.547 134.141 171.417 134.065 170.654 134.494C169.428 135.184 169.619 154.848 170.806 156.384" stroke="#323A48" stroke-linecap="round" stroke-linejoin="round"/>
<path d="M238.888 125.99C239.961 124.304 240.523 104.148 238.888 101.931C238.171 100.959 224.604 100.813 223.526 101.502C221.793 102.609 221.855 122.95 223.526 125.404" stroke="#323A48" stroke-linecap="round" stroke-linejoin="round"/>
<path d="M90.5119 78.6164C82.8718 78.5786 78.4322 79.7017 77.1932 81.9858C75.9542 84.2699 75.2009 89.1071 74.9332 96.4973L78.3829 91.0965L82.7325 96.6334C82.9475 85.6167 85.6371 79.9694 90.8014 79.6916" stroke="#323A48" stroke-linecap="round" stroke-linejoin="round"/>
<path d="M171.211 133.289C162.773 133.303 157.935 134.452 156.696 136.736C155.457 139.02 154.704 143.857 154.436 151.247L157.886 145.847L162.235 151.383C163.298 140.004 166.29 134.314 171.211 134.314" stroke="#323A48" stroke-linecap="round" stroke-linejoin="round"/>
<path d="M224.99 99.8394C218.2 100.153 214.185 101.452 212.946 103.736C211.707 106.02 210.954 110.857 210.686 118.247L214.136 112.847L218.485 118.383C218.45 109.247 219.281 103.952 220.978 102.5C221.858 101.747 223.635 101.179 225.25 101.179" stroke="#323A48" stroke-linecap="round" stroke-linejoin="round"/>
<path d="M75.25 58.25C76.4431 58.9684 77.4255 59.9857 78.1972 61.3019" stroke="#323A48" stroke-linecap="round" stroke-linejoin="round"/>
<path d="M154.75 113C155.943 113.718 156.926 114.736 157.697 116.052" stroke="#323A48" stroke-linecap="round" stroke-linejoin="round"/>
<path d="M211 80C212.193 80.7184 213.176 81.7357 213.947 83.0519" stroke="#323A48" stroke-linecap="round" stroke-linejoin="round"/>
<path d="M97 77C97.8867 77.121 98.3823 77.3797 98.4867 77.7761" stroke="#323A48" stroke-linecap="round" stroke-linejoin="round"/>
<path d="M178.757 131.737C179.643 131.858 180.139 132.117 180.243 132.513" stroke="#323A48" stroke-linecap="round" stroke-linejoin="round"/>
<path d="M232.75 98C234.095 98.2284 234.845 98.7284 235 99.5" stroke="#323A48" stroke-linecap="round" stroke-linejoin="round"/>
<path d="M118.923 60.3577C120.59 61.0842 121.668 62.2954 122.154 63.9913" stroke="#323A48" stroke-linecap="round" stroke-linejoin="round"/>
<path fill-rule="evenodd" clip-rule="evenodd" d="M120.126 3.55695C116.418 -0.389801 76.9011 -0.646148 72.8883 3.55695C68.8754 7.76004 69.3897 34.7936 72.3166 37.6839C75.2434 40.5741 88.4249 41.2554 90.4541 42.0528C91.6732 42.5319 93.3817 44.9609 95.5795 49.3397C97.8317 44.993 99.4178 42.5741 100.338 42.0829C102.168 41.1053 116.7 41.8978 119.998 39.0381C123.295 36.1784 123.834 7.50369 120.126 3.55695Z" stroke="#323A48" stroke-linejoin="round"/>
<path fill-rule="evenodd" clip-rule="evenodd" d="M85.467 25.2086C88.2385 28.2557 91.9777 31.1253 96.6845 33.8175C101.877 31.2233 105.622 28.1428 107.917 24.5762C111.361 19.2262 110.577 12.6648 105.63 11.3995C102.331 10.556 99.3497 11.8538 96.6845 15.2927C93.5495 11.3142 90.1855 10.0165 86.5928 11.3995C81.2036 13.4741 81.7253 21.0534 85.467 25.2086Z" stroke="#323A48" stroke-linecap="round" stroke-linejoin="round"/>
<path d="M90.1279 13.6608C85.7198 13.131 84.8313 17.2664 85.8248 18.9825" stroke="#323A48" stroke-linecap="round" stroke-linejoin="round"/>
<path d="M211.185 156.341C211.169 157.234 210.738 172.432 208.398 175.728C206.058 179.024 149.729 179.032 146.65 175.72C144.98 173.923 143.695 165.177 143.694 155.237" stroke="#323A48" stroke-linecap="round" stroke-linejoin="round"/>
<path d="M171.239 156.513C170.906 157.357 171.672 176.986 172.597 178.162M182.865 178.162C183.346 177.194 184.101 157.837 183.629 156.627" stroke="#323A48" stroke-linecap="round" stroke-linejoin="round"/>
<path d="M178.252 156.511C163.8 156.281 141.13 155.736 140.241 154.526C138.446 152.08 137.251 138.821 139.569 136.891C140.24 136.332 146.629 135.843 155.417 135.499M200.177 135.19C208.17 135.44 213.839 135.92 214.395 136.694C216.429 139.525 215.417 155.352 213.564 156.209C212.755 156.584 194.128 156.69 181.549 156.583" stroke="#323A48" stroke-linecap="round" stroke-linejoin="round"/>
<path fill-rule="evenodd" clip-rule="evenodd" d="M157.365 71.0502C160.056 68.0805 188.741 67.8876 191.653 71.0502C194.566 74.2129 194.193 94.5547 192.068 96.7295C189.944 98.9042 180.376 99.4169 178.903 100.017C178.018 100.377 176.778 102.205 175.182 105.5C173.547 102.229 172.396 100.409 171.729 100.04C170.4 99.304 159.851 99.9003 157.458 97.7485C155.064 95.5967 154.673 74.02 157.365 71.0502Z" stroke="#323A48" stroke-linejoin="round"/>
<path fill-rule="evenodd" clip-rule="evenodd" d="M181.756 87.8862C178.745 91.3262 174.385 93.5 174.385 93.5C174.385 93.5 169.878 90.969 167.304 87.7819C164.162 83.8934 163.154 79.2386 166.947 77.4931C170.74 75.7476 173.928 80.5892 173.928 80.5892C173.928 80.5892 177.318 75.4124 181.256 77.4931C185.194 79.5739 184.466 84.7589 181.756 87.8862Z" stroke="#323A48" stroke-linecap="round" stroke-linejoin="round"/>
<path d="M167.745 82.25C166.746 79.3323 169.081 79.0589 169.75 79.3323" stroke="#323A48" stroke-linecap="round" stroke-linejoin="round"/>
<path d="M261.523 125.695C261.505 126.725 261.896 157.008 259.307 160.865C257.364 163.759 229.766 164.95 214.501 163.6" stroke="#323A48" stroke-linecap="round" stroke-linejoin="round"/>
<path d="M223.724 125.766C222.854 126.714 223.724 162.482 225.464 163.945M238.059 163.945C239.281 161.222 239.614 128.875 238.811 126.061" stroke="#323A48" stroke-linecap="round" stroke-linejoin="round"/>
<path d="M193.88 109.03C194.001 106.436 194.439 104.336 195.314 103.62C196.095 102.982 202.314 102.426 210.775 102.041M255.776 101.863C261.649 102.172 265.669 102.678 266.215 103.424C268.551 106.619 267.395 124.472 265.268 125.438C264.339 125.861 250.456 125.974 236.014 125.849M232.23 125.766C223.842 125.633 214.96 125.408 208.096 125.041L232.23 125.766Z" stroke="#323A48" stroke-linecap="round" stroke-linejoin="round"/>
<path fill-rule="evenodd" clip-rule="evenodd" d="M206.809 26.0513C210.504 22.1118 249.874 21.856 253.872 26.0513C257.87 30.2467 257.358 57.2307 254.442 60.1156C251.526 63.0005 238.393 63.6806 236.371 64.4766C235.157 64.9548 233.455 67.3793 231.265 71.75C229.021 67.4113 227.441 64.9968 226.524 64.5066C224.701 63.5308 210.222 64.3218 206.937 61.4674C203.652 58.6129 203.115 29.9908 206.809 26.0513Z" stroke="#323A48" stroke-linejoin="round"/>
<path fill-rule="evenodd" clip-rule="evenodd" d="M219.654 48.0478C222.433 51.0949 225.957 53.6816 230.225 55.8081C234.471 54.0235 237.782 51.7196 240.159 48.8966C244.509 43.73 245.411 36.5579 240.159 34.2387C234.907 31.9195 230.493 38.3524 230.493 38.3524C230.493 38.3524 225.798 31.4741 220.346 34.2387C214.893 37.0033 215.902 43.8926 219.654 48.0478Z" stroke="#323A48" stroke-linecap="round" stroke-linejoin="round"/>
<path d="M219.773 42.0412C218.514 37.7667 222.402 36.3585 223.503 36.7928" stroke="#323A48" stroke-linecap="round" stroke-linejoin="round"/>
<path d="M201.393 117.679C202.296 118.912 202.916 120.307 203.253 121.862" stroke="#323A48" stroke-linecap="round" stroke-linejoin="round"/>
<path d="M255.445 82.3438C256.856 82.9933 257.789 84.126 258.243 85.742" stroke="#323A48" stroke-linecap="round" stroke-linejoin="round"/>
<path d="M63.45 150.196L1 153.5M331 136.042L266.177 139.471L331 136.042ZM135.632 146.378L129.569 146.698L135.632 146.378Z" stroke="#323A48" stroke-linecap="round" stroke-linejoin="round"/>
</svg>
