<svg xmlns="http://www.w3.org/2000/svg" width="113" height="128" viewBox="0 0 113 128">
    <g fill="none" fill-rule="evenodd">
        <g>
            <g>
                <g>
                    <path fill="#FFA126" d="M54.8 105.441c9.37-2.488 15.238-4.831 17.6-7.031 7.54-7.022 13.407-12.155 17.6-15.4 0 2.933-.733 5.866-2.2 8.8-2.2 4.4-10.815 10.917-15.4 12.1-3.057.788-8.923 1.298-17.6 1.531zM12 83.01c3.444 0 5.644.733 6.6 2.2.895 1.372 4.202 12.897 4.4 22 .12 5.485-3.201 10.068-3.74 10.895-.957 1.467-2.483 2.235-4.577 2.305 1.146-2.934 1.719-8.8 1.719-17.6S14.935 87.41 12 83.01z" transform="translate(-954 -467) translate(955 467) translate(0 3.99)"/>
                    <g>
                        <path fill="#FFA126" d="M13.504 8.428c-3.49-1.79-5.791-2.271-6.904-1.445-2.766 2.053-4.628 8.852-3.83 11.154.474 1.365 2.48 1.922 6.02 1.673l5.69-2.2c-1.398-1.202-2.346-1.936-2.845-2.2-2.017-1.07-2.845-1.131-2.845-2.2 0-2.934 1.571-4.528 4.714-4.782zM6.6 22.01c-4.4.764-6.6 2.312-6.6 4.644C0 30.152 4.4 37.45 6.6 37.45c1.467 0 13.922-4.97 37.366-14.912l-.325-4.474C25.475 26.561 14.807 30.81 11.635 30.81c-3.173 0-4.85-2.934-5.035-8.8zM15.443 34.938l-6.717 2.334C12.976 48.625 17.4 54.666 22 55.392c4.6.727 12.666-2.334 24.2-9.182v-4.4c-9.872 4.565-16.874 6.405-21.005 5.52-4.132-.886-7.383-5.017-9.752-12.392zM18.012 16.113c-2.38-7.881-1.771-12.628 1.825-14.24C23.434.26 26.355.372 28.6 2.21c-3.052 2.176-4.996 4.1-5.833 5.775-.837 1.673-1.093 4.148-.767 7.425l-3.988.703z" transform="translate(-954 -467) translate(955 467) translate(0 3.99) rotate(10 -95.146 185.805)"/>
                        <path stroke="#323A48" stroke-linecap="round" stroke-linejoin="round" d="M8.307 20.216c-2.741-.165-4.1-.67-4.84-1.47C1.922 17.074 2.32 6.654 9.238 6.477c3.033-.078 5.582 2.446 7.489 5.304" transform="translate(-954 -467) translate(955 467) translate(0 3.99) rotate(10 -95.146 185.805) rotate(-4 9.725 13.346)"/>
                        <path stroke="#323A48" stroke-linecap="round" stroke-linejoin="round" d="M16.764 12.74c-.77-4.226-1.181-8.81 2.219-10.85 5.304-3.182 11.004-.522 12.121 4.748.355 1.674-.377 3.735-2.637 5.672" transform="translate(-954 -467) translate(955 467) translate(0 3.99) rotate(10 -95.146 185.805) rotate(-4 23.71 6.628)"/>
                        <path stroke="#323A48" stroke-linecap="round" stroke-linejoin="round" d="M41.8 24.21s6.735 18.86 4.4 22c-2.335 3.14-22 11-26.4 8.8-4.4-2.2-11.01-18.238-11.01-18.238M28.6 30.81l6.6 19.8m-4.61 2.9L19.8 33.01" transform="translate(-954 -467) translate(955 467) translate(0 3.99) rotate(10 -95.146 185.805)"/>
                        <path stroke="#323A48" stroke-linecap="round" stroke-linejoin="round" d="M43.876 22.612c-.83 1.087-36.96 15.868-38.622 14.781C3.594 36.306-.56 27.177.064 25.22.685 23.264 37.023 7.83 39.1 8.917c2.076 1.087 5.606 12.608 4.776 13.695zM23.28 15.41l5.32 13.2m-10.642 4.4L11 20.298M22 13.956c-.733-3.431-.122-5.88 1.833-7.346M14.48 17.61c-1.897-2.436-3.794-3.654-5.69-3.654" transform="translate(-954 -467) translate(955 467) translate(0 3.99) rotate(10 -95.146 185.805)"/>
                    </g>
                    <g>
                        <path fill="#FFA126" d="M8.316 5.584c-2.071-1.31-3.457-1.705-4.158-1.185-1.743 1.294-2.551 6.148-2.772 6.695-.354.878 1.03 1.34 4.152 1.386l3.584-1.386c-.88-.757-1.478-1.22-1.792-1.386-1.27-.674-1.792-.712-1.792-1.386 0-1.848.926-2.76 2.778-2.738zM4.158 13.866C1.386 14.348 0 15.323 0 16.792c0 2.203 2.772 6.802 4.158 6.802.924 0 8.778-3.243 23.562-9.728v-2.772C16.125 16.638 9.328 19.41 7.33 19.41c-1.999 0-3.056-1.848-3.172-5.544zM9.702 22.182l-4.164 1.412c3.282 7.535 6.056 11.303 8.322 11.303 2.266 0 7.348-1.928 15.246-5.785V26.34c-6.22 2.876-10.63 4.035-13.233 3.478-2.603-.558-4.66-3.103-6.171-7.636zM11.314 9.708c-1.493-4.528-1.106-7.3 1.16-8.316 2.266-1.016 4.114-1.016 5.544 0-1.923 1.371-3.148 2.584-3.675 3.638-.527 1.055-.688 2.614-.483 4.678h-2.546z" transform="translate(-954 -467) translate(955 467) translate(0 3.99) rotate(31 41.182 153.918)"/>
                        <path stroke="#323A48" stroke-linecap="round" stroke-linejoin="round" d="M5.234 12.736c-1.727-.104-2.583-.422-3.05-.926-.974-1.053-.723-7.618 3.636-7.73 1.91-.048 3.516 1.541 4.717 3.342" transform="translate(-954 -467) translate(955 467) translate(0 3.99) rotate(31 41.182 153.918) rotate(-4 6.127 8.408)"/>
                        <path stroke="#323A48" stroke-linecap="round" stroke-linejoin="round" d="M10.561 8.026c-.484-2.662-.744-5.55 1.398-6.835 3.342-2.005 6.933-.329 7.637 2.991.223 1.054-.238 2.353-1.662 3.573" transform="translate(-954 -467) translate(955 467) translate(0 3.99) rotate(31 41.182 153.918) rotate(-4 14.937 4.176)"/>
                        <path stroke="#323A48" stroke-linecap="round" stroke-linejoin="round" d="M26.334 15.252s4.243 11.882 2.772 13.86c-1.47 1.978-13.86 6.93-16.632 5.544-2.772-1.386-6.936-11.49-6.936-11.49M18.018 19.41l4.158 12.474m-2.905 1.827l-6.797-12.915" transform="translate(-954 -467) translate(955 467) translate(0 3.99) rotate(31 41.182 153.918)"/>
                        <path stroke="#323A48" stroke-linecap="round" stroke-linejoin="round" d="M27.642 14.245c-.524.685-23.285 9.997-24.332 9.313-1.046-.685-3.663-6.437-3.27-7.67.392-1.232 23.285-10.955 24.593-10.27 1.308.685 3.532 7.943 3.009 8.627zM14.666 9.708l3.352 8.316m-6.704 2.772L6.93 12.788M13.86 8.792c-.462-2.161-.077-3.704 1.155-4.628M9.122 11.094c-1.195-1.535-2.39-2.302-3.584-2.302" transform="translate(-954 -467) translate(955 467) translate(0 3.99) rotate(31 41.182 153.918)"/>
                    </g>
                    <g>
                        <path fill="#FFA126" d="M5.821 3.908c-1.45-.916-2.42-1.193-2.91-.829-1.22.906-1.786 4.304-1.94 4.687-.248.614.72.938 2.905.97l2.51-.97c-.617-.53-1.035-.854-1.255-.97-.89-.472-1.255-.499-1.255-.97 0-1.294.649-1.933 1.945-1.918zM2.91 9.706C.97 10.043 0 10.726 0 11.754c0 1.543 1.94 4.761 2.91 4.761.647 0 6.145-2.27 16.494-6.809v-1.94c-8.117 3.88-12.874 5.821-14.273 5.821-1.4 0-2.14-1.294-2.22-3.88zM6.791 15.527l-2.915.988c2.298 5.276 4.24 7.913 5.826 7.913 1.586 0 5.143-1.35 10.672-4.05v-1.94c-4.353 2.013-7.441 2.825-9.263 2.434-1.822-.39-3.262-2.172-4.32-5.345zM7.92 6.796c-1.045-3.17-.774-5.11.812-5.822 1.586-.71 2.88-.71 3.88 0-1.345.96-2.203 1.809-2.572 2.547-.369.738-.482 1.83-.338 3.275H7.92z" transform="translate(-954 -467) translate(955 467) translate(0 3.99) translate(0 9)"/>
                        <path stroke="#323A48" stroke-linecap="round" stroke-linejoin="round" d="M3.664 8.915c-1.21-.073-1.809-.295-2.135-.648-.682-.737-.506-5.332 2.545-5.41 1.337-.035 2.461 1.078 3.302 2.338" transform="translate(-954 -467) translate(955 467) translate(0 3.99) translate(0 9) rotate(-4 4.289 5.885)"/>
                        <path stroke="#323A48" stroke-linecap="round" stroke-linejoin="round" d="M7.393 5.618c-.34-1.863-.521-3.885.978-4.784 2.34-1.404 4.853-.23 5.346 2.093.156.738-.166 1.647-1.163 2.502" transform="translate(-954 -467) translate(955 467) translate(0 3.99) translate(0 9) rotate(-4 10.456 2.923)"/>
                        <path stroke="#323A48" stroke-linecap="round" stroke-linejoin="round" d="M18.434 10.676s2.97 8.318 1.94 9.702c-1.03 1.385-9.702 4.851-11.642 3.881-1.94-.97-4.856-8.042-4.856-8.042M12.613 13.587l2.91 8.732m-2.033 1.279l-4.758-9.04" transform="translate(-954 -467) translate(955 467) translate(0 3.99) translate(0 9)"/>
                        <path stroke="#323A48" stroke-linecap="round" stroke-linejoin="round" d="M19.35 9.972c-.367.48-16.3 6.998-17.033 6.518-.732-.479-2.564-4.505-2.29-5.368.276-.863 16.3-7.669 17.216-7.19.916.48 2.472 5.56 2.106 6.04zM10.266 6.796l2.347 5.82M7.92 14.558L4.85 8.952M9.702 6.155c-.323-1.513-.054-2.593.809-3.24M6.385 7.766C5.55 6.692 4.713 6.155 3.876 6.155" transform="translate(-954 -467) translate(955 467) translate(0 3.99) translate(0 9)"/>
                    </g>
                    <path fill="#FFA126" d="M20.485 115.7c4.468 2.869 8.91 5.015 13.323 6.438 6.62 2.136 37.512.497 46.339-3.773 5.884-2.847 11.092-7.666 15.624-14.455-8.945 5.794-16.36 9.189-22.244 10.184-11.618 1.966-31.021 2.136-39.72-6.405-5.798-5.694-5.957-12.512-.474-20.456L19.8 88.473c.512 6.88.768 12.217.768 16.013 0 3.796-.028 7.534-.083 11.214z" transform="translate(-954 -467) translate(955 467) translate(0 3.99)"/>
                </g>
                <g stroke="#323A48" stroke-linecap="round" stroke-linejoin="round">
                    <path d="M88.52 93.247c1.08-3.283 1.428-6.176-.49-6.534-4.32-.806-10.73 10.213-22.83 17.558" transform="translate(-954 -467) translate(955 467) translate(4 .329)"/>
                    <path d="M16.8 91.91c9.287 0 15.749-2.352 22.975-2.22 14.069.256 25.123 3.353 25.123 6.572 0 5.053-20.28 4.692-20.086 9.203.386 4.512 16.996 3.97 24.142 1.444 10.623-3.79 24.915-21.294 30.13-17.504 6.952 5.233-15.452 30.497-24.722 33.204-9.464 2.887-37.488 5.092-45.578 2.536-8.09-2.557-9.666-4.752-11.984-5.113" transform="translate(-954 -467) translate(955 467) translate(4 .329)"/>
                    <path d="M.12 86.752c5.694.15 12.81.564 14.47 1.69 1.428 1.036 2.203 10.109 2.21 18.648m-.315 8.842c-.292 3.518-.791 6.09-1.512 6.612-1.66 1.228-7.678 1.509-11.373 1.527M5.97 113.071c1.24.076 2.03 1.172 2.03 2.306 0 .982-.715 2.003-1.88 2.078-.301.038-.564 0-.865-.037-.94-.19-1.655-.908-1.655-2.117" transform="translate(-954 -467) translate(955 467) translate(4 .329)"/>
                    <path d="M62.706 10.817L60.559 1.223" transform="translate(-954 -467) translate(955 467) translate(4 .329) rotate(23 61.657 5.968)"/>
                    <path d="M50.729 9.618L48.304 4.488" transform="translate(-954 -467) translate(955 467) translate(4 .329) rotate(23 49.68 7.27)"/>
                    <path d="M92.914 79.101L104.2 71.071" transform="translate(-954 -467) translate(955 467) translate(4 .329) rotate(53 98.164 75.052)"/>
                    <path d="M95.549 62.827L100.321 56.495" transform="translate(-954 -467) translate(955 467) translate(4 .329) rotate(53 97.5 59.878)"/>
                    <path d="M18.203 67.456L18.854 74.607" transform="translate(-954 -467) translate(955 467) translate(4 .329) rotate(53 19.438 71.276)"/>
                    <path d="M14.846 49.415L5.458 60.394" transform="translate(-954 -467) translate(955 467) translate(4 .329) rotate(53 10.581 55.435)"/>
                </g>
            </g>
        </g>
    </g>
</svg>