<svg width="116" height="40" viewBox="0 0 116 40" xmlns="http://www.w3.org/2000/svg" xmlns:xlink="http://www.w3.org/1999/xlink">
    <defs>
        <path d="M110.2 0c3.203 0 5.8 2.686 5.8 6v28c0 3.314-2.597 6-5.8 6H5.8C2.597 40 0 37.314 0 34V6c0-3.314 2.597-6 5.8-6h104.4zm-.03 1H5.83C3.234 1 1.115 3.122 1.005 5.783L1 6v28c0 2.689 2.05 4.882 4.621 4.995l.21.005h104.338c2.598 0 4.717-2.122 4.827-4.783L115 34V6c0-2.689-2.05-4.882-4.621-4.995l-.21-.005zM66.313 21.625c.667-.013 1.3.225 1.79.662l.144.137h.056l-.014-.593h1.539v6.393c0 2.631-1.595 3.706-3.5 3.706a3.534 3.534 0 0 1-3.192-1.928l-.083-.18 1.411-.565c.254.579.875 1.268 1.863 1.268 1.172 0 1.907-.666 1.972-1.912l.004-.182v-.51h-.056c-.353.427-1.059.813-1.934.813-1.849 0-3.543-1.543-3.543-3.541s1.694-3.568 3.543-3.568zm36.471.22 1.92 4.533h.056l1.863-4.533h1.793l-4.446 9.865h-1.694l1.651-3.527-2.893-6.338h1.75zM19.13 20.86l3.1 3.08-12.36 6.956c-.361.2-.69.279-.966.229l-.115-.03 10.34-10.235zM8.139 9.79l10.138 10.273L8.14 30.349A1.673 1.673 0 0 1 8 29.61V10.376c.01-.203.061-.403.139-.585zm32.558 7.908a5.634 5.634 0 0 1 3.724 1.348l.2.181-1.101 1.061a4.094 4.094 0 0 0-2.823-1.075c-2.216.042-3.994 1.778-4.037 3.94-.042 2.219 1.764 4.051 4.037 4.093 1.496 0 2.343-.579 2.893-1.102.407-.397.676-.94.808-1.656l.04-.246h-3.741v-1.515l5.264-.014c.057.317.085.634.085.95 0 1.13-.324 2.536-1.355 3.528-1.002 1.02-2.286 1.556-3.994 1.556-3.162 0-5.815-2.48-5.815-5.524 0-3.045 2.653-5.525 5.815-5.525zm9.612 3.94c2.032 0 3.698 1.516 3.698 3.555s-1.666 3.554-3.698 3.554c-2.033 0-3.698-1.501-3.698-3.554s1.651-3.555 3.698-3.555zm8.073 0c2.047 0 3.712 1.516 3.712 3.555s-1.68 3.554-3.712 3.554-3.698-1.501-3.698-3.554 1.666-3.555 3.698-3.555zm18.461 0c1.843 0 2.775 1.346 3.122 2.16l.04.1.17.4-4.94 1.97c.38.716.959 1.074 1.792 1.074.768 0 1.309-.329 1.72-.845l.1-.133 1.257.813a3.7 3.7 0 0 1-2.861 1.567l-.216.003H76.9c-1.976-.027-3.557-1.625-3.529-3.554 0-2.108 1.553-3.555 3.472-3.555zm20.79-.027c1.8 0 3.203.976 3.31 2.717l.007.19v4.009h-1.566v-.813h-.057c-.367.551-.974 1.02-2.06 1.02-1.426 0-2.696-.896-2.696-2.301 0-1.53 1.566-2.356 3.119-2.356a3.44 3.44 0 0 1 1.495.303l.199.096v-.11c-.014-.868-.875-1.35-1.708-1.35-.557 0-1.077.162-1.4.635l-.082.137-1.44-.58c.494-1.101 1.708-1.597 2.88-1.597zm-10.035-3.527c1.793 0 3.557 1.24 3.557 3.237 0 1.932-1.649 3.167-3.378 3.248l-.179.004H85.34v3.968h-1.623V18.084h3.881zm-15.017 0V28.54h-1.623V18.084h1.623zm21.086-.014v10.457h-1.623V18.07h1.623zm4.22 7.288c-.804 0-1.721.303-1.721 1.116 0 .634.734.882 1.27.882.974-.014 1.807-.716 1.934-1.653a3.044 3.044 0 0 0-1.482-.345zM66.442 23.03c-1.129 0-2.06.923-2.06 2.177 0 1.253.945 2.149 2.06 2.149 1.101 0 1.976-.882 1.976-2.15 0-1.267-.847-2.176-1.976-2.176zm-16.132 0c-1.13 0-2.09.895-2.09 2.163 0 1.267.975 2.163 2.09 2.163 1.115 0 2.074-.882 2.074-2.163 0-1.281-.945-2.163-2.074-2.163zm8.073 0c-1.115 0-2.075.895-2.075 2.163 0 1.267.96 2.163 2.075 2.163 1.115 0 2.089-.882 2.089-2.163 0-1.281-.974-2.163-2.089-2.163zm18.518-.028h-.043c-1.064.066-1.884.91-1.895 1.933l.004.148 3.303-1.323c-.184-.44-.72-.758-1.37-.758zm-53.854-6.095 4.002 2.251c.455.263.718.594.718.912 0 .294-.208.59-.573.825l-.145.086-4.002 2.252-3.187-3.163 3.187-3.163zm64.595 2.637H85.34v3.582h2.3c1.003 0 1.835-.799 1.835-1.79 0-.993-.818-1.792-1.834-1.792zM9.717 9.16l.153.077 12.36 6.961-3.1 3.081L8.789 9.038c.249-.075.574-.04.928.122zM65.787 9l2.44 4.233h.028l-.028-1.047V9h.655v5.445H68.2l-2.563-4.443h-.027l.027 1.047v3.396h-.64V9h.79zm-9.632 0v.673h-1.567l-.015 4.772h-.714V9.673h-1.567V9h3.863zm-3.996 0v5.445h-.62V9h.62zm-3.045 0v.673h-1.566v4.772h-.73V9.673h-1.566V9h3.862zm-4.787 0v.673h-2.415v1.72h2.17v.659h-2.17v1.72h2.415v.673h-3.09V9h3.09zm-6.649.028c.38 0 .758.071 1.107.213.32.128.612.327.845.582l-.466.454c-.364-.411-.845-.61-1.471-.61a2.074 2.074 0 0 0-1.471.568 2.12 2.12 0 0 0 0 2.98c.393.369.917.568 1.471.568a2.095 2.095 0 0 0 1.5-.582c.277-.284.437-.653.452-1.05h-1.952v-.61h2.593c.029.127.043.269.043.397 0 .724-.218 1.291-.67 1.731a2.694 2.694 0 0 1-1.98.767 2.764 2.764 0 0 1-1.981-.781 2.691 2.691 0 0 1 0-3.846 2.764 2.764 0 0 1 1.98-.78zm25.644.78a2.727 2.727 0 0 1 0 3.833 2.877 2.877 0 0 1-3.933 0 2.727 2.727 0 0 1 0-3.832 2.848 2.848 0 0 1 3.933 0zm-3.437.44a2.16 2.16 0 0 0 0 2.967 2.133 2.133 0 0 0 2.913 0 2.13 2.13 0 0 0 0-2.966 2.133 2.133 0 0 0-2.913 0z" id="a"/>
    </defs>
    <g fill="none" fill-rule="evenodd">
        <mask id="b" fill="#fff">
            <use xlink:href="#a"/>
        </mask>
        <use fill="#79849A" fill-rule="nonzero" xlink:href="#a"/>
        <g mask="url(#b)" fill="#79849A">
            <path d="M0 0h116v40H0z"/>
        </g>
    </g>
</svg>
