<svg xmlns="http://www.w3.org/2000/svg" width="442" height="261" viewBox="0 0 442 261">
    <g fill="none" fill-rule="evenodd">
        <g>
            <g>
                <g>
                    <g fill="#FFA126">
                        <path d="M125.926 143.256c-.37.884-1.294 1.45-2.772 1.7-1.478.249-4.328-1.083-8.55-3.995 7.278 6.52 11.56 10.166 12.846 10.937 4.604 2.76 7.566 3.088 8.298 3.088.807 0 16.311-6.626 29.177-15.097 11.964-7.877 21.383-17.586 21.383-18.965 0-1.167.502-8.478-1.01-16.39-.642-3.356-2.33-8.83-5.064-16.425 4.21 16.937 3.407 28.373-2.411 34.306-3.65 3.722-28.02 19.577-32.012 10.36-4.728-10.914-9.139-19.125-13.232-24.632 3.871 11.923 5.98 19.59 6.325 23.001 1.134 11.192-1.667 16.02-3.156 16.343-2.17.47-5.444-.941-9.822-4.231zM253.01 16.787c5.99 6.079 10.024 11.067 12.099 14.965 2.075 3.898 4.034 10.165 5.877 18.803 8.697-6.024 14.608-10.243 17.734-12.657 9.995-7.722 14.625-12.593 14.625-14.076 0-2.178-1.517-6.16-4.55-11.945 1.91 5.408 1.91 9.39 0 11.945-2.866 3.833-21.715 18.65-26.727 11.232-4.94-7.312-11.292-13.401-19.059-18.267zM298.995 6.328l-2.52 1.744 2.52 3.454c1.406-.669 2.573-1.043 3.501-1.12.929-.08 2.328.078 4.197.471 2.462 1.192 4.033 1.537 4.713 1.035.68-.503-1.633-4.473-6.94-11.912.892 2.674 1.154 4.462.787 5.363-.79 1.94-2.59 3.187-4.03 3.381-1.87.252-2.613-.554-2.228-2.416z" transform="translate(-492 -260) translate(406 195) translate(87 65) translate(50.06 45.971)"/>
                        <path d="M157.557 53.745c10.08 12.5 16.799 22.325 20.155 29.474 3.357 7.148 6.52 17.896 9.492 32.243 24.95-15.595 42.108-26.595 51.47-33 21.852-14.946 32.144-26.016 32.274-27.506.233-2.662-.61-8.003-2.527-16.021.501 7.717-.603 13.274-3.312 16.67-8.042 10.078-69.513 48.492-77.905 34.6-9.102-15.066-18.984-27.22-29.647-36.46zM263.94 63.682l-19.063 15.072c.514 1.062.943 1.783 1.29 2.162.346.378.913.75 1.703 1.113l2.164-4.63c1.65-.652 2.475-.47 2.475.544s-.384 2.757-1.153 5.229c2.386.114 4.363-.122 5.93-.71 1.567-.586 3.198-1.425 4.893-2.516l-.646-1.192c-4.056 1.192-6.431.74-7.124-1.355-.693-2.095 2.484-6.667 9.532-13.717z" transform="translate(-492 -260) translate(406 195) translate(87 65) translate(50.06 45.971)"/>
                        <path d="M250.697 85.029c2.016-4.8 2.514-7.323 1.496-7.567-1.018-.245-1.732-.245-2.143 0-19.402 52.888-29.518 79.603-30.348 80.144-1.245.812-9.761 6.771-9.761 7.597 0 .826 18.775 1.03 18.775 0s-9.726.342-7.05-5.504c2.677-5.847 23.884-66.08 25.093-69.327.805-2.164 2.118-3.945 3.938-5.343zM260.526 74.55c.692 1.11 26.676 79.965 25.879 81.899-.798 1.933-6.558 7.192-5.415 8.386.789.824 9.525 1.36 14.856 1.025.022-1.025.022-1.025.022-2.038-2.343-.43-5.06-1.603-6.28-5.661-2.48-8.236-9.355-29.389-20.907-64.215-1.8-5.43-5.411-16.816-7.036-20.105-1.167-2.36-1.812-.4-1.12.71z" transform="translate(-492 -260) translate(406 195) translate(87 65) translate(50.06 45.971)"/>
                        <path d="M107.242 69.842c-4.269-3.082-7.073-4.67-8.413-4.765-1.801-.128-3.253 2.398-3.566 3.506-1.922 6.812-.697 21.186 1.642 29.022 2.917 9.77 10.05 25.287 13.948 30.625 12.875 17.633 18.887 21.64 23.04 19.66 4.196-2 2.996-20.245 3.576-15.461.787 6.48-2.99 12.492-8.857 9.537-6.26-3.153-15.912-16.753-22.768-32.087-5.777-12.921-9.701-25.598-8.881-36.671.15-2.022.437-3.867 2.408-4.828 1.313-.64 3.937-.153 7.87 1.462z" transform="translate(-492 -260) translate(406 195) translate(87 65) translate(50.06 45.971) rotate(178 115.943 106.712)"/>
                        <path d="M257.286 82.463l-2.877.737c-1.664 45.384-2.647 68.587-2.948 69.609-.242.82-2.636 3.158-4.569 5.228-1.681 1.801-2.951 3.392-2.951 3.687 0 .234 3.018 1.197 6.457 1.305 5.877.185 13.543-.661 13.543-1.305 0-1.02-12.311.18-10.75-5.357 1.56-5.537 2.309-58.267 2.673-62.865.375-4.728 1.422-7.375 1.422-8.825v-2.214zM52.961 186.667l1.274 5.281c5.55 1.281 9.782 1.997 12.698 2.147 12.743.658 22.03-.724 22.773-1.833 1-1.488 1.868-9.382 2.603-23.68l2.766-.5c.818-1.19 1.376-2.615 1.676-4.277.3-1.662.46-4.222.48-7.68-1.427 4.462-4.54 7.412-9.341 8.85-4.801 1.438-17.764 1.663-38.89.674v2.202c7.639.914 13.82 1.414 18.544 1.5 4.724.086 11.95-.17 21.68-.768.413 10.933-1.466 17.457-5.638 19.57-3.088 1.564-12.135 3.052-22.482 2.072-3.444-.327-6.159-1.512-8.143-3.558zM295.333 162.442l1.496 5.936c11.432.723 20.006 1.138 25.723 1.246 5.716.108 13.934.01 24.653-.296l1.381-10.194c-2.799 4.172-7.58 6.467-14.342 6.887-5.802.36-17.354 1.954-32.292-.06-1.65-.223-3.857-1.396-6.62-3.52zM338.062 170.021l7.525-.355c.04 3.76-.069 6.534-.326 8.324-.258 1.79-.793 3.483-1.605 5.082-3.61.948-10.645 1.422-21.104 1.422-10.46 0-17.772-.474-21.937-1.422l-1.084-2.979c1.672 1.078 3.557 1.618 5.655 1.618 15.173 0 25.564-.422 29.038-1.618 4.073-1.402 5.352-4.76 3.838-10.072zM30.27 183.642l-.675 7.836-2.435.56c-.15 8.464-.72 13.303-1.705 14.516-1.478 1.82-17.746 1.453-19.59.587-1.228-.577-1.978-1.584-2.248-3.02 10.644 1.063 16.753.823 18.324-.72 1.572-1.542 1.721-5.184.448-10.924l-21.558.12-.473-2.629c9.724.369 16.803.08 21.237-.869 4.434-.948 7.326-2.767 8.675-5.457z" transform="translate(-492 -260) translate(406 195) translate(87 65) translate(50.06 45.971)"/>
                        <path d="M74.848 152.087c1.152-.09 1.876.048 2.17.414.443.548 1.116 6.664 1.116 8.486 0 1.82-.272 7.427-.694 7.671-.28.163-1.224.308-2.831.435.599-1.458.898-4.374.898-8.748s-.22-7.127-.66-8.258zM74.814 169.093l2.557.05c.234 5.729.292 10.273.175 13.632-.117 3.359-.506 7.19-1.167 11.494l-3.564-.003c.905-.167 1.572-3.998 1.999-11.491.426-7.494.426-12.054 0-13.682zM93.713 145.522c.55 2.35.55 4.022 0 5.016-.824 1.491-.747 1.68-3.33 2.033-2.582.354-1.834-.758-1.64-1.136.593-1.158-.4-2.27-1.436-2.047-2.665.577-6.454 1.123-11.366 1.64l-.434-1.64c.752-.239 1.342-.465 1.77-.678.43-.214.983-.556 1.661-1.028-.2.672.935.953 3.404.843 3.703-.166 6.72-2.336 7.599-1.335.586.667.879 1.613.879 2.839.706 0 1.39-.384 2.054-1.15.663-.768.943-1.887.839-3.357zM73.764 148.525c.802.149 1.293.437 1.473.863.18.427.415 1.307.704 2.64l-7.796-.073v-2.236c1.823.61 3.089.788 3.796.534.707-.255 1.315-.83 1.823-1.728z" transform="translate(-492 -260) translate(406 195) translate(87 65) translate(50.06 45.971)"/>
                        <path d="M75.94 151.025c2.222-.042 3.767-.041 4.638.004 1.518.079 2.74-.03 3.56.686 2.288 1.999 2.53 6.959 1.757 8.01-.514.7-1.1 1.802-1.756 3.304-.202-6.04-.705-9.193-1.509-9.458-.804-.264-3.034-.759-6.69-1.484v-1.062zM68.145 150.698l-.204 1.389c-2.822.087-4.586.921-5.291 2.502-.706 1.582-1.14 4.395-1.303 8.44l-3.015-3.688c-.588-4.78.293-7.415 2.643-7.906 2.351-.492 4.74-.737 7.17-.737z" transform="translate(-492 -260) translate(406 195) translate(87 65) translate(50.06 45.971)"/>
                        <path d="M68.145 149.388v1.31c-4.373-.133-7.973-.683-10.8-1.652-.856-.293-2.026-.519-1.796.632.352 1.757-2.568 2.808-4.262 1.347-1.13-.974-1.892-2.383-2.287-4.228.311.707.77 1.171 1.377 1.394.606.222 1.227-.013 1.863-.707-.065-1.637.349-2.455 1.24-2.455 1.338 0 6.24 2.229 7.955 3 1.143.514 3.38.967 6.71 1.36zM343.809 148.523c.549 2.35.549 4.022 0 5.016-.824 1.491-.827 1.31-3.41 1.665-2.582.354-1.556-1.548-1.362-1.926.593-1.158-.598-1.112-1.634-.888-2.665.576-6.454 1.123-11.366 1.64l-.434-1.64c.752-.24 1.342-.466 1.77-.68.43-.212.983-.555 1.66-1.027-.199.672.936.953 3.405.843 3.703-.166 6.72-2.336 7.599-1.335.586.667.879 1.614.879 2.839.705 0 1.39-.383 2.054-1.15.663-.768.943-1.886.839-3.357zM323.86 151.526c.802.149 1.293.437 1.473.864.18.427.414 1.307.704 2.64l-7.797-.074v-2.236c1.824.61 3.09.788 3.797.534.707-.254 1.315-.83 1.822-1.728z" transform="translate(-492 -260) translate(406 195) translate(87 65) translate(50.06 45.971)"/>
                        <path d="M326.037 154.027c2.22-.043 3.766-.042 4.636.003 1.52.079 2.742-.03 3.562.686 2.287 2 2.528 6.959 1.756 8.01-.515.701-1.1 1.802-1.756 3.304-.202-6.04-.705-9.193-1.51-9.457-.803-.265-3.033-.76-6.688-1.485v-1.061zM318.24 153.699l-.203 1.389c-2.822.087-4.586.921-5.292 2.503-.705 1.58-1.14 4.394-1.302 8.439l-3.015-3.688c-.589-4.779.292-7.414 2.643-7.906 2.351-.491 4.74-.737 7.17-.737z" transform="translate(-492 -260) translate(406 195) translate(87 65) translate(50.06 45.971)"/>
                        <path d="M318.24 152.39v1.309c-4.373-.133-7.972-.683-10.8-1.651-.855-.293-2.025-.52-1.795.63.352 1.758-3.478 2.06-5.173.6-1.13-.974-1.588-2.134-1.376-3.48.31.707.77 1.171 1.376 1.394.607.223 1.228-.013 1.863-.707-.064-1.637.35-2.455 1.241-2.455 1.338 0 6.24 2.229 7.955 3 1.143.514 3.38.967 6.71 1.36zM18.64 178.639c1.062.616 2.02.708 2.875.275 1.281-.65 1.689-1.907 3.16-1.682 1.473.225 2.622 1.682 1.8 2.854-.824 1.173-1.152 1.042-2.443 1.504-.86.307-2.558.397-5.091.27l-.302-3.221zM20.029 182.192c1.893.326 3.017.98 3.371 1.964.354.984.529 2.2.524 3.647l1.734-1.866c-.17-1.619-.675-2.642-1.518-3.07-.843-.427-2.213-.652-4.111-.675z" transform="translate(-492 -260) translate(406 195) translate(87 65) translate(50.06 45.971)"/>
                        <path d="M18.043 178.331c.475.258.744.69.805 1.299.062.608.062 1.37 0 2.286l-5.827.11-.032-2.217c.38.12 1.245.12 2.597 0 1.35-.12 2.17-.612 2.457-1.478zM12.989 179.134l-.048 2.782c-3.568.034-6.014-.189-7.338-.67-1.986-.721-2.496-1.555-2.27-2.607.227-1.052 2.995-2.364 5.374-.308 1.587 1.371 3.014 1.639 4.282.803zM11.89 182.192c-1.741.458-2.802 1.403-3.183 2.836-.38 1.432-.57 2.766-.57 4l-1.76-1.49c-.336-2.696-.034-4.253.908-4.67.941-.418 2.476-.643 4.605-.676zM18.043 182.029l2.19.463c.352 1.671.515 3.125.489 4.362-.026 1.237-.257 3.06-.693 5.47l-.891.28c.349 3.205.455 6.13.319 8.778-.136 2.647-.506 4.853-1.11 6.618-1.19.096-1.784.096-1.784 0 0-.068 1.271-2.152 1.271-7.45 0-3.904-.206-6.5-.62-7.788l.62-.158c.676-1.26 1.03-3.298 1.06-6.112.032-2.814-.253-4.302-.851-4.463z" transform="translate(-492 -260) translate(406 195) translate(87 65) translate(50.06 45.971)"/>
                    </g>
                    <g stroke="#323A48" stroke-linecap="round" stroke-linejoin="round">
                        <g>
                            <path d="M231.528 94.824c-2.758-5.625-6.517-11.893-11.619-18.54-16.52-21.52-30.656-26.546-33.907-26.546h0c-6.608 0-46.255 20.388-48.458 24.919-2.203 4.53-5.507 24.918 14.317 53.234 19.824 28.317 35.242 32.847 40.749 32.847 5.506 0 46.255-31.714 46.255-40.775 0-2.43-.678-8.464-3.746-16.785" transform="translate(-492 -260) translate(406 195) translate(87 65) translate(0 39.993) rotate(7 187.365 105.238)"/>
                            <path d="M243.764 123.718c9.686-6.077 75.747-61.22 75.747-70.26 0-4.593-2.302-14.857-10.44-24.431-2.017-2.372-3.929-4.42-5.765-6.16M198.764 60.47c13.79-7.503 82.45-45.323 89.085-45.323 3.641 0 7.227 1.297 11.066 4.05h0m14.3 43.825L296.22 80.294l16.997-17.273z" transform="translate(-492 -260) translate(406 195) translate(87 65) translate(0 39.993) rotate(7 259.137 69.432)"/>
                            <path d="M324.672 56.652c4.285-2.984 28.361-25.707 28.361-30.147 0-2.255-2.268-6.905-6.125-11.767-3.857-4.863-9.702-9.018-12.637-9.018-2.934 0-16.876 7.543-34.748 18.362" transform="translate(-492 -260) translate(406 195) translate(87 65) translate(0 39.993) rotate(7 326.278 31.186)"/>
                            <path d="M154.852 79.043c2.099 1.5 4.352 3.35 6.704 5.551m4.667 4.7c4.074 4.399 8.322 9.76 12.491 16.083 15.648 23.734 15.648 41.816 12.295 45.207-3.353 3.39-20.119-6.781-35.767-27.124-15.648-20.344-17.883-45.207-13.412-48.598 1.405-1.065 4.023-.792 7.44.821" transform="translate(-492 -260) translate(406 195) translate(87 65) translate(0 39.993) rotate(7 166.296 112.726)"/>
                            <path d="M346.535 14.05c2.966-1.394 4.211-4.085 3.736-8.072M349.054 17.89c1.411-1.567 3.977-1.911 7.698-1.035" transform="translate(-492 -260) translate(406 195) translate(87 65) translate(0 39.993)"/>
                            <path d="M352.75 11.488c-1.825-2.864-2.925-7.827-1.694-9.718.54-.83 1.914-.643 2.524.22.754 1.067.79 3.275 2.65 6.727 1.977 3.672 4.07 6.013 4.795 7.573.488 1.05.107 1.78-.622 2.025-2.07.697-4.221-.74-5.876-3.804" transform="translate(-492 -260) translate(406 195) translate(87 65) translate(0 39.993) rotate(-5 355.889 9.862)"/>
                            <path d="M157.173 122.724c1.227 1.563 2.129 2.702 2.707 3.417m2.56 3.095c2.066 2.433 3.89 4.413 5.474 5.94 10.1 9.74 15.956 12.903 16.904 9.764" transform="translate(-492 -260) translate(406 195) translate(87 65) translate(0 39.993) rotate(7 170.996 134.416)"/>
                            <path d="M294.936 84.733c.583 1.571 1.648 2.643 2.579 3.274m3.9 1.143c3.821.337 8.368-1.185 10.823-3.226m2.687-3.391c2.231-4.87 1.264-9.706-.792-12.873" transform="translate(-492 -260) translate(406 195) translate(87 65) translate(0 39.993)"/>
                            <path d="M302.253 86.135c-3.934 12.701-26.079 75.158-26.079 77.966 0 3.109 3.461 5.822 2.601 7.08-.405.594-4.69.684-9.014.776-4.845.104-9.761.127-9.761-.776 0-1.71 7.794-5.453 9.76-7.596 1.967-2.143 29.12-79.54 30.333-80.208.794-.437 1.62-.392 2.16.063M310.624 77.35c.682-.453 1.727-.45 2.088-.035.554.637 29.124 82.397 30.674 85.112m-2.494 9.572c-4.428-.04-9.636.077-9.843-1.186-.41-2.492 4.862-4.522 5.415-8.386.505-3.525-21.944-69.297-25.88-81.899M307.345 88.44c.083 45.104.188 68.38.727 70.696.84 3.605 6.77 6.718 5.826 8.776-.47 1.027-5.127 1.058-9.898 1.086-4.79.029-9.694.05-9.97-1.086-.548-2.27 6.403-6.13 7.532-8.776.73-1.709 1.737-24.618 2.83-70.04M.04 174.258l92.035-15.066m56.475-9.244l11.819-1.934m78.34-12.824l41.521-6.796M291.409 126.773L300.109 125.513M310.428 124.017L321.356 122.433M332.192 120.863L440 105.238" transform="translate(-492 -260) translate(406 195) translate(87 65) translate(0 39.993)"/>
                            <path d="M72.897 187.403c-4.482.814-6.872-8.64-2.032-9.436 2.08-.342 3.63 4.338 7.482 4.71" transform="translate(-492 -260) translate(406 195) translate(87 65) translate(0 39.993) scale(-1 1) rotate(19 0 -255.156)"/>
                            <path d="M51.234 186.681c2.484-4.377.032-6.775 2.42-8.129 3.73-2.114 12.532 4.28 5.078 8.159" transform="translate(-492 -260) translate(406 195) translate(87 65) translate(0 39.993) scale(-1 1) rotate(19 0 -154.826)"/>
                            <path d="M76.198 189.104c.63.76.888 2.232.777 4.414l-1.222-1.988-1.877 2.477c-.056-2.652-.414-4.287-1.074-4.903-.66-.616-1.927-.982-3.802-1.098 4.169-.028 6.568.338 7.198 1.098z" transform="translate(-492 -260) translate(406 195) translate(87 65) translate(0 39.993)"/>
                            <path d="M69.96 198.302c.675-.376 1.356-9.192.188-10.107-.262-.206-7.932-.234-8.367-.127-1.361.337-.665 9.772 0 10.234" transform="translate(-492 -260) translate(406 195) translate(87 65) translate(0 39.993)"/>
                            <path d="M55.815 189.227c-.636.835-.9 2.747-.791 5.736l1.415-1.75 1.784 1.794c.04-2.312.222-3.832.543-4.56.79-1.784 2.452-2.384 3.767-2.44-3.842-.022-6.082.385-6.718 1.22z" transform="translate(-492 -260) translate(406 195) translate(87 65) translate(0 39.993)"/>
                            <path d="M75.797 194.239s4.548 11.77 2.917 13.94c-1.631 2.171-16.222 8.77-18.657 7.498-2.435-1.272-7.242-12.696-7.242-12.696" transform="translate(-492 -260) translate(406 195) translate(87 65) translate(0 39.993) scale(-1 1) rotate(23 0 -119.073)"/>
                            <path d="M67.067 197.818c1.003 1.013 5.61 13.193 4.846 14.252m-4.372 2.047c-1.18-.346-6.727-12.002-6.81-13.781" transform="translate(-492 -260) translate(406 195) translate(87 65) translate(0 39.993) scale(-1 1) rotate(23 0 -120.223)"/>
                            <path d="M72.964 184.614c2.279-.967 3.84-1.11 4.186-.93 1.44.744 3.812 8.058 3.232 8.81-.58.75-25.736 11.03-26.889 10.285-1.152-.746-4.017-7.03-3.58-8.38.085-.261 1.094-.87 2.678-1.678" transform="translate(-492 -260) translate(406 195) translate(87 65) translate(0 39.993) scale(-1 1) rotate(23 0 -127.104)"/>
                            <path d="M54.592 186.656c2.062-1.964 2.057-4.58 5.503-3.995" transform="translate(-492 -260) translate(406 195) translate(87 65) translate(0 39.993) scale(-1 1) rotate(23 0 -97.238)"/>
                            <path d="M76.181 184.09c-3.385.447-4.587-1.763-5.863.882" transform="translate(-492 -260) translate(406 195) translate(87 65) translate(0 39.993) scale(-1 1) rotate(23 0 -175.724)"/>
                            <path d="M395.518 175.715c0 .596-.115 10.731-1.704 12.956-1.589 2.224-40.805 2.885-42.989.713-1.184-1.178-2.185-6.994-2.307-13.619" transform="translate(-492 -260) translate(406 195) translate(87 65) translate(0 39.993) rotate(1 372.018 183.215)"/>
                            <path d="M365.974 175.823c-.281 1.597-.088 12.64 1.522 14.724m9.078-.159c.775-.666 1.353-11.826.545-14.477" transform="translate(-492 -260) translate(406 195) translate(87 65) translate(0 39.993) rotate(1 371.688 183.185)"/>
                            <path d="M373.097 175.705c-9.917.016-25.474-.087-26.098-.911-1.26-1.665-2.24-10.793-.672-12.152.388-.337 3.652-.69 8.363-.999m34.51-.881c4.784.099 8.095.36 8.453.843 1.43 1.928.925 12.854-.336 13.467-.55.268-13.327.565-21.957.643" transform="translate(-492 -260) translate(406 195) translate(87 65) translate(0 39.993) rotate(1 372.018 168.239)"/>
                            <path d="M368.096 160.847c.01-2.212.232-2.415.701-3.107.828-1.22 5.9-.883 6.933.775.39.625.373 1.722.361 2.493M368.3 158.008c-5.187-3.422-7.795-13.363-12.698-12.99-4.527.343-10.11 13.697-3.715 14.99M375.662 158.368c6.29-1.994 6.992-11.437 11.962-11.36 5.192.081 8.672 12.256 5.173 13.406" transform="translate(-492 -260) translate(406 195) translate(87 65) translate(0 39.993)"/>
                            <path d="M366.103 158.368c-5.497-1.025-10.72-4.816-12.468-4.36-1.165.304-1.659 1.304-1.48 3M379.581 158.368c4.95-.712 7.197-2.742 9.515-2.583 2.318.16 2.05 2.67 1.503 3.447M376.096 160.008c6.67-.06 10.51.67 11.518 2.192 1.007 1.521 1.422 4.465 1.243 8.83l-1.955-3.977-3.004 4.955c.068-5.728-.406-8.92-1.422-9.577-1.015-.656-3.142-1.111-6.38-1.365" transform="translate(-492 -260) translate(406 195) translate(87 65) translate(0 39.993)"/>
                            <path d="M377.802 175.644c.862-.807.88-12.346-.616-14.307-.337-.44-10.154-.501-10.71-.27-1.742.72-1.224 13.586-.373 14.577" transform="translate(-492 -260) translate(406 195) translate(87 65) translate(0 39.993)"/>
                            <path d="M367.885 159.679c-5.893-.046-9.376.79-10.451 2.506-1.075 1.716-1.521 4.96-1.338 9.733l2.391-3.597 3.015 3.687c-.264-7.11 1.394-10.757 4.974-10.942M357.096 148.008c.81.471 1.476 1.138 2 2M388.096 150.008c1.032.6 1.699 1.6 2 3" transform="translate(-492 -260) translate(406 195) translate(87 65) translate(0 39.993)"/>
                            <path d="M101.916 174.88c.023.714.84 20.71 2.568 23.354 1.727 2.644 33.05 2.638 35.472-.305 1.076-1.307 1.806-9.225 2.189-23.75" transform="translate(-492 -260) translate(406 195) translate(87 65) translate(0 39.993) rotate(1 122.03 187.178)"/>
                            <path d="M127.202 174.982c1.057 1.956.414 23.719-.586 25.01m-8.794.154c-.621-1.223-2.635-23.592-1.656-24.776" transform="translate(-492 -260) translate(406 195) translate(87 65) translate(0 39.993) rotate(1 121.824 187.564)"/>
                            <path d="M121.856 175.024c11.055-.389 23.023-.633 23.688-1.592 1.342-1.938 2.462-12.74.664-14.216-.373-.307-2.567-.551-5.822-.725m-35.336.323c-3.449.281-5.767.66-6.097 1.147-1.52 2.243-.69 13.671.738 14.315.624.281 10.02 1.119 19.644.853" transform="translate(-492 -260) translate(406 195) translate(87 65) translate(0 39.993) rotate(1 122.642 166.836)"/>
                            <path d="M118 157.845c.01-2.21.232-2.414.702-3.106.827-1.22 5.9-.883 6.932.774.39.626.373 1.723.362 2.494M118.204 155.007c-5.187-3.422-7.795-13.363-12.697-12.991-4.528.344-10.11 13.698-3.716 14.991M125.566 155.367c6.29-1.994 6.993-11.437 11.963-11.36 5.191.081 8.671 12.255 5.172 13.406" transform="translate(-492 -260) translate(406 195) translate(87 65) translate(0 39.993)"/>
                            <path d="M116.007 155.367c-5.497-1.025-10.72-4.816-12.468-4.36-1.165.304-1.659 1.304-1.48 3M129.485 155.367c4.95-.712 7.197-2.742 9.515-2.583 2.318.16 2.05 2.67 1.504 3.447M126 157.007c6.67-.06 10.51.67 11.518 2.192 1.008 1.52 1.422 4.465 1.244 8.83l-1.956-3.977-3.004 4.955c.068-5.728-.406-8.92-1.422-9.577-1.015-.656-3.142-1.112-6.38-1.365" transform="translate(-492 -260) translate(406 195) translate(87 65) translate(0 39.993)"/>
                            <path d="M127.5 174.636c.862-.807 1.085-14.34-.41-16.3-.336-.441-10.154-.502-10.71-.271-1.742.72-.851 16.022 0 17.012" transform="translate(-492 -260) translate(406 195) translate(87 65) translate(0 39.993)"/>
                            <path d="M117.79 156.678c-5.893-.046-9.377.79-10.452 2.505-1.075 1.717-1.521 4.96-1.338 9.733l2.391-3.597 3.016 3.688c-.265-7.11 1.393-10.757 4.973-10.942M107 145.007c.81.47 1.476 1.137 2 2M138 147.007c1.032.6 1.699 1.6 2 3M189.867 54.046c3.067-.477 5.856.648 8.367 3.373M310.3 36.788c1.688 1.893 2.921 4.02 3.7 6.38M335.976 9.382c1.176-.243 2.351.193 3.527 1.31M63.114 187.568c-.222-1.72-.12-2.762.309-3.127.642-.547 4.7-.67 5.21.183.34.569.444 1.495.31 2.78" transform="translate(-492 -260) translate(406 195) translate(87 65) translate(0 39.993)"/>
                        </g>
                    </g>
                </g>
            </g>
        </g>
    </g>
</svg>
