<svg width="30" height="30" viewBox="0 0 30 30" xmlns="http://www.w3.org/2000/svg" xmlns:xlink="http://www.w3.org/1999/xlink">
    <defs>
        <path d="M15 0c8.284 0 15 6.716 15 15 0 8.284-6.716 15-15 15-8.284 0-15-6.716-15-15C0 6.716 6.716 0 15 0zm0 .8C7.158.8.8 7.158.8 15S7.158 29.2 15 29.2 29.2 22.842 29.2 15 22.842.8 15 .8zm4.728 9.801.301.002c.717.024 1.364.173 1.952.468.882.442 1.52 1.144 1.926 2.086.279.646.428 1.347.472 2.125.005.105.01.21.013.322l.006.356.002 3.048L24.399 22a.4.4 0 0 1-.4.4h-3.605a.4.4 0 0 1-.4-.4v-5.823a3.14 3.14 0 0 0-.177-1.112c-.238-.642-.72-.912-1.412-.836-.684.075-1.237.573-1.366 1.22a3.29 3.29 0 0 0-.047.65c-.004 1.919-.005 3.837-.002 5.757v.142a.4.4 0 0 1-.4.4H13a.4.4 0 0 1-.4-.4V11.264c0-.221.18-.4.4-.4h3.587c.221 0 .4.179.4.4v.403l.045-.044a3.68 3.68 0 0 1 1.049-.684l.238-.092a4.626 4.626 0 0 1 1.71-.244zM11 10.6c.22 0 .4.18.4.4v11a.4.4 0 0 1-.4.4H7a.4.4 0 0 1-.4-.4V11c0-.22.18-.4.4-.4zm9.002.803a3.833 3.833 0 0 0-1.418.198c-.637.224-1.147.646-1.578 1.282l-.065.092a.4.4 0 0 1-.434.153l-.028-.007a.4.4 0 0 1-.292-.386v-1.072H13.4v9.935h2.789v-2.621l.003-2.88c0-.34.015-.569.062-.805.199-.992 1.036-1.746 2.064-1.859 1.044-.114 1.878.355 2.25 1.353.157.425.226.88.226 1.391V21.6h2.804v-5.439l-.006-.532-.012-.303c-.038-.688-.169-1.298-.408-1.852-.334-.774-.84-1.333-1.549-1.688-.48-.24-1.014-.363-1.621-.383zM10.6 11.4H7.4v10.2h3.2V11.4zM9 4.6c1.423 0 2.4.765 2.4 2.15 0 1.385-.977 2.15-2.4 2.15-1.429 0-2.4-.757-2.4-2.15 0-1.393.971-2.15 2.4-2.15zm0 .8c-1.024 0-1.6.449-1.6 1.35S7.976 8.1 9 8.1c1.018 0 1.6-.456 1.6-1.35 0-.894-.582-1.35-1.6-1.35z" id="a"/>
    </defs>
    <g fill="none" fill-rule="evenodd">
        <mask id="b" fill="#fff">
            <use xlink:href="#a"/>
        </mask>
        <use fill="#4F5869" fill-rule="nonzero" xlink:href="#a"/>
        <g mask="url(#b)" fill="#79849A">
            <path d="M0 0h30v30H0z"/>
        </g>
    </g>
</svg>
