<svg width="65" height="65" xmlns="http://www.w3.org/2000/svg">
    <g fill="none" fill-rule="evenodd">
        <g fill="#FFA126">
            <path d="M13.146 23.19c-2.038.683-3.26 1.585-3.665 2.705-.424 1.171-.236 2.012-.604 2.04-.835.067-3.548-3.72-1.806-7.611.475-1.061 1.684-2.125 3.627-3.193 1.463.627 1.817 1.691 1.062 3.193-.756 1.501-.294 2.457 1.386 2.866zM7.155 36.705c.976.65 1.752 1.265 2.326 1.843.575.578.98 1.422 1.217 2.533 1.195 1.856 1.922 3.569 2.183 5.138.261 1.568.35 4.154.265 7.756 1.248.183 2.65.183 4.204 0 1.554-.183 3.127-.606 4.717-1.267-2.512-.321-4.205-1.06-5.078-2.217-1.872-2.48-1.849-7.886-4.096-10.588-2.275-2.734-2.736-5.054-1.384-6.962-1.496.753-2.466 1.346-2.91 1.779-.445.433-.926 1.095-1.444 1.985zM28.056 22.371c-1.597 2.685-2.64 4.323-3.127 4.915-.487.591-1.353 1.218-2.596 1.881.015 1.458.197 2.487.546 3.09.348.601 1.187 1.333 2.517 2.195l.966-2.047c-.773-.44-1.163-1.225-1.17-2.355-.007-1.13.947-3.69 2.864-7.679zM31.52 21.143c.883 3.822 2.262 6.65 4.136 8.482 1.875 1.833 3.218 3.81 4.032 5.934.852-.463 1.393-.871 1.621-1.225.229-.353.369-.996.42-1.93-.78-.42-2.295-1.346-4.546-2.779-2.251-1.433-4.138-4.26-5.662-8.482zM51.938 32.405c-.887 1.361-1.407 2.581-1.56 3.66-.155 1.079.024 2.248.536 3.506-.795 2.612-1.193 4.827-1.193 6.648 0 1.82.398 4.723 1.193 8.71-1.71 1.022-3.925 1.705-6.645 2.047-2.72.342-5.806.445-9.258.307 6.521-.455 10.553-2.344 12.098-5.667.839-1.806.393-5.595 1.24-12.352.47-3.751 1.667-6.038 3.589-6.86z"/>
            <path d="M49.888 15c-2.357.104-3.937.445-4.74 1.024-.802.579-1.755 2.264-2.86 5.056l2.504.063 1.66-1.331.442 2.048 5.866 1.092c.421 1.49.487 2.672.198 3.546-.289.873-1.46 2.105-3.511 3.693l4.532 4.143c-.49-2.337-.49-4.46 0-6.365.734-2.86.674-5.582-.03-6.409-.704-.827-3.774-.827-4.562-2.465-.73-1.519-.563-2.884.501-4.095zM9.314 38.133l1.133 3.093c-.445-.068-.743.746-.894 2.44-.123 1.383.662 4.065.978 6.825.048.416-.1.871-.441 1.366-1.366-2.898-2.113-5.536-2.243-7.914-.13-2.378.359-4.315 1.467-5.81zM51.82 32.696c-.95 1.035-1.503 2.017-1.657 2.946-.155.93.095 2.239.751 3.93.356-.493.702.015 1.038 1.52.222.992-.423 4.375-.203 6.266.077.655.48 1.11 1.21 1.367.68-2.895.775-5.605.286-8.13-.284-1.464-1.46-2.866-1.615-4.196-.136-1.163-.072-2.397.19-3.703z"/>
        </g>
        <g stroke="#323A48" stroke-linecap="round" stroke-linejoin="round">
            <path d="M40.144 37.786c-1.118.87-2.64 1.117-4.566.743.452 1.415 1.415 2.463 2.89 3.145M17.331 23.256c2.324 2.66 1.908 7.163-.12 8.186.12 1.637-.275 2.552-1.145 2.635-.869.083-1.91-.691-2.32-1.967-1.94.237-4.215-1.448-4.722-4.045"/>
            <path d="M16.97 28.372c-.422 2.15-3.738 2.715-4.783.995M17.21 31.442c9.306-1.172 9.374-10.233 12.058-10.295 2.683-.063 1.476 7.327-2.249 10.89-3.725 3.564-5.283 9.023-3.409 18.753m-10.378 2.768s.005-7.689-1.216-10.553c-1.22-2.865-2.38-1.769-2.529.716-.148 2.485 2.155 8.295.487 8.295-2.104 0-4.78-5.903-3.917-11.756.862-5.854 4.314-7.079 7.083-7.913M18.46 21.29c-.943 1.948-2.974 2.093-6.02 2.381-4.207.433-2.722 4.261-3.555 4.328-.832.066-3.536-3.719-1.8-7.608 1.737-3.89 10.142-4.942 10.142-4.942s2.394 3.318 1.233 5.842zM47.03 21.926 52.91 23c1.017 3.834-2.027 7.09-4.928 7.307-.168.941-1.147 2.158-2.213 1.646-1.067-.511-1.053-1.533-.88-2.586-1.772-.79-2.367-5.088-1.047-7.441"/>
            <path d="M50.085 25.907c-1.498 2.67-5.045 1.837-5.003-.866M48.456 30.38c4.563 1.125 6.933 6.299 6.933 10.901 0 4.793-1.376 7.556-2.971 7.556-1.596 0-.375-4.608-.375-6.753 0-2.145-1.09-2.834-1.811-1.785-.721 1.05-1.502 6.7.555 14.678m-19.23.307s7.563-5.385 8.61-12.404c1.046-7.018-1.569-9.699-4.734-12.79-3.165-3.09-5.286-9.29-2.911-9.29 2.374 0 2.366 7.572 12.14 8.567M33.331 16.093c.513-1.364 1.504-2.461 2.973-3.291M23.156 15.07c1.463.067 2.716.408 3.758 1.023M28.788 12c.422.682.733 1.705.934 3.07M23.12 20.8c.88-1.091 1.982-1.637 3.306-1.637M34.823 19.163c.857-.221 1.851-.221 2.985 0"/>
            <path d="m46.096 20.137-1.016 1.37c-1.16.145-2.03 0-2.611-.432-.87-.65 2.717-7.066 7.926-5.922 5.208 1.143 5.812 5.111 4.878 12.03-.622 4.612 1.275 9.102 5.693 13.468-.555.955-1.912 1.637-4.071 2.047M6.99 37.305c2.188.184 3.37 1.51 3.544 3.976M39.847 36.06s3.246-2.406 1.741-7.218"/>
            <path d="M50.442 39.628c-1.009-3.003-.55-5.39 1.38-7.163M6.99 37.305c2.188.184 3.37 1.51 3.544 3.976M22.402 29.687c-.42 1.774.547 3.237 2.901 4.39"/>
        </g>
    </g>
</svg>
