<svg width="30" height="30" viewBox="0 0 30 30" xmlns="http://www.w3.org/2000/svg" xmlns:xlink="http://www.w3.org/1999/xlink">
    <defs>
        <path d="M15 0c8.284 0 15 6.716 15 15 0 8.284-6.716 15-15 15-8.284 0-15-6.716-15-15C0 6.716 6.716 0 15 0zm0 .8C7.158.8.8 7.158.8 15S7.158 29.2 15 29.2 29.2 22.842 29.2 15 22.842.8 15 .8zM16.733 6l2.407.004c.475 0 .86.356.86.793V9.41c0 .439-.385.794-.86.794l-1.747.002c-.633.012-.715.134-.715.746v1.2l2.348.001a.91.91 0 0 1 .524.164l.085.07c.162.148.252.35.252.56v2.813c0 .439-.386.794-.862.794h-2.347v6.653c0 .405-.328.739-.753.788l-.108.006H12.66c-.476 0-.862-.355-.862-.794v-6.653H9.86c-.439 0-.801-.303-.854-.694l-.007-.1v-2.813c0-.438.385-.794.861-.794h1.937v-1.496c0-2.73 1.862-4.56 4.708-4.652L16.733 6zm-.001.89c-2.434 0-3.968 1.451-3.968 3.766v2.386H9.965v2.62l2.799.001v7.446h2.949v-7.446h3.207l.002-2.621h-3.21v-2.09c0-1.12.497-1.638 1.805-1.638l1.517-.001v-2.42z" id="a"/>
    </defs>
    <g fill="none" fill-rule="evenodd">
        <mask id="b" fill="#fff">
            <use xlink:href="#a"/>
        </mask>
        <use fill="#4F5869" fill-rule="nonzero" xlink:href="#a"/>
        <g mask="url(#b)" fill="#79849A">
            <path d="M0 0h30v30H0z"/>
        </g>
    </g>
</svg>
