<svg id="Layer_1" data-name="Layer 1" xmlns="http://www.w3.org/2000/svg" width="100" height="100" viewBox="0 0 100 100"><defs><style>.cls-1{fill:#fff;}.cls-2{fill:#fcb017;}.cls-3{fill:#fcaf17;}.cls-4{fill:#010101;}.cls-5{fill:#f6b221;}</style></defs><title>Artboard 1</title><g id="SVGID"><polygon class="cls-1" points="5.8 16.8 10.8 12.1 16.7 19.3 11.4 23 5.8 16.8"/><polygon class="cls-1" points="11.2 10.2 12.1 10 19.2 18.4 18.1 19.4 11.2 10.2"/></g><g id="Positive"><polygon class="cls-2" points="11.2 10.2 12.1 10 19.2 18.4 18.1 19.4 11.2 10.2"/><path class="cls-3" d="M17.2,67.7a3.2,3.2,0,0,1-.5,1.3,6.47,6.47,0,0,1-.8.9,10.91,10.91,0,0,1-1.1.6c-.4.2-.9.3-1.4.5a11,11,0,0,1,1.1,1,8.34,8.34,0,0,1,.8,1.2,5.78,5.78,0,0,1,.5,1.4,3.3,3.3,0,0,1,0,1.4,3.15,3.15,0,0,1-.9,1.7A5.09,5.09,0,0,1,13.3,79a6.49,6.49,0,0,1-2.1.7A5.45,5.45,0,0,1,9,79.6C6.1,78.9,3.2,78,.3,77a4.17,4.17,0,0,0-.2-.6C2,70.8,3.9,65.3,5.8,59.7c0-.1.1-.2.3-.2a.76.76,0,0,1,.4-.1q3.45,1.2,6.9,2.1a7.57,7.57,0,0,1,1.8.9,4.71,4.71,0,0,1,1.3,1.5,4.49,4.49,0,0,1,.7,1.8A6.7,6.7,0,0,1,17.2,67.7ZM3.3,70.5ZM2.1,74.3Zm.3-1h0c.1.1.1.1.1,0Zm-.1.7Zm-.4,1.4c0-.1,0-.1.1-.2H1.9ZM5.6,64h0c.1.1.1.1.1,0Zm-.3,1.2ZM3.2,71.6l.1.1v-.3C3.2,71.5,3.2,71.5,3.2,71.6Zm3.2-9.5v.2c0-.1,0-.1.1-.2ZM1.8,76h0a.1.1,0,0,0,.1-.1H1.8Zm3.3-9.8v.1c0-.1.1-.1,0-.1Zm-.6,1.7h0c.1.1.1,0,0,0ZM6,64.5c-.1.1-.2.1-.3.2A.77.77,0,0,1,6,64.5ZM4.3,68.7h0Zm-.7,2.6h0c-.1.1-.1,0,0,0ZM2.3,74.9l.1-.1H2.3ZM2,76.6a.37.37,0,0,0-.1-.3.1.1,0,0,0-.1.1ZM5.9,64.1H6V64c0,.1,0,.1-.1.1Zm-.8,2.4c.1,0,.1.1,0,0l.2.2v-.1C5.3,66.5,5.2,66.5,5.1,66.5Zm-.3,1.7Zm2.4-7.3h.1v-.1C7.2,60.8,7.2,60.8,7.2,60.9ZM4.9,67.6a.37.37,0,0,0,.3-.1c-.1,0-.1,0-.2-.1A.35.35,0,0,1,4.9,67.6ZM3.5,71.9h0c.1.1.1.1.1,0s0-.1-.1,0Zm1.7-5Zm1.7-4.7c.1-.1.2-.1.3-.2H6.8C6.9,62.1,6.9,62.1,6.9,62.2ZM4.1,70.6Zm-.3.6c0,.1.1.1,0,0,.1.1.1.1.2.1s0-.1-.2-.1Zm-.1.5h0c.1.1.1.1.2.1-.1-.1-.1-.2-.2-.1Zm-.6,1.8Zm2.8-8.4c0,.1,0,.1.1.1s0-.1.1-.2C6,65.1,6,65.1,5.9,65.1Zm.5-1.3h0C6.5,63.7,6.5,63.8,6.4,63.8Zm-.3,2a.35.35,0,0,0-.1-.2H5.9ZM4.7,69.4h0c0,.1.1.1,0,0Zm2.9-8h0c0-.1,0-.2-.1-.2v.1ZM5.8,66.8c0-.1,0-.1.1-.2H5.7A.35.35,0,0,0,5.8,66.8Zm-.3.6c.1,0,.2.1.3.1s-.1-.1-.1-.2S5.6,67.3,5.5,67.4ZM3,75.5v-.2H2.8C2.9,75.5,2.9,75.5,3,75.5Zm-.4.8c.1,0,.1,0,.2.1l-.1-.1c-.1-.1-.1-.1-.1,0Zm1.6-5,.1.1c0-.1,0-.1.1-.2C4.3,71.2,4.3,71.2,4.2,71.3ZM4,72l.1.1c0-.1,0-.1.1-.2A.31.31,0,0,1,4,72Zm-.7,2.3.1.1c0-.1,0-.1.1-.2C3.3,74.2,3.3,74.2,3.3,74.3ZM7.1,63.1c.2-.1.3-.1.4-.2H7.2l-.1-.1v.3ZM4.4,72.2H4c.1.1.2.1.3.2.1-.1.1-.1.1-.2Zm2.3-7.9h.1v-.1A.1.1,0,0,0,6.7,64.3ZM4.6,71h0c0-.1,0-.1-.1-.1A.1.1,0,0,1,4.6,71ZM7,63.5H7c.1.1.1.1.2.1-.1-.1-.1-.1-.2-.1ZM5.7,68.1l.4-.2H5.6C5.6,68,5.7,68,5.7,68.1ZM4.1,72.5h.1v-.1c0,.1,0,.1-.1.1ZM7.6,62.4h.2c-.1,0-.1-.1-.2,0Zm-.5,1.5c.1-.1.2-.1.3-.2H7.1Zm-.1.7c-.1,0-.2,0-.2.1v.1c.1,0,.1,0,.1-.1S7,64.7,7,64.6Zm-1.8,5h0c.1.1.1.1.1,0Zm1.1-3.2v.1a.37.37,0,0,1,.1-.3C6.3,66.3,6.3,66.3,6.3,66.4ZM4.9,70.7Zm-.7,2.1h0c.1,0,.1-.1,0,0Zm1.2-3.6h.3c-.1,0-.1,0-.2-.1A.1.1,0,0,0,5.4,69.2ZM4,73.6ZM7.6,62.5c0,.1.1.1.2.2v-.1C7.8,62.5,7.7,62.5,7.6,62.5ZM4.7,71.8h.1a.31.31,0,0,0-.1-.2Zm.4-1.4.1.1c0-.1,0-.1.1-.2C5.2,70.3,5.2,70.3,5.1,70.4Zm1.7-4.9Zm-3,9.3Zm2.4-7.4Zm-.3,1h0l.1.1c0-.1,0-.1-.1-.1ZM3.4,76.2h0c.1,0,.1-.1,0,0Zm2.8-8.1V68H6.1ZM4.8,72.2h.1C4.8,72.1,4.8,72.1,4.8,72.2Zm2.3-7.1h0c.1.1.1.1.2.1-.1-.1-.1-.2-.2-.1Zm1-3.1ZM5.9,69h0C6,69.1,5.9,69.1,5.9,69Zm-.6,1.7.1.1.1-.1v-.1C5.4,70.7,5.4,70.7,5.3,70.7Zm2.8-8.3h.1v-.1l-.1.1Zm-4,12.9h0c0-.1,0-.1-.1-.1C4.1,75.2,4.1,75.2,4.1,75.3ZM7.8,63.6ZM4.5,73.9Zm3.2-9.8h0a.37.37,0,0,0,.3.1.37.37,0,0,0-.3-.1Zm-.4,1.2h0v0Zm-.4,1.4c.1,0,.1.1,0,0,.1.1.1.1.2.1v-.1ZM5.5,71.2l.1.1.1-.1v-.1C5.6,71.2,5.6,71.2,5.5,71.2Zm2.7-8.1Zm.1-.3h0c.1,0,.1-.1,0-.1Zm-.1.6ZM3.9,76.5h0c.1,0,.1,0,0-.1C4,76.5,4,76.5,3.9,76.5Zm2.6-7.6ZM4.4,75.6c.1,0,.1,0,.2-.1a.1.1,0,0,1,.1-.1h.2c.1,0,.1,0,.3.1a1.7,1.7,0,0,1-.7-.1C4.4,75.5,4.4,75.5,4.4,75.6Zm-.2.5h0c.1.1.1.1.2.1-.1-.1-.1-.1-.2-.1ZM8.8,61.8a.1.1,0,0,0-.1.1h0c.1,0,.1,0,.1-.1Zm-.1.4Zm-.3,1.3ZM7,68Zm1.9-5.8a.1.1,0,0,0,.1.1l.1-.1v-.1C9,62.1,9,62.2,8.9,62.2Zm-2,7Zm-.3.9ZM7.2,69Zm2.2-7.2a.1.1,0,0,0,.1.1l.1-.1v-.1C9.4,61.7,9.4,61.7,9.4,61.8Zm-.5,1.4c0,.1.1.1.1.2,0-.1,0-.1.1-.2a.1.1,0,0,0-.1-.1C9,63.2,9,63.2,8.9,63.2Zm.2,0c0,.1-.1.1,0,0C9,63.3,9.1,63.3,9.1,63.2ZM5,76.5h.1C5.1,76.4,5,76.4,5,76.5ZM9.4,62.8h0v0Zm.3-.6a.1.1,0,0,0-.1.1A.1.1,0,0,0,9.7,62.2Zm-4.3,14h0c.1.1.1.1.1,0Zm2.8-8.3c.3.1.5.1.9.2l1.1.3a1.7,1.7,0,0,0,1,0,1.91,1.91,0,0,0,.8-.3,1.93,1.93,0,0,0,.5-.9c0-.2.1-.4.1-.6a1.27,1.27,0,0,0-.1-.6,2.19,2.19,0,0,0-.3-.5.85.85,0,0,0-.5-.3c-1-.3-1.5-.4-2.5-.7-.4,1.3-.6,1.9-1,3.2Zm.4,7.6a1.37,1.37,0,0,0,1.4-.2,1.78,1.78,0,0,0,.8-1.1,2,2,0,0,0-.1-1.3,1.79,1.79,0,0,0-1-.9c-1.1-.3-1.6-.5-2.7-.8-.4,1.4-.6,2.1-1,3.4A13.38,13.38,0,0,0,8.6,75.5Zm-.9-5.7Zm2.5-8.1h0c.1.1.1.1.1,0s0-.1-.1,0C10.3,61.6,10.2,61.6,10.2,61.7Zm-.2.5h0c.1.1.1.1.1,0Zm0,.8ZM6,76.7a.1.1,0,0,0,.1.1l.1-.1v-.1C6,76.6,6,76.7,6,76.7Zm4.4-14.4h0Zm-.1.3h0c.1.1.1.1.1,0ZM5.8,77.5h0c0,.1.1.1,0,0C5.9,77.6,5.9,77.5,5.8,77.5Zm4.4-14.4h0c.1.1.1.1.1,0ZM6.3,77c0,.1,0,.2.2.2,0-.1,0-.1.1-.2Zm4.5-14c.1-.2,0-.3-.2-.3C10.7,62.8,10.8,62.9,10.8,63Zm-.4.5h0c.1,0,.1-.1,0-.1Zm.5-1.3h0c-.1.1,0,.1,0,.1s.1,0,0-.1ZM6.7,76.9Zm3.9-13.1Zm-2,6.5h0c.1.1.1.1.1,0ZM11,62.7h.3a.35.35,0,0,0,.2-.1h-.1C11.2,62.6,11.1,62.6,11,62.7Zm-4.4,15h.1v-.1l-.1.1Zm4.6-15.6a.1.1,0,0,0,.1.1l.1-.1V62C11.3,62,11.3,62,11.2,62.1Zm-.3,1.3h.2c0-.1,0-.1.1-.2H11A.31.31,0,0,1,10.9,63.4Zm0,.4h0c.1.1.1.1.1,0ZM7.1,77.3a.1.1,0,0,0,.1.1h.2c-.1-.1-.1-.1-.2-.1Zm4.2-14.2h0c.1.1.1.1.1,0Zm-.1.6h0c.1.1.1.1.1,0Zm.5-1.4h0c.1.1.1.1.1,0v-.1C11.8,62.3,11.8,62.3,11.7,62.3ZM9.5,70.2Zm-2,6.9h.2V77C7.6,77.1,7.6,77.1,7.5,77.1Zm2.1-6.6h.1l-.2-.2A.31.31,0,0,1,9.6,70.5ZM7.4,77.8h0C7.5,77.7,7.4,77.7,7.4,77.8Zm4.8-15.1h0c.1.1.1.1.1,0v-.1A.1.1,0,0,1,12.2,62.7ZM7.8,77.9a.1.1,0,0,0,.1.1l.1-.1v-.1C7.9,77.9,7.9,77.9,7.8,77.9ZM12,63.6ZM8.3,77.2c.1,0,.1,0,.2.1v-.1Zm.4-.7h0c.1.1.1.1.1,0s0-.1-.1,0C8.8,76.4,8.7,76.4,8.7,76.5Zm-.1.5h0c.1.1.1.1.1,0Zm4.1-13.8a.1.1,0,0,0,.1-.1c-.1,0-.1,0-.2-.1A.31.31,0,0,1,12.7,63.2Zm-.3,1v0Zm-2,6.9Zm.3-.7a.1.1,0,0,0,.1-.1c0,.1-.1,0-.1.1Zm.1-.4h0c.1.1.1.1.1,0ZM9.2,77v-.1c-.1,0-.1,0-.2-.1ZM13,63.9h0c.1.1.1.1.1,0v-.1A.1.1,0,0,1,13,63.9Zm-1.7,6.4a.1.1,0,1,1-.1.1A.1.1,0,0,0,11.3,70.3Zm1.9-6.8c.2.1.4.1.6.2v-.1c-.2,0-.3-.1-.6-.1Zm-2,7.5ZM13,65c.1,0,.1,0,.1-.1s0-.1-.1-.2l-.1.1C12.9,64.9,12.9,65,13,65Zm-1.8,6.3h0c-.1.1-.1.1-.1.2.1-.1.1-.1.1-.2ZM13,64.6h0c.1.1.1.1.1,0Zm-1.6,6.2c0,.1,0,.2.1.2v-.2Zm-.1,1h0c.1.1.1.1.1,0s-.1-.1-.1,0Zm2.4-7.5c-.1,0-.2.1-.3.1h.1C13.5,64.5,13.6,64.4,13.7,64.3Zm-2.1,7.3c.1-.1.2-.1.4-.2,0-.1,0-.1-.1-.2C11.8,71.4,11.7,71.4,11.6,71.6ZM9.8,78.5h0a4.17,4.17,0,0,1,.6.2c-.2-.2-.3-.2-.6-.2Zm2.6-8.9h0c.1.1.1.1.1,0Zm-.6,2.3h0c.1.1.1.1.1,0Zm2.1-7.5c.1,0,.1-.1.2-.1v-.1Zm0,.6v.1s.1-.1,0-.1a.1.1,0,0,0,.1-.1A.1.1,0,0,0,13.9,65ZM10.8,76.8h0c.1.1.1.1.1,0s0-.1-.1,0C10.9,76.7,10.9,76.8,10.8,76.8Zm2.3-8Zm.1-.4h0c.1.1.1.1.1,0s0-.1-.1,0Zm-.3,1h0c.1.1.1.1.1,0Zm1.5-5.3c.1,0,.2,0,.2-.1h-.2Zm-.5,2.3Zm-2.6,10h0c.1.1.1.1.1,0s.1-.1-.1,0ZM14,67h0c.1-.1.2-.1.3-.2h-.4C14,66.9,14,66.9,14,67ZM11.4,77.1h.1c0-.1,0-.1-.1-.1a.1.1,0,0,1-.1-.1h-.1C11.3,77,11.4,77,11.4,77.1Zm-.3.7Zm3.4-12.4h.2c.1-.2.1-.3.2-.5-.2,0-.2.1-.4.1Zm.3-.9h0c.1-.1.1-.1,0-.2ZM13.6,69h.1c0-.1-.1-.1-.1-.2Zm-1.8,7Zm-.2.8h.1l-.2-.2h.1Zm1.8-7.2h0c.1.1.1.1.1,0Zm-.9,3.6h0c.1.1.1.1.1,0Zm1.3-4.7Zm.2-.3c.1-.1.1-.1.1-.2s-.1,0-.2-.1A.37.37,0,0,1,14,68.2Zm-2.1,7.4H12v-.1l-.1.1Zm3-9.1h-.3c-.1,0-.1.1-.2.2C14.7,66.8,14.8,66.7,14.9,66.5Zm.2,0a.1.1,0,0,1-.1.1l-.1.1h.2c.1-.1.1-.2.2-.3a1.69,1.69,0,0,0-.2-.5c-.1-.2-.2-.3-.4-.3,0,.2,0,.3.2.4A.65.65,0,0,1,15.1,66.5Zm-2.3,7.7L13,74c-.1,0-.1.1-.2.1Zm2.5-9.5a.37.37,0,0,1,.1-.3.37.37,0,0,0-.1.3Zm-.7,2.5h0c0,.1.1.1,0,0Zm-.5,1.6a1.09,1.09,0,0,0,.5-.1q.3-.15.3-.3a5.9,5.9,0,0,0-.8.4Zm-1.5,5.8h0c.1,0,.1,0,.1-.1,0,.1,0,.1-.1.1Zm1.5-5.4h.2c-.1,0-.1-.1-.2-.1Zm-1,4h0c.1.1.1.1.1,0Zm2-6h-.3c-.1,0-.1.1-.2.2h.3C15.1,67.4,15.1,67.3,15.1,67.2Zm.4-1.1c-.1-.2-.1-.3-.2-.4h-.1A1.38,1.38,0,0,1,15.5,66.1ZM12.8,75l.3.3v-.2A.1.1,0,0,0,13,75C12.9,74.9,12.9,74.9,12.8,75Zm-.5,1.9c.1,0,.1,0,.2-.1h-.2Zm2.4-9.1h0l.1.1V68h.1c0-.1-.1-.1-.2-.2Zm.1.1Zm-2.4,9.9h0c0-.2,0-.2-.1-.3v.1A.31.31,0,0,1,12.4,77.8Zm.5-1.7Zm.9-3h0v-.3h0Zm1.9-6.7h0a.1.1,0,0,0-.1-.1Zm-.3.5Zm-.3,1.2Zm-1.2,5.4h-.1l.1.1C13.8,73.6,13.8,73.6,13.9,73.5Zm-.2,1.1h0v-.1a.1.1,0,0,0-.1-.1v.1ZM15.8,66h0l.1.1c.1-.1,0-.1-.1-.1C15.9,65.9,15.9,66,15.8,66Zm-1.9,8ZM16,66.9h.1l-.2-.2c0-.1-.1-.1-.2-.2v.1C15.8,66.7,15.9,66.7,16,66.9Zm-2.5,8.5h.1v-.1c0,.1,0,.1-.1.1ZM16,67.3a.37.37,0,0,0-.3.1c-.1.1-.1.2-.2.3.2-.1.3-.1.5-.2Zm-.3.9ZM14,75.6h0a.1.1,0,0,0,.1-.1A.1.1,0,0,1,14,75.6Zm.3-.9h0c.1.1.1.1.2,0Z"/><path class="cls-3" d="M27.7,79.4a2.44,2.44,0,0,0,1.2,0,2.66,2.66,0,0,0,1.2-.3,8.79,8.79,0,0,0,1-.6,1.91,1.91,0,0,0,.5-1c.5-3.9,1-7.7,1.5-11.6a3.11,3.11,0,0,1,.6-.4c1.4.2,2.1.2,3.5.4.2.2.2.3.4.5-.4,4-.7,8.1-1.1,12.1a4.59,4.59,0,0,1-1,2.5,8.36,8.36,0,0,1-2.3,1.8,9.64,9.64,0,0,1-3,1,8.08,8.08,0,0,1-3.1,0,11.24,11.24,0,0,1-3.1-1,7.9,7.9,0,0,1-2.5-1.9,8.21,8.21,0,0,1-1.6-2.5,5.36,5.36,0,0,1-.2-2.8c.8-3.8,1.6-7.6,2.4-11.5,0-.1.1-.2.2-.3a.6.6,0,0,1,.4-.1c1.4.3,2,.4,3.4.7.2.2.2.3.4.5-.7,3.8-1.3,7.6-2,11.4a2.46,2.46,0,0,0,.1,1.2,2.18,2.18,0,0,0,.7.9,4.13,4.13,0,0,0,1.1.7C26.9,79.2,27.3,79.3,27.7,79.4Zm-6.8-4.7h0C21,74.6,21,74.7,20.9,74.7Zm1.1-5h0l.1.1v.1a.1.1,0,0,0,.1-.1s0-.1-.2-.1Zm.2,0Zm.8-4.3.2.2a.37.37,0,0,1,.1-.3A.37.37,0,0,1,23,65.4Zm-.3,2.4c.2,0,.2.1.4.1-.1-.1-.2-.1-.3-.2Zm-.8,5.6c-.1,0-.2,0-.2.1a.35.35,0,0,1-.1.2c.1,0,.2,0,.2-.1A.35.35,0,0,0,21.9,73.4Zm.1-1.8h0c.1.1.1.1.2,0a.14.14,0,0,0-.2,0Zm-.1,2.6c.1,0,.1,0,.2-.1-.1,0-.1-.1-.2-.1s-.1,0-.2-.1C21.7,74,21.8,74.1,21.9,74.2Zm1.5-8.9a.37.37,0,0,1,.3.1c-.1-.1-.1-.1-.1-.2S23.5,65.2,23.4,65.3Zm-.1.7h0v0Zm-.2,1.3h0c.1.1.1,0,.1,0Zm-.3,2h0c.1.1.1,0,.2,0-.1,0-.1-.1-.2,0Zm.5-1.7c.1-.1.1-.1.1-.2h-.2A.35.35,0,0,0,23.3,67.6Zm-.6,2.5h.1V70h-.1Zm-.9,4.5.1.1v-.2C21.9,74.6,21.9,74.6,21.8,74.6Zm-.7,3.7.1.1v-.2A.1.1,0,0,1,21.1,78.3Zm2.1-10.4h0c0,.1.1.1,0,0,.1.1.1,0,0,0Zm-.1.3h0a.35.35,0,0,0,.2-.1h0A.35.35,0,0,1,23.1,68.2Zm-.4,2.5Zm-.2.6Zm1.4-6.4Zm-.3,1h.1a.1.1,0,0,0,.1-.1h0C23.7,65.8,23.7,65.8,23.6,65.9ZM21.8,76Zm-.4,1.6a1.7,1.7,0,0,0,.7.1c-.3-.1-.4-.2-.7-.3Zm1.8-8.2h.3v-.1c0-.1,0-.1-.1-.1Zm-.9,4.8h0c.1.1.1,0,.1,0s0-.1-.1,0ZM24,66.1h0c.1.1.1.1.2,0ZM22.6,73h0c.1.1.1.1.2,0s0-.1-.2,0Zm.3.5h-.4a.37.37,0,0,0,.3.1c.1,0,.1,0,.1-.1Zm.9-5.2h0c0-.1,0-.1-.1-.1Zm-1.3,6.2h.2v-.3C22.7,74.3,22.6,74.4,22.5,74.5Zm-.7,3.8h0c-.1.1,0,.1,0,.1ZM23.4,71h-.2l-.1.1h0c.1,0,.1,0,.1-.1C23.4,71.1,23.4,71,23.4,71Zm-1.2,5.6h0c.1.1.1,0,.1,0s0-.1-.1,0Zm.8-3.9h0c.1.1.1.1.2,0-.1,0-.1-.1-.2,0Zm1.2-6.1v0Zm.3-1.3h0Zm-.7,3.4a.1.1,0,0,0,.1.1v-.2C23.9,68.7,23.9,68.7,23.8,68.7Zm.7-2.7c.1,0,.2-.1.4-.1a.1.1,0,0,0-.1-.1C24.7,65.9,24.6,66,24.5,66Zm-.3,1.5c.1,0,.1.1,0,0,.1,0,.1,0,.1-.1C24.3,67.5,24.3,67.5,24.2,67.5Zm.2,1v-.1a.37.37,0,0,1-.3-.1C24.2,68.4,24.3,68.4,24.4,68.5Zm-1.3,4.8h.6c-.1,0-.1-.1-.2-.1S23.3,73.3,23.1,73.3Zm-.7,4.4Zm2.3-12.4a.37.37,0,0,1,.3.1c0-.1,0-.2-.1-.2s-.1-.1-.2-.1C24.8,65.1,24.8,65.2,24.7,65.3ZM22.4,78.6l.1-.1c-.1,0-.1-.1-.2-.1v.1A.1.1,0,0,1,22.4,78.6Zm1.7-9.5a.1.1,0,0,0,.1.1.1.1,0,0,1,.1-.1V69C24.1,69,24.1,69,24.1,69.1ZM22,79.8a.1.1,0,0,0,.1.1.1.1,0,0,1,.1-.1v-.1C22.1,79.8,22.1,79.8,22,79.8Zm1.5-7.3Zm1.1-6h.1c0-.1,0-.1-.1-.1C24.7,66.5,24.7,66.5,24.6,66.5Zm-1.2,7.2h0c.1.1.1.1.2,0ZM23,75.9h0c.1.1.1.1.2,0-.1-.1-.1-.1-.2,0Zm-.2,1.2v0Zm1.9-10.2h.1v-.1l-.1.1Zm-1.8,9.8.1.1.1-.1v-.1C23,76.7,23,76.7,22.9,76.7Zm.6-2.6h0c.1,0,.1,0,.1-.1C23.6,74.1,23.6,74.1,23.5,74.1Zm.4-1.8ZM23,77.6h0c-.1.1,0,.1,0,.1v-.1ZM22.7,79h0c.1-.1.1-.1.1-.2h-.1Zm.4-1.3a.1.1,0,0,1,.1.1h.1v-.1Zm.2.7-.1.1-.1.1v.1C23.2,78.6,23.3,78.5,23.3,78.4Zm0,.6v0Zm.4-1Zm-.2,2h0c.1.1.1.1.2,0Zm-.1.6c.1,0,.1,0,.2-.1h-.1Zm.7-.8h-.2a.1.1,0,0,0-.1.1H24C24.1,79.9,24.1,79.9,24.1,79.8Zm-.2-.5ZM23.6,81h0c.1.1.1.1.2,0Zm.3-.7c0,.1,0,.1.1.1v-.3Zm.5-1.1a.1.1,0,0,0-.1.1c0-.1,0,0,.1-.1Zm-.3,1.3c0,.1.1.1.1.2a.1.1,0,1,0,0-.2h-.1c0-.1,0-.1.1-.2h-.1C24.2,80.4,24.2,80.4,24.1,80.5Zm-.1.9h0l.1.1h0v.1a.1.1,0,0,0,.1-.1c0-.1-.1-.1-.1-.2S24,81.3,24,81.4Zm.1,0Zm.6-1.8h0v0Zm.3,1.8a.1.1,0,0,0,.1-.1c-.1,0-.1,0-.1.1C24.9,81.3,25,81.3,25,81.4Zm.5-.5h0c.1.1.1.1.2,0v-.1A.31.31,0,0,1,25.5,80.9Zm.2.1h0c.1.1.1.1.2,0Zm0,.7c0,.1,0,.1.1.2v-.2Zm0,.4Zm.6-1.7h-.1s0,.1.1,0Zm-.2,1.2h0c.1.1.1,0,.1,0s0-.1-.1,0Zm.2.5a.37.37,0,0,1,.3-.1l-.3-.3C26.4,81.9,26.3,82,26.3,82.1Zm.2.4h0c.1.1.1.1.2,0v-.1Zm.4-2.1h0c.1,0,.1-.1.2-.1H27A.1.1,0,0,1,26.9,80.4Zm.6,1.2c0-.1.1-.3.2-.3s.2-.2.2-.3v-.1c-.1,0-.2.1-.4.1s-.2.1-.3.2C27.4,81.3,27.4,81.4,27.5,81.6Zm.1.4c-.1,0-.2,0-.2.1h.2Zm.1-.2h0c.2.1.4,0,.6-.2h-.1C28,81.7,27.9,81.7,27.7,81.8Zm.6.3h0c.1.1.1,0,.2,0-.1-.1-.1-.1-.2,0C28.4,82,28.3,82,28.3,82.1Zm.3-.7h0c.1-.1.1-.1,0-.2Zm.3-.3h.3l-.2-.2h-.1Zm.4-.7c0,.1-.1.1-.2.2h.3C29.4,80.5,29.4,80.5,29.3,80.4ZM29,82.1h0c.1.1.1,0,.2,0V82C29.1,82,29.1,82,29,82.1Zm.2-.6a.1.1,0,0,0-.1.1h.1s.1,0,0-.1Zm0,.7c0,.1,0,.1.1.1a.35.35,0,0,1,.2.1c0-.1,0-.1-.1-.2Zm.1-.9v.1l.1-.1c.1,0,.1-.1-.1,0Zm.3,1.3Zm.2-1.2h0a.1.1,0,0,0,.1-.1h-.1Zm.4,0h.2V81c0-.1,0-.2-.1-.2a1.38,1.38,0,0,0-.3.4h.3C30.3,81.3,30.3,81.3,30.2,81.4Zm.1.9h.2a.1.1,0,0,0-.1-.1C30.4,82.3,30.4,82.3,30.3,82.3Zm.5-.7h0c.1.1.1,0,.2,0h-.2C30.9,81.5,30.9,81.6,30.8,81.6Zm.3-.7h.2a.1.1,0,0,0-.1-.1h0A.1.1,0,0,0,31.1,80.9Zm.3-.8h.1c0-.1,0-.1-.1-.2Zm-.2,1.5h.2v-.1C31.3,81.5,31.3,81.5,31.2,81.6Zm.4-1Zm.1,1.3v-.1h-.1C31.7,81.8,31.7,81.8,31.7,81.9Zm.3-.7c-.1,0-.2,0-.2.2a.1.1,0,0,0,.1-.1C32,81.3,32,81.3,32,81.2Zm0,.4h0c.1.1.1,0,.1,0s0-.1-.1,0Zm1.8-14.2c.1,0,.1,0,.2-.1-.1,0-.1-.1-.2-.1Zm-.5,6.2Zm.5-4.4Zm-.3,2.5h0v0ZM32.3,81.9Zm1.3-9.1v-.3c-.1,0-.1.1-.2.1C33.5,72.7,33.6,72.7,33.6,72.8ZM33.3,75c-.1,0-.2,0-.2.2C33.3,75.1,33.3,75.1,33.3,75Zm.9-8.3h0a1.34,1.34,0,0,0,.5.1c-.2-.1-.3-.1-.4-.2A.1.1,0,0,1,34.2,66.7Zm-.3,2.7H34v-.2C34,69.4,34,69.4,33.9,69.4Zm-.5,4.7h0c.1-.1,0-.1,0-.2C33.5,74,33.5,74,33.4,74.1Zm.8-3.7a.22.22,0,0,1-.2.2c-.1.1-.2.1-.2.2a.35.35,0,0,0,.4-.4Zm.2-3.5h0c.1.1.1,0,.2,0Zm-.1.4h.3c-.1,0-.1-.1-.2-.1ZM33.2,77.4c.1,0,.1,0,.2-.1a.1.1,0,0,1-.1-.1c-.1,0-.1,0-.1.2Zm1-8.8h.3c.1,0,.2-.1.3-.1h-.4C34.3,68.5,34.3,68.5,34.2,68.6Zm.1.2Zm-.5,5.9c-.1,0-.2,0-.2.1l.2-.1Zm-1,6.1h0ZM34.1,70l.1.1v-.2A.1.1,0,0,1,34.1,70Zm0,2,.2-.2c.1,0,.1-.1.2-.2l-.4.2C34,71.9,34,71.9,34.1,72Zm-.9,7h.1s0-.1-.1,0Zm1.3-11.4h0c.1,0,.1-.1,0,0Zm-.2,1.5.1.1v.1a.1.1,0,0,0,.1-.1l-.1-.1Zm-1.2,11v0Zm1.3-10.9Zm-.7,8.5v-.1h-.3C33.6,77.6,33.6,77.6,33.7,77.7Zm.2-3.7h.3v-.1C34,73.9,34,73.9,33.9,74Zm-.8,7.1h.2v-.2h-.2Zm.6-5.4.1.1.1-.1v-.1C33.8,75.7,33.8,75.7,33.7,75.7ZM35,67h0Zm-.9,6.6h0c.1,0,0-.1,0-.1Zm.6-5h0c.1.1.1,0,.2,0Zm-.2,1.7h0Zm0,.6h0c0,.1.1.1,0,0Zm.3-2.7H35l.1-.1A.37.37,0,0,1,34.8,68.2Zm-.5,4.7ZM33.7,78c0,.1,0,.1.1.1H34a.1.1,0,0,0-.1-.1ZM35,67.1l.1.1.1-.1V67C35,67,35,67,35,67.1Zm-.5,5.2h0c-.1.1,0,.1,0,.1s.1,0,0-.1Zm.4-3.3h0c.1,0,.1,0,.1-.1Zm-.7,6.2h0c.1,0,.1-.1,0,0Zm-.5,5ZM35.2,67c.1,0,.1-.1.2-.2ZM35,68.9c.1,0,.1-.1.2-.2Zm-.6,5.5h.2v-.1a.31.31,0,0,0-.2.1Zm.2-1.7a.1.1,0,0,1,.1.1h.1v-.1Zm-.2,2,.1.1.1-.1v-.1C34.5,74.7,34.5,74.7,34.4,74.7Zm-.5,5.2.1.1a.1.1,0,0,1,.1-.1v-.1C33.9,79.8,33.9,79.8,33.9,79.9Zm.1-1h0c.1,0,.1-.1,0,0Zm1-8V71c.1,0,.1,0,.2-.1-.1-.1-.1-.1-.2-.1Zm.4-3.6a.37.37,0,0,0,.3-.1v-.1a.37.37,0,0,0-.3-.1Zm-.1,3.6c.1-.1.2-.1.3-.2h-.5S35.2,70.7,35.3,70.9Zm.2-4h0c.1.1.1,0,.1,0a.1.1,0,0,0-.1-.1Zm-.2,1.5c0,.1.1.1,0,0,.1.1.1,0,.1,0Zm.3-.3h.1c-.1,0-.1-.1-.1,0ZM34.5,78.5h0c0,.1.1.1,0,0Zm-.1.9v.1a.1.1,0,0,1,.1-.1s0-.1-.1,0Zm1.3-11.9h0Zm-.4,8c-.1,0-.3-.1-.4,0,.1,0,.1,0,.2.1C35.2,75.5,35.2,75.5,35.3,75.5Zm-.7,4Zm1.1-10.7v0Zm.2-1.8v.1l.2-.2v-.1Zm-.1.7Zm-.3,3.5Zm.1-.9h0c.1.1.1,0,.1,0Zm-.1,1.9Zm.1-.9h0c.1.1.1,0,.1,0a.1.1,0,0,0-.1-.1Zm-.1.8h0c.1.1.1,0,.1,0a.1.1,0,0,0-.1-.1Zm.3-2.3h0c.1,0,.1.1.2.1A.31.31,0,0,1,35.8,69.8Zm0,.8h-.1c0,.1.1.1.1,0,0,.1.1.1,0,0Zm-.5,4.1a.22.22,0,0,0,.2.2A.22.22,0,0,0,35.3,74.7Zm-.1,1.1Z"/><path class="cls-3" d="M45.6,76.1a8.76,8.76,0,0,0-.7-1.2,14,14,0,0,1-1.2-1.8c-.4-.7-.9-1.3-1.4-2.1a15.07,15.07,0,0,1-1.2-2,8.94,8.94,0,0,1-.9-1.6,4.18,4.18,0,0,1-.3-.9.76.76,0,0,1,.2-.4c.1-.1.2-.1.4-.1,1.4.1,2.2.1,3.6.2l.5.5c.2.4.5.8.7,1.3s.6.9.9,1.4.6.9.9,1.4a3.18,3.18,0,0,0,1,1c.1,0,.1,0,.2-.1l3.6-5.1c.2-.1.2-.2.4-.3,1.5,0,2.2,0,3.7-.1a.52.52,0,0,1,.4.2.76.76,0,0,1,.1.4,1.79,1.79,0,0,1-.4.8,18.45,18.45,0,0,1-1,1.6c-.4.6-.8,1.3-1.3,2s-1,1.4-1.4,2a13.6,13.6,0,0,0-1.2,1.7,6.31,6.31,0,0,0-.7,1v8.6c0,.1-.1.2-.2.3s-.3.2-.4.2c-1.5,0-2.2,0-3.7-.1-.1,0-.2-.1-.4-.2s-.3-.2-.3-.3C45.4,81.8,45.5,79,45.6,76.1Zm-4-8.5v-.1h-.1Zm.2.1c0,.1-.1.1-.1.2v.2c.1-.1.1-.2.2-.3Zm.2.5c-.1.1-.1.1-.1.2h0c0-.1.1-.1.1-.2Zm.4,0c0,.2-.1.3-.2.3s-.2.1-.2.3h.1l.5-.5c0-.1-.1-.1-.1-.2h.2c.1,0,.2-.1.3-.1l-.5-.5a.22.22,0,0,0-.2.2c0,.1-.1.2-.1.3Zm-.3-.8h.3c0-.1-.1-.1-.1-.2S42.2,67.3,42.1,67.4Zm.3,1.6h0c.1.1.1,0,.1,0Zm.2-.3Zm.1-.1c.1,0,.1.1,0,0,.1.1.1,0,.2,0l-.1-.1A.1.1,0,0,1,42.7,68.6Zm.3-.9c.1,0,.2-.1.2-.3-.1,0-.2.1-.3.1C43,67.6,43,67.6,43,67.7Zm-.1,1.5h0c.1.1.1,0,.1,0v-.1Zm.1-1.1v.1c.2-.1.3-.2.5-.3C43.3,68,43.2,68,43,68.1Zm0,.8Zm.2.6a.1.1,0,0,0-.1.1l.1.1Zm0-.1Zm.3-.9c.1-.1.1-.2.2-.3-.1,0-.1.1-.2.1s-.1.1-.2.1C43.4,68.5,43.4,68.5,43.5,68.5Zm-.1,1.3a.1.1,0,0,0-.1.1l.1.1Zm.2-.6-.1.1a.1.1,0,0,0,.1-.1Zm.2-1.1h0c.1-.1.1-.1.1-.2h-.1Zm0,1.3Zm0,.5h.1v-.2h-.1Zm.2-1.7a.1.1,0,0,0-.1.1l.1.1Zm0,.5a.1.1,0,0,0-.1.1l.1.1Zm.3.9h0c.1,0,.1,0,.1-.1S44.3,69.5,44.3,69.6Zm0,.2h0c.1.1.1,0,.2,0l-.1-.1Zm0,.8h0c.1.1.1,0,.2,0l-.1-.1C44.3,70.5,44.3,70.5,44.3,70.6Zm.2-1.2a.1.1,0,0,0,.1.1l-.1-.1Zm0,2.3Zm.2-1.7Zm-.1,2.9h.1s0-.1-.1,0C44.7,72.8,44.7,72.9,44.6,72.9Zm.3-1.3Zm.1-.3c0-.1.1-.1.1-.2H45Zm.4-.4Zm.1.7h0C45.6,71.5,45.5,71.5,45.5,71.6Zm.4.4v-.2h-.1A.31.31,0,0,1,45.9,72Zm-.1,1.7H46l-.1-.1c-.1,0-.1,0-.1.1Zm.4,1a.1.1,0,0,1,.1.1v-.3C46.2,74.6,46.2,74.6,46.2,74.7Zm.4-1.2h.1c0-.1,0-.1-.1,0Zm0,1.3Zm-.2,6.9h0c0,.1.1.1,0,0Zm0,1.5Zm.3-3c-.1.1-.1.1-.1.2h.1ZM47,83h.2a.1.1,0,0,1,.1.1c0,.1-.1.1-.1.2a.52.52,0,0,0,.4-.2.52.52,0,0,1,.4-.2c-.1,0-.1,0-.2-.1s.1-.1.1-.2a.37.37,0,0,0,.3.1c.1-.1.1-.2.2-.3-.1,0-.1,0-.2.1.1-.4.1-.5.2-.9l-.5.5c0,.1.1.2.1.3s-.1,0-.2-.1a.1.1,0,0,0-.1.1v-.2l-.2-.4a.1.1,0,0,1,.1-.1v-.1c-.2.1-.3.2-.5.3,0,.1.1.3.2.3s.2.2.2.3a.37.37,0,0,1-.3.1v-.1l-.4-.2v-.1c-.1.1-.1.2-.2.3.1,0,.1.1.2.1h.1c-.1.1-.1.2-.2.3.1.2.1.2.3.1-.1.1-.1,0-.2,0Zm-.4-.5c.2-.1.3-.1.4-.2l-.2-.2Zm.2-9.1a.1.1,0,0,0,.1.1.1.1,0,0,1,.1-.1.1.1,0,0,0-.1-.1C46.8,73.3,46.8,73.3,46.8,73.4Zm0,.8h0c.1.1.1,0,0,0Zm.2,4.5c-.1.1-.2.2-.2.3H47Zm0-5.2h.3c-.1,0-.2-.1-.3,0Zm-.1,2.4H47s0-.1-.1,0C47,75.8,47,75.9,46.9,75.9Zm0,1.4c0,.1,0,.1.1.1h.2v-.2A.37.37,0,0,1,46.9,77.3Zm.3.6c-.1,0-.1,0-.1.1s-.1.1-.1.2c.1-.1.1-.2.2-.3Zm.6,3.6H48c0,.1,0,.1.1.1a.1.1,0,1,0,0-.2l.3-.3c.1-.1.1-.2.2-.3a.37.37,0,0,0-.3.1c-.1,0-.1.1-.2.2a.35.35,0,0,0-.2-.1c.1-.1.1-.1.2-.1l-.2-.2.3-.3c0-.1-.1-.1-.1-.2h-.2a.76.76,0,0,0-.1-.4c0-.1-.2-.2-.3-.2v.2c-.1-.1-.2-.1-.3-.2a.37.37,0,0,0-.3-.1v.2c.1.1.2.1.3.2s-.1.2-.1.3.1,0,.2-.1h.2a.6.6,0,0,1-.1.4.6.6,0,0,0-.1.4h.1a.1.1,0,0,1-.1.1v.1c.1-.1.2-.1.3-.2v.4c0,.1,0,.1-.1.2Zm-.9-.6h.2c-.1-.1-.1-.1-.2,0Zm.2.9c.1,0,.1-.1.2-.1-.1-.1-.2-.1-.3-.2l-.2-.2v.2C47,81.6,47,81.7,47.1,81.8ZM47,74.7h0c.2.1.2,0,.3,0-.1,0-.1-.1-.2-.1ZM46.9,82h.3c-.1-.1-.1-.1-.3,0Zm.3-5.8h0a.31.31,0,0,0-.1.2v.1l.1-.1ZM47,80.6Zm.2-3.6Zm0,3.2c0,.1-.1.1,0,0-.1.1,0,.1,0,0a.1.1,0,0,0,.1.1A.1.1,0,0,1,47.2,80.2Zm-.1,1Zm.1-2.1h.1l-.1-.1Zm-.1,1.8Zm.1-2.4h.2v-.1a.31.31,0,0,0-.2.1Zm0,.3h0Zm.1-4.7h.1a.1.1,0,0,0-.1-.1C47.4,74.1,47.4,74.1,47.3,74.1Zm0,3h0c.1.1.1,0,.1,0a.1.1,0,0,0-.1-.1Zm.2-4.3c-.1-.1-.1,0,0,0v.1C47.4,72.8,47.5,72.8,47.5,72.8Zm-.2,8.6Zm.1-3.6Zm-.1,3.4h.1c0-.1,0-.1-.1,0Zm0,2.5Zm.2-8h.1l-.1-.1Zm.1,2.1h0v0Zm0-.2Zm.4,1.9-.2-.2c-.1,0-.1,0-.2.1C47.8,79.4,47.9,79.4,48,79.5Zm.1-5.5a.37.37,0,0,0-.3.1c.1,0,.2.1.3.1V74Zm-.4.8Zm0,4.4h.1a.1.1,0,0,0-.1-.1Zm-.1,4.4h.1s0-.1-.1,0Zm.1-3.3Zm-.1,2.3Zm.1-.1Zm0,.9c.1-.1.2-.1.3-.2l-.1-.1C47.8,83.2,47.7,83.3,47.7,83.4ZM48,73.3l-.2.2H48ZM47.8,79Zm.1,2.3-.1.1a.1.1,0,0,0-.1-.1.1.1,0,0,1,.1-.1Zm0-7.3H48l-.1-.1Zm0,1.2h0a.31.31,0,0,0,.2.1v-.1a.1.1,0,0,0-.2,0Zm.1,2h0c0-.1,0-.1-.1-.1S47.9,77.2,48,77.2Zm-.1.8h-.1c.1.1.1.1.1,0Zm-.2,5.8c.1.1.1.1.2.1a.1.1,0,0,1-.1-.1c.1-.1,0-.1-.1,0C47.8,83.7,47.8,83.8,47.7,83.8Zm.2-5.6Zm.1,2.6c-.1,0-.1.1,0,0h-.1l.1-.1C47.9,80.7,47.9,80.8,48,80.8Zm-.2,1h0V82a.1.1,0,0,1,.1.1L48,82c-.1,0-.1-.1-.2-.2H48a.1.1,0,0,0-.1-.1A.1.1,0,0,1,47.8,81.8Zm.2-2.6c.1,0,.1.1,0,0h.1l-.1-.1C48.1,79.2,48.1,79.2,48,79.2Zm0,1.3h0l.1.1h0a.1.1,0,0,1,.1.1l.1-.1-.1-.1h-.1l-.1-.1C48.1,80.5,48.1,80.5,48,80.5Zm.1,1Zm.1-3.8c.1,0,.1-.1,0,0a.1.1,0,0,0-.1-.1A.1.1,0,0,1,48.2,77.7Zm.4.8a1.38,1.38,0,0,0-.4.3c.3-.1.6-.2.7-.4l-.1-.1a.1.1,0,0,0,.1-.1,1.7,1.7,0,0,0-.7.1c.1.1.2.1.4.2Zm-.5,5.1a4.17,4.17,0,0,0,.8-.6.1.1,0,0,0-.1-.1l-.3.3a.52.52,0,0,1-.4.2Zm.1-5.7h.1a.1.1,0,0,0-.1-.1Zm-.1,2.7Zm.1,1.6a.1.1,0,0,1-.1.1l-.1-.1.1-.1C48.2,82.1,48.2,82.1,48.2,82.2Zm0-6.8Zm.1,3.9ZM48.2,84h.1a.1.1,0,0,0-.1-.1Zm.1-5.8Zm.1-5Zm-.1,4c0,.1.1.1,0,0a.31.31,0,0,0,.2.1A.35.35,0,0,0,48.3,77.2Zm0,.8h.6a1.38,1.38,0,0,1-.4-.3C48.4,77.8,48.4,77.9,48.3,78Zm.3,1.6h0c-.1-.1-.1-.1-.2-.1C48.5,79.5,48.5,79.5,48.6,79.6Zm-.2,3.2h.2c-.1,0-.1-.1-.2,0Zm.1-2.6a.35.35,0,0,0,.1.2c0,.1.1.1.1.2a.37.37,0,0,0,.3-.1c.1,0,.1,0,.2.1l-.6-.6C48.6,80.1,48.5,80.1,48.5,80.2Zm.3,1.4v-.2h-.3C48.6,81.5,48.7,81.5,48.8,81.6ZM48.6,77h.1c0-.1,0-.1-.1,0Zm.1,5.2a1,1,0,0,0,.5-.4c-.1,0-.1,0-.2-.1a1.38,1.38,0,0,0-.4.3C48.6,82.1,48.6,82.1,48.7,82.2Zm0-9.8Zm0,.6Zm0,2.9h0l.1.1h0a.1.1,0,0,1,.1.1L49,76a.1.1,0,0,0-.1-.1Zm.1,4h0c.1-.2,0-.2,0-.3,0,.1-.1.1-.1.2A.1.1,0,0,0,48.8,79.9Zm-.1,2.5c.1.1.1.1.2.1a.1.1,0,0,1-.1-.1Zm.1-9.3.1.1a.1.1,0,0,1,.1-.1.1.1,0,0,0-.1-.1Zm0,2.8ZM48.7,84l.2.2.1-.1-.1-.1h0c0-.1,0-.1-.1-.1Zm.1-.7Zm.1-8.3H49a.1.1,0,0,0-.1-.1Zm.1-1.4a.1.1,0,0,0,.1-.1l-.2-.2v.1C49,73.5,49,73.5,49,73.6Zm0,8.2c0,.1-.1.1,0,0-.1.1-.1,0,0,0Zm0,1h0c0-.1,0-.1-.1-.1l-.1.1Zm0-8.1h.1l-.1-.1Zm0,2.7h0l.1.1h0l.1.1.1-.1a.44.44,0,0,0-.3-.1Zm0,.3c.1,0,.1.1,0,0h0Zm0,3.6.1.1a.1.1,0,0,1,.1-.1.1.1,0,0,0-.2,0Zm0,.3h.2a.1.1,0,0,0-.2,0Zm.2-8.6Zm0,4.4Zm0,.5h.1l-.1-.1C49.3,77.8,49.3,77.8,49.2,77.9Zm.2-4.1Zm-.1,1.1c0-.1.1-.1.1-.2h-.1Zm.1.5c-.1,0-.1.1,0,0Zm.3-2.5a.1.1,0,0,1,.1-.1h-.2Zm.1.4c.1.1.1.1.2.1v-.1Zm.1-.7H50a.1.1,0,0,0-.1-.1C50,72.5,50,72.5,49.9,72.6Zm.2-.2c.1-.1.1-.1.2-.1-.1-.1-.1-.2-.2-.3Zm.2.9h0v0Zm.3-2.5h.3c-.1-.1-.2-.1-.3-.2Zm0,1.9Zm.1-1.4h.1l-.1-.1Zm0,1.2h.1c0-.1,0-.1-.1,0Zm.3-2.1v-.2c-.1,0-.1.1-.2.1C50.9,70.3,50.9,70.4,51,70.4Zm-.1,2.2a.1.1,0,0,0,.1.1.1.1,0,0,1,.1-.1.1.1,0,0,0-.2,0Zm.1-1.9h.1a.1.1,0,0,0-.1-.1C51.1,70.7,51.1,70.7,51,70.7Zm.1-1.1h0c.1,0,.1,0,.2-.1C51.2,69.5,51.2,69.5,51.1,69.6Zm.3-.5h.1a.1.1,0,0,0-.1-.1Zm0,1c0,.1.1.1,0,0h.1a.1.1,0,0,0-.1-.1C51.5,70.1,51.4,70.1,51.4,70.1Zm.1.7a.37.37,0,0,0,.3-.1h-.1C51.6,70.8,51.6,70.8,51.5,70.8Zm.1.5Zm.2-1.2h.1l-.1-.1Zm0,1.1a.1.1,0,0,0,.1.1.1.1,0,0,1,.1-.1l-.1-.1C51.8,71.1,51.8,71.1,51.8,71.2Zm.2-1.6v0Zm0,1.5c.1,0,.1-.1,0,0v0Zm.1-2.1h.1v-.1C52.2,69,52.2,69,52.1,69Zm0,.7c.1.1.1.1.2.1s-.1-.1-.2-.1Zm.4-1.3Zm0,1.1h0c.1-.1,0-.1,0,0Zm.3-.6h0v0Zm.1.8Zm.1-1.1a.1.1,0,0,1-.1.1H53v-.1Zm.1.7c0-.2-.1-.3-.2-.3v.1C53,69.1,53,69.2,53.1,69.3ZM53,67.5c.1,0,.1.1,0,0h.1a.1.1,0,0,0-.1-.1C53.1,67.4,53.1,67.5,53,67.5Zm.2.4h.2c0-.1-.1-.1-.1-.2A.35.35,0,0,1,53.2,67.9Zm0,.7h0v.1c.1,0,.1,0,0-.1Zm.3-.6a.27.27,0,0,0,.3.3A.27.27,0,0,0,53.5,68Zm0,1.2h.1c0-.1-.1-.1-.1-.2Zm.4-.6h0c.1,0,.1,0,.1-.1S53.9,68.5,53.9,68.6Zm0,.4a1.27,1.27,0,0,0,.1.6v-.7Z"/><path class="cls-4" d="M63.4,77a10.87,10.87,0,0,0-.1,1.8v1.8a10.87,10.87,0,0,1-.1,1.8,4.67,4.67,0,0,1-.3,1.7c0,.1-.1.2-.1.4s-.2.3-.3.3l-4.1.3a1.76,1.76,0,0,1-.4-.5c.1-.9.2-1.9.3-2.8s.3-1.9.4-2.8c.5-4,1-8.1,1.4-12.1a4.33,4.33,0,0,0,.1-.5.27.27,0,0,1,.3-.3,2.2,2.2,0,0,0,.8-.1,4.55,4.55,0,0,1,.7.9c.4.5.8,1.1,1.3,1.8S64.4,70.2,65,71l1.8,2.4c.6.8,1.1,1.4,1.5,2s.8,1,1,1.3c.2-.4.5-1,.8-1.7s.6-1.5.9-2.3.6-1.7.9-2.6.6-1.7.9-2.5.5-1.5.8-2.1.5-1,.6-1.3a2.49,2.49,0,0,1,.8-.1q.3,0,.6.6c2.1,5.6,4.3,11.2,6.6,16.7l-.3.6c-1.4.3-2.7.6-4.1.8-.1,0-.1,0-.2-.1l-.2-.2c-.1-.1-.1-.2-.2-.2s-.1-.1-.1-.2-.2-.5-.4-.9a12.13,12.13,0,0,0-.5-1.4c-.2-.5-.3-1-.5-1.6s-.3-1-.5-1.5-.3-.9-.4-1.2a1.63,1.63,0,0,0-.3-.6,2.58,2.58,0,0,0-.7,1.1,18.88,18.88,0,0,0-.6,1.8l-.6,2.1a11.76,11.76,0,0,1-.7,2,8,8,0,0,1-.8,1.6,1.55,1.55,0,0,1-1,.7,1.86,1.86,0,0,1-1.1-.4,7.69,7.69,0,0,1-1.2-1.3,14,14,0,0,1-1.2-1.8c-.4-.7-.8-1.3-1.2-1.9s-.7-1.1-1-1.6a2.17,2.17,0,0,0-.9-.8A1.49,1.49,0,0,1,63.4,77Zm-4.2,6.4h.2l-.1-.1Zm.2,0Zm.7-.4a.52.52,0,0,0-.4.2C59.8,83.1,59.9,83.1,60.1,83Zm-.4-.8h.1c-.1-.1-.1-.1-.1-.2Zm.3.4h0c-.1.1,0,.1,0,.2v-.2Zm.1.6h.2c-.1,0-.2-.1-.2,0Zm.1-.6c.1,0,.1-.1.2-.1a.1.1,0,0,1-.1-.1c-.1,0-.1.1-.2.1ZM60,77.2a2.2,2.2,0,0,0-.1-.8,2.2,2.2,0,0,0,.1.8Zm.3,2.1c-.1,0-.1,0-.2.1h.2Zm-.1.8a.1.1,0,0,0,.1.1.1.1,0,0,1,.1-.1l-.1-.1Zm.2,3.6h.2l-.1-.1Zm-.6-9.4h.3c-.1,0-.1-.1-.2-.1Zm.7,8.9h0c.1.1.1,0,.1.1h0l.1.1a.1.1,0,0,1,.1-.1c-.1-.1-.2-.2-.3-.1Zm.1,0Zm.1-.9.1-.1-.1.1Zm-.2-3.4h.1c0-.1,0-.1-.1,0Zm.2,3h.2a.1.1,0,0,0-.1-.1ZM61,83h0a.22.22,0,0,0-.2-.2C60.9,82.9,60.9,83,61,83Zm-.2-2.5Zm0,.7h.1v-.1a.1.1,0,0,0-.1-.1Zm.1.6h0c.1-.1.2-.1.3-.2H61c-.1,0-.1.1-.1.2Zm.1,1.5c.1.1.2.1.3.2s.2.1.3.1v-.1c0-.1-.1-.2-.1-.3a.37.37,0,0,0-.3-.1Zm-.7-9.6h.1l-.1-.1Zm.5,5.5Zm.3,3.3c.2,0,.2-.1.2-.2h-.2Zm-.4-6.2Zm.2,1.5H61v-.2C61,77.7,61,77.8,60.9,77.8Zm.2,1,.2-.2a.31.31,0,0,0,.1-.2.37.37,0,0,0-.3.1c-.1,0-.1.1-.1.2S61.1,78.7,61.1,78.8Zm-.4-4.9h.1a.1.1,0,0,0-.1-.1Zm.6,8.9Zm.2.3c.1,0,.1-.1.1-.2-.1.1-.1.1-.1.2Zm.1-1.4c-.2,0-.2.1-.2.2A.22.22,0,0,0,61.6,81.7ZM61,75.3v0Zm0,.8h.1L61,76C61.1,76,61.1,76,61,76.1Zm.6,7.6c0,.1.1.1.2.1a.1.1,0,0,1,.1-.1l-.1-.1-.1-.1C61.7,83.7,61.6,83.7,61.6,83.7Zm.2,0h0c-.1.1,0,.1,0,0Zm-.6-11.3c-.1,0-.1,0-.2.1l-.1.1H61C61.1,72.5,61.2,72.5,61.2,72.4Zm-.1,1.8a.1.1,0,0,1,.1.1h0c0-.1,0-.1-.1-.1Zm.3,4.3Zm-.6-9.2Zm.4,5.5ZM61,71.9h0l.1-.1C61,71.8,61,71.8,61,71.9Zm0-.4h.1l-.1-.1Zm.2,2.5h.1c0-.1,0-.1-.1,0Zm-.4-5.6Zm0,.6a.1.1,0,0,0,.1-.1l-.1.1Zm.2.8c.1-.1.1-.2.2-.3h-.1l-.3.3A.14.14,0,0,1,61,69.8Zm.1.5V70H61C61,70.2,61,70.2,61.1,70.3Zm.5,8.5h.2v-.2h-.2Zm-.4-5.9h.1a.1.1,0,0,0-.1-.1Zm-.1-3.7a.1.1,0,0,0,.1-.1c-.1,0-.1-.1-.2-.1s0,.1.1.2Zm.1,1.9c.1-.1.2-.2.2-.3a.37.37,0,0,1,.1-.3c-.1,0-.1-.1-.2-.1a.37.37,0,0,1,.1-.3c-.1.2-.2.3-.3.5.1.1.1.2.2.3S61.2,71,61.2,71.1ZM61,68.7h.1s0-.1-.1,0Zm.5,5.8h.1s0-.1-.1,0Zm-.2-6.3c-.2,0-.2.1-.2.2v.1a.1.1,0,0,0,.1-.1C61.2,68.3,61.3,68.3,61.3,68.2Zm-.3-.4c.1,0,.1.1,0,0h.1a.1.1,0,0,0-.1-.1C61.1,67.8,61.1,67.8,61,67.8Zm.6,5.2Zm0-3c0-.1.1-.2.1-.3h-.3v.2C61.5,69.9,61.5,70,61.6,70Zm0,1.8v-.1h-.1A.1.1,0,0,1,61.6,71.8Zm.1.3c-.1,0-.1.1,0,0Zm-.3-2.8a.22.22,0,0,0,.2.2h0C61.6,69.3,61.5,69.3,61.4,69.3Zm.1,1.5h.1v-.2h-.1Zm.2,2.3h0l.1.1a1.7,1.7,0,0,0-.1-.7A.63.63,0,0,1,61.7,73.1Zm0-.6c0,.1.1.1,0,0v.2a.1.1,0,0,0,.2,0l-.2-.2h.1a.1.1,0,0,0-.1-.1C61.8,72.5,61.7,72.5,61.7,72.5Zm-.2-4.7h0c-.1.1,0,.1,0,.1v-.1Zm.1.1c-.1.1-.2.2-.2.3s.1,0,.1-.1S61.6,68,61.6,67.9Zm-.1.6h.1a.1.1,0,0,0-.1-.1Zm.4,1.4c-.1,0-.2.1-.3.1h.3v-.1Zm.4,8ZM62,74.4h0a.1.1,0,0,0,.1-.1H62Zm0-2.8c.1,0,.1-.1.2-.1s.1-.1.1-.2-.1-.1-.2-.2h-.3l.2.2Zm-.2-3.1-.1.1a.1.1,0,0,0,.1-.1Zm.1,1.9a2828342.55,2828342.55,0,0,1,.2-.2H62C61.9,70.3,61.9,70.3,61.9,70.4Zm0-2.1Zm.4.5c-.2,0-.3.1-.3.2a.6.6,0,0,0-.1.4c.2,0,.2-.1.4-.1-.1,0-.1-.1-.2-.1C62.2,69.1,62.2,69,62.3,68.8ZM62,70.7h0c.1-.1.1-.1.1-.2C62.1,70.6,62,70.6,62,70.7Zm.4.1c-.1,0-.2.1-.1.3h.2C62.5,70.9,62.4,70.9,62.4,70.8Zm.1,2.8h.1c-.1,0-.1-.1-.2-.1A.1.1,0,0,1,62.5,73.6Zm-.1-3.9c.1-.1.1-.2.2-.3h-.1C62.5,69.5,62.5,69.5,62.4,69.7Zm.5,4.9h.2l-.1-.1C62.9,74.5,62.9,74.5,62.9,74.6Zm-.3-4.5Zm.2,3a.1.1,0,0,1,.1.1v-.1l-.1-.1C62.9,73.1,62.9,73.1,62.8,73.1Zm0-1.4h0l.1-.1Zm.2,2h0c.1,0,.1,0,0-.1Zm-.2-3.8Zm.1,2.3h0v0Zm.1,1.1c.1,0,.1.1,0,0l.2.2a.37.37,0,0,1-.1-.3A.1.1,0,0,1,63,73.3Zm-.1-2.6h0v.2l.1.1v-.1a.1.1,0,0,0-.1-.1l.1-.1-.1-.1Zm.1.9a.1.1,0,0,1,.1.1v-.1a.1.1,0,0,0-.1-.1Zm.2,1.9Zm0-1.9h.2l-.1-.1A.1.1,0,0,0,63.2,71.6Zm.2,2.8h.2l-.1-.1C63.5,74.4,63.5,74.4,63.4,74.4Zm.1.3h0c.1.1.1.1.2.1-.1-.1-.1-.1-.1-.2A.1.1,0,0,0,63.5,74.7Zm.1-3.2c-.2,0-.4.1-.3.4C63.5,71.8,63.7,71.7,63.6,71.5Zm-.2-.1h0v.1c.1,0,.1,0,0-.1Zm.2,2.2h0c.1,0,.1,0,0-.1Zm.1,1.6a1.38,1.38,0,0,0,.3.4.37.37,0,0,0-.1-.3C63.9,75.2,63.8,75.1,63.7,75.2Zm-.3-3.9h.2l-.1-.1Zm.3,2.8h0Zm.2-.7h0c.1.1.1.1.1.2,0-.1-.1-.2-.1-.3Zm.1-1.3-.2.2.2-.2Zm0,.9.1-.1c-.1-.1-.1-.1-.1-.2C63.9,72.9,63.9,72.9,64,73Zm.2-.6Zm0,.7Zm.2.7h0c.1.1.1.1.2.1s0-.1-.1-.2A.1.1,0,0,0,64.4,73.8Zm.2.1v0Zm-.1-1.2h0a.52.52,0,0,0,.4-.2h-.2C64.6,72.6,64.6,72.7,64.5,72.7Zm.1.6c0,.1.1.1,0,0,.1.1.1.1.2.1s0-.1-.1-.2Zm.2,2.2h.1a.1.1,0,0,0-.1-.1C64.9,75.4,64.8,75.4,64.8,75.5Zm.1-1.2h0c-.1.1,0,.1,0,.1v-.1Zm.5,1.9a.1.1,0,0,1,.1.1v-.2Zm-.1-3.1h.1l-.1-.1C65.4,73,65.4,73,65.3,73.1Zm1,3.6c.1,0,.1.1,0,0h0Zm.2-.5Zm.4,2.3h0c.1.1.1,0,0,0Zm0-1.4Zm.1,1h0l.1.1h0a.1.1,0,1,0,0-.2c0,.1,0,.1-.1.1h.1L67,78Zm1,1.7a.27.27,0,0,0-.3.3A.27.27,0,0,0,68,79.8Zm-.2-1.9Zm.5.8h0l.1.1c0-.1,0-.1-.1-.2Zm.2-.1Zm.3,1.7c.1,0,.1-.1,0,0,.1-.1,0-.1,0,0Zm.1.8h.2c0-.1,0-.1-.2,0Zm.1.5h.4l-.2-.2c-.1,0-.1,0-.2.1Zm.1.5Zm-.4-4Zm.7,2.8a.35.35,0,0,0-.2.1c0,.1,0,.1-.1.2Q69.4,81,69.4,80.9Zm0,1h.2l-.1-.1Zm.3.8h.1s0-.1-.1,0Zm-.5-4.5h.1l-.1-.1Zm.4,1.4-.1.1a.35.35,0,0,0-.1.2C69.6,79.7,69.6,79.6,69.6,79.6Zm.2,2c.2,0,.3-.1.5-.2a.78.78,0,0,0,.4-.4c-.1-.1-.1-.1-.2-.1h-.2c-.1,0-.1,0-.2-.1s-.1-.1-.1-.2C69.9,81,69.9,81.2,69.8,81.6Zm-.4-3.1Zm.6.5.2-.2c-.1,0-.1-.1-.2-.1l-.2.2A.35.35,0,0,0,70,79Zm.2,2.1h0c-.1.1-.1,0-.1,0Zm-.3-2.9c-.1,0-.1,0-.2.1h.1Zm.2,2.3h.1l-.1-.1Zm.2.9h0c.1.1.1,0,0,0Zm.2.7h-.1c0,.1,0,.1.1,0Zm-.1-2h0l-.2-.2h0C70.3,80,70.3,80.1,70.4,80.1Zm0,1.5h0c.1,0,.1-.1,0,0Zm0-.9Zm.2,1.3h.2l-.1-.1C70.6,81.9,70.6,81.9,70.6,82Zm.2-.6h0c.1,0,.1-.1.2-.1-.1,0-.1,0-.1-.1C70.8,81.3,70.8,81.3,70.8,81.4Zm0-1.6h.1a.1.1,0,0,0-.1-.1Zm-.1-1.2h0v0Zm.4,2.2h.2l-.1-.1ZM71,79.1a.1.1,0,0,0-.1.1v.1h.3a3716.82,3716.82,0,0,0-.2-.2Zm.2-1.4q-.3.15-.3.3H71C71.1,77.9,71.2,77.8,71.2,77.7Zm-.4-1.4h.1a.1.1,0,0,0-.1-.1Zm.6,3.3Zm-.2-1.2h0c.1.1.1,0,.1,0a.1.1,0,0,0-.1-.1C71.3,78.4,71.2,78.4,71.2,78.4Zm0-.6c.1,0,.1.1,0,0h.1l-.1-.1C71.3,77.7,71.2,77.8,71.2,77.8Zm.1.8h.1l-.1-.1C71.4,78.6,71.4,78.6,71.3,78.6Zm-.1-2.8Zm.3,1.5h0c.1.1.1,0,.1.1h.1l.1-.1-.1-.1h-.1l-.1-.1Zm.3,1.5c0,.1,0,.1-.1.1.1,0,.2,0,.1-.1Zm-.2-1.5Zm0-.5h0v.1a.9.9,0,0,1,.1.5A1.08,1.08,0,0,0,71.6,76.8Zm.4.9h0c.1.1.1,0,.1,0a.1.1,0,0,0-.1-.1C72.1,77.6,72,77.6,72,77.7Zm0-1.5h0c0,.1,0,.1.1.2,0-.1,0-.1-.1-.2Zm.1-3.2v.2c0,.1,0,.1-.1.2,0-.1,0-.2.1-.2Zm0,.5Zm.3,2.3c.1,0,.1.1,0,0h.2a.1.1,0,1,0-.2,0Zm.3.5-.1.1a.1.1,0,0,1,.1.1Zm-.4-2.8h.1s-.1-.1-.1,0Zm0,.3h.1c0-.1,0-.1-.1,0Zm.3,1.7h.1a.1.1,0,0,0-.1-.1Zm-.1-2.6c-.1,0-.1.1-.1.2A.35.35,0,0,0,72.5,72.9Zm.1.7-.1.1a.1.1,0,0,1,.1.1Zm.4,1.8h0c0-.1-.1-.1,0,0C72.9,75.3,73,75.3,73,75.4Zm-.6-3.3c.1,0,.1.1,0,0h.2a.1.1,0,0,1-.1-.1C72.5,72.1,72.5,72.1,72.4,72.1Zm.7,3.7v.1l.1.1-.1-.1Zm-.4-3.5h.2a.1.1,0,0,1-.1-.1C72.7,72.2,72.7,72.2,72.7,72.3Zm.2,1.3h.2a.1.1,0,0,1-.1-.1C72.9,73.5,72.9,73.5,72.9,73.6Zm.3.7c-.1,0-.1.1-.1.2v.2a.35.35,0,0,0,.2-.1.37.37,0,0,0-.1-.3Zm-.4-2.4h0c.1,0,.1-.1,0,0C72.9,71.8,72.8,71.8,72.8,71.9Zm.3.7v.1h.1v-.1c0-.1,0-.1-.1-.2s-.1-.2-.2-.1c.1.1.1.2.2.3Zm.3,1.3c.1,0,.2-.1.3-.1v-.2C73.6,73.7,73.5,73.7,73.4,73.9Zm-.1-1.1Zm-.1-.7c.1,0,.1-.1.2-.1h-.2Zm0-.6h.1l-.2-.2A.35.35,0,0,1,73.2,71.5Zm-.1-1.1h0a1.38,1.38,0,0,0,.4-.3.1.1,0,0,1-.1-.1A1.38,1.38,0,0,1,73.1,70.4Zm1,2.4c-.1-.1-.2-.1-.3-.2v-.1c-.1.1-.2.1-.3.2A1.49,1.49,0,0,0,74.1,72.8Zm-.6-.5h.1a.1.1,0,0,0-.1-.1Zm-.2-1.4h0v0Zm.2.9c.1-.1.1-.2.2-.3s-.1-.1-.1-.2A.9.9,0,0,0,73.5,71.8Zm.1.5c.1.1.1.1.2.1h.3c-.2,0-.2-.1-.4-.1Zm.4,1.3h0c.1-.1.1-.2.2-.3-.1.1-.2.1-.3.2A.1.1,0,0,0,74,73.6ZM73.7,71h.1c0-.1,0-.1-.1,0,.1-.1,0-.1,0,0Zm.3-1.3a.22.22,0,0,1-.2.2c-.1.1-.1.1-.1.2h.1c.1-.1.2-.1.3-.2C74,69.9,74,69.8,74,69.7Zm0,1.1h0a.55.55,0,0,1,.2.5c-.1-.2-.1-.4-.2-.6Zm.2.5h0l.1-.1C74.2,71.2,74.2,71.2,74.2,71.3Zm-.2-2,.1-.1c-.1,0-.1-.1-.2-.1l-.1.1A.35.35,0,0,1,74,69.3Zm.1.9h0c0,.1,0,.1.1.2,0-.1,0-.1-.1-.2Zm.5,2.4h.1c-.1-.1-.1-.1-.1,0Zm-.1-.5c.1,0,.1.1.2.1s-.1-.1-.1-.2S74.5,72,74.5,72.1Zm.3,1.5h0c.1.1.1,0,0,0ZM74.5,71a.76.76,0,0,0,.4-.1l-.2-.2c.2,0,.3,0,.4-.1l-.4-.2a.32.32,0,0,0-.3.3C74.4,70.9,74.4,71,74.5,71Zm.1.7h0a.1.1,0,0,0-.1-.1h0A.1.1,0,0,1,74.6,71.7Zm-.5-3.1h.1l-.1-.1Zm.9,5.1v.1a.1.1,0,0,0,.1.1c.1.2.1.3.2.4A3.29,3.29,0,0,1,75,73.7Zm-.8-4.9Zm1.2-1.5h0c-.1,0-.1-.1,0,0a.77.77,0,0,0-.2-.3c-.1.1-.1.2-.2.3h-.1v-.2c-.1-.1-.2-.1-.4-.2,0,.1-.1.1-.1.2s.1.1.2.1a.22.22,0,0,1,.2.2c-.1-.1-.2-.1-.4-.2s-.2.1-.3.1a.37.37,0,0,0-.1.3h.1c.1,0,.1-.1.2-.1s.3.1.4.2l-.2.4h.1a.37.37,0,0,1,.3.1.76.76,0,0,0-.1-.4c0-.2,0-.3.2-.4v.2c.1.1.1.2.2.4h.1a.37.37,0,0,1,.1-.3.52.52,0,0,0,.2-.4h-.1a.1.1,0,0,0-.1-.1ZM74.5,70Zm1,3.5-.2-.2a.35.35,0,0,1-.2-.1v.2A.6.6,0,0,1,75.5,73.5Zm-1.1-4.1Zm.3-.1.2-.2-.2-.2c0-.1,0-.2.1-.2s.1-.1.1-.2-.1-.1-.2-.1c-.2.2-.2.4-.4.6A1.38,1.38,0,0,1,74.7,69.3Zm.4,2.8c.1-.1.1-.2.2-.3-.2,0-.3.1-.3.2S75,72.1,75.1,72.1Zm-.8-4.2h.1l-.1-.1Zm.9,5.1h.1s0-.1-.1,0c.1-.1,0-.1,0,0Zm-.8-4.6h.1c0-.1,0-.1-.1,0C74.5,68.3,74.4,68.3,74.4,68.4Zm.3,1.3Zm.7,2.5a.22.22,0,0,0-.2.2h.2Zm-.6-2.4h.1a.1.1,0,0,0-.1-.1Zm.1.6Zm-.6-3.6h0c.1,0,.1-.1,0,0Zm1.1,5.9h.1s0-.1-.1,0Zm-.7-5.2Zm1.2,7.3a.1.1,0,0,1,.1.1c0-.1,0-.1-.1-.1Zm-1.4-8.4.2-.2c-.1,0-.1-.1-.2-.1Zm.6,3.5c.1.1.1.1.2.1A.35.35,0,0,0,75.1,69.9Zm.3,1.6c0,.1.1.1.2.1h0C75.6,71.5,75.5,71.5,75.4,71.5Zm-.5-3.2H75c0-.1,0-.1-.1,0Zm.4,2.1h.2c0-.1-.1-.1-.1-.2A.35.35,0,0,0,75.3,70.4Zm.5,2.4h.1v-.3h-.1C75.7,72.7,75.7,72.7,75.8,72.8Zm.7,4.1.1.1v-.1a.1.1,0,0,0-.1-.1C76.6,76.9,76.6,76.9,76.5,76.9ZM74.6,65.8l.1-.1h-.2C74.6,65.7,74.6,65.7,74.6,65.8Zm.2.9a.37.37,0,0,1,.1-.3h-.1C74.7,66.6,74.8,66.6,74.8,66.7Zm.6,2.5a.37.37,0,0,0-.1.3h0C75.3,69.4,75.4,69.3,75.4,69.2Zm-.5-2.5v.1l.1.1-.1-.1C74.8,66.8,74.8,66.7,74.9,66.7Zm1.6,9.4h.1c0-.1,0-.1-.1,0Zm.4,2.2h0a1.08,1.08,0,0,0,.6-.1h-.6Zm-1-6.5h0c.1,0,.1,0,.2-.1h-.3Zm.5,3h.1l-.1-.1Zm.3,1.9h.1l-.1-.1ZM75.1,66.1c-.1.1-.2.1-.3.2a.37.37,0,0,0,.3-.1Zm.3,2.7h0c.1-.1.1-.2,0-.2a.1.1,0,0,0-.1.1l-.1.1C75.4,68.7,75.4,68.8,75.4,68.8Zm.8,4.8h.1a.1.1,0,0,1-.1-.1Zm.6,2.6v.1a.1.1,0,0,0,.1.1.1.1,0,0,1,.1-.1C76.9,76.3,76.9,76.3,76.8,76.2Zm-.9-5h0l.3-.3h-.1A.77.77,0,0,0,75.9,71.2Zm.1-1.5c-.1-.1-.1-.1-.1-.2l-.2.2Zm.2,3h0Zm.3,1.6Zm.5,3Zm-.3-1.9a.1.1,0,0,1,.1-.1h-.1Zm.4,1.6ZM76,70.2c-.1,0-.1.1-.1.2v.2h.2A.76.76,0,0,1,76,70.2Zm.5,2c-.1-.1-.1-.2-.2-.3l-.1.1C76.3,72.1,76.4,72.1,76.5,72.2Zm.1,1.9h0Zm-1.5-8.3h.1c0-.1,0-.1-.1,0Zm1.4,7.3Zm1.1,5.7Zm.5,2,.2-.2h0a.37.37,0,0,1-.3.1C78,80.8,78,80.8,78.1,80.8ZM75.6,68h.1a.1.1,0,0,0-.1-.1Zm1.9,10.3Zm-1.3-8.5c-.1,0-.1.1-.2.1a.37.37,0,0,0,.3.1A.31.31,0,0,0,76.2,69.8Zm.6,1.1c-.1,0-.2.1-.4.1s-.2.2-.1.3.3-.1.3-.2Zm-.1,2.7Zm.3,1.3Zm.6,3c.1,0,.1-.1.1-.2v-.2l-.2.2C77.5,77.9,77.6,77.9,77.6,77.9Zm-1.9-9.7c.1,0,.1.1,0,0h.1l-.1-.1ZM77.4,77h.1c0-.1,0-.1-.1,0Zm.3,2h.1l-.1-.1C77.8,78.9,77.8,79,77.7,79Zm0-3c-.1,0-.3.2-.4.3a.35.35,0,0,0,.2-.1C77.6,76.2,77.6,76.1,77.7,76Zm-1.1-3.6c.1.1.1.1.2.1v-.1l-.1-.1h0a.1.1,0,0,0-.1-.1Zm2.1,8.8c-.1-.1-.1-.1-.2-.1l-.1.1Zm-1.5-6.6Zm1.3,5.8a1.38,1.38,0,0,0,.3-.4.6.6,0,0,0,.1-.4.22.22,0,0,0-.2.2c-.1.1-.1.2-.2.2v-.1h-.2C78.3,80.1,78.4,80.2,78.5,80.4Zm-2.1-10Zm1.2,6h.1c0-.1-.1-.1-.1,0Zm-.7-3.6H77v-.3h-.1Zm1.5,6.5a.1.1,0,0,0-.1.1.1.1,0,0,0-.1.1v.1C78.4,79.5,78.4,79.4,78.4,79.3Zm-.5-1.8a.1.1,0,0,1,.1.1v-.1a.1.1,0,0,0-.1-.1Zm-.7-4c.1,0,.1-.1.2-.1-.1,0-.1,0-.2-.1Zm-.6-3h.1a.1.1,0,0,0-.1-.1C76.7,70.4,76.7,70.4,76.6,70.5Zm1,4.6c0,.1.1.1.2.1H78a.37.37,0,0,0-.1-.3C77.8,75,77.7,75.1,77.6,75.1Zm.8,3.9Zm.8,1.8h0a.78.78,0,0,0-.4-.4.1.1,0,0,1-.1.1C78.9,80.6,79,80.7,79.2,80.8Zm-1.1-3.5.1.1v-.1a.1.1,0,0,0-.1-.1C78.2,77.2,78.1,77.2,78.1,77.3ZM78,75.8v-.1l-.1.1Zm1.1,5.7h.1c-.1-.1-.1-.1-.1,0Zm-.5-2.8Zm-.1-1a.1.1,0,0,1,.1.1v-.1a.1.1,0,0,0-.1-.1Zm.7,3.4Zm-.9-5.8a.35.35,0,0,1-.2.1h.2Zm.2.8h0c-.1.1-.1,0,0,0Zm.7,3.8Zm-.3-1.7.1.1v-.1a.1.1,0,0,0-.1-.1C79,78.1,78.9,78.2,78.9,78.2Zm.6,2.2Zm-.5-3h0a.31.31,0,0,0,.2.1v-.1l-.1-.1h0l-.1-.1Zm.2,1.1Zm-.1-1.1Zm.2.6c-.1,0-.1.1,0,0v0Z"/><path class="cls-4" d="M88.2,68.5c2.1-.6,4.3-1.2,6.4-1.9.1.1.2.1.4.2.4,1.3.6,1.9,1.1,3.2l-.2.4c-2.2.7-4.4,1.4-6.6,2,.4,1.3.5,2,.9,3.3,2.6-.8,5.3-1.6,7.9-2.4a.76.76,0,0,1,.4.1c.2,0,.3.1.3.2l1,3a3.33,3.33,0,0,0-.3.6c-4.2,1.4-8.5,2.6-12.8,3.7-.2-.1-.3-.2-.5-.3-1.4-5.8-2.8-11.5-4.2-17.3.1-.2.1-.3.2-.5,3.8-1,7.5-2,11.2-3.3.2.1.3.2.5.3l1,3a.37.37,0,0,1-.1.3l-.3.3c-2.4.8-4.9,1.6-7.3,2.3A11.57,11.57,0,0,1,88.2,68.5Zm-1.8,8.6h.1a.1.1,0,0,1-.1-.1C86.5,77,86.5,77.1,86.4,77.1ZM83.8,66h0v0Zm.6,2.3h0l.1-.1h-.1Zm-.7-3.1h.1a.1.1,0,0,0-.1-.1Zm.2.9H84c0-.1,0-.1-.1,0Zm2.2,8.8h.1l-.1-.1Zm1,3.3.1-.1H87A.1.1,0,0,0,87.1,78.2ZM83.5,64c.1.1.1.1.2.1V64a.1.1,0,0,0-.1-.1c-.1,0-.1,0-.1-.1Zm0-.4a.1.1,0,0,0,0,.2.1.1,0,0,1-.1-.1C83.5,63.7,83.5,63.7,83.5,63.6Zm.1.4v0Zm.3,1.5H84c0-.1,0-.1-.1,0Zm1.7,6.6a.1.1,0,0,1,.1.1v-.1a.1.1,0,0,0-.1-.1Zm1.3,5.1a.1.1,0,0,1,.1.1v-.1l-.1-.1Zm.1.6a.1.1,0,0,1,.1.1v-.1l-.1-.1C87.1,77.7,87,77.7,87,77.8ZM86.6,76c.1,0,.1-.1.1-.2A.31.31,0,0,1,86.6,76Zm.7,2.6.3-.3c-.1-.1-.2-.1-.3-.2Zm-.4-2ZM83.8,64.2Zm1.5,6h0l.1-.1A.1.1,0,0,0,85.3,70.2Zm1.4,5.2v-.1h-.1Zm.8,3.4a.1.1,0,0,1,.1.1.1.1,0,0,1-.1-.1ZM83.6,63.6c.1,0,.1.1,0,0h.2a.14.14,0,0,0-.2,0Zm.4,1v.1l.1.1-.1-.1C83.9,64.7,83.9,64.7,84,64.6Zm.7,3.2h.2c-.1-.1-.1-.1-.2,0Zm1.1,3.9c0,.1-.1.1,0,0v0C85.7,71.8,85.8,71.8,85.8,71.7Zm.5,2.4h.2c-.1,0-.1,0-.1-.1S86.3,74,86.3,74.1ZM86,72.9c.1,0,.1-.1.2-.1h0C86.1,72.8,86.1,72.8,86,72.9Zm.6,1.7v-.2c-.1.1-.1.1-.2.1C86.5,74.5,86.6,74.5,86.6,74.6ZM86,72.5h.1v-.2A.31.31,0,0,0,86,72.5Zm.8,3.4c.1,0,.1,0,.1.1,0-.1,0-.1-.1-.2C86.9,75.8,86.9,75.8,86.8,75.9Zm.3,1h.1v-.2C87.1,76.8,87.1,76.8,87.1,76.9ZM83.8,63.7c.1.1.1.1.1.2.2,0,.3-.2.4-.4-.1.1-.2.1-.4.2,0-.1.1-.1.1-.2,0,.1,0,.1-.2.2Zm4,15ZM84.1,64.3v.1l.1.1-.1-.1Zm2.2,8.8v.1l.1.1-.1-.1Zm.6,2.4H87l-.1-.1Zm.8.7v.1c.2,0,.2-.1.2-.3s0-.3-.1-.4c-.2.1-.3.1-.4.3s-.2.3-.3.4l.3-.3v.1c.1.1.1.1.2.1a.1.1,0,0,0-.1-.1c.1.1.1.1.2.1Zm.1,2.9h.1l-.1-.1ZM84.5,65.7ZM87.3,77h0C87.4,76.9,87.3,76.9,87.3,77Zm.3.9h0Zm-2.5-9.6h.2c-.1,0-.1,0-.1-.1A.1.1,0,0,1,85.1,68.3Zm2.4,9.1h.2c-.1,0-.1,0-.1-.1S87.5,77.3,87.5,77.4Zm-3-12.7v-.2h-.2C84.3,64.6,84.4,64.6,84.5,64.7Zm2.6,11c.2-.1.3-.1.5-.2-.2.1-.3.1-.5.2Zm.7,2.4a.1.1,0,0,1-.1.1h0c.1,0,.1,0,.1-.1Zm-.3-1h.1v-.2A.31.31,0,0,0,87.5,77.1ZM86.2,72h0l.2.2C86.3,72.1,86.3,72,86.2,72Zm1.7,6.5c0,.1.1.1,0,0,.1,0,.1,0,.2-.1a.1.1,0,0,1-.1-.1A.35.35,0,0,1,87.9,78.5Zm-1.6-6.6ZM84.7,66h0Zm.4,1.5h.1a.1.1,0,0,0-.1-.1Zm.5,2h0c.3,0,.4-.1.6-.1-.2-.1-.3,0-.6.1C85.7,69.4,85.6,69.4,85.6,69.5Zm.2.6h0v0Zm2.3,8.8v.2c.1-.2.2-.3.3-.5-.1,0-.1-.1-.2-.1h-.1c0,.1.1.2.1.4S88.2,78.9,88.1,78.9Zm-2.2-10c-.1.1-.2.1-.3.2a.37.37,0,0,0,.3-.1Zm.3,2.2Zm.6,2.6c0-.1,0-.1.1-.2h-.1Zm.4,1.7h0c.1-.1,0-.1,0,0Zm.7,2.6c.1,0,.1-.1,0,0h0C88,77.9,87.9,77.9,87.9,78ZM84.3,63.9h.8c.1,0,.2-.1.3-.2s.1-.2.2-.3c-.1,0-.1,0-.2-.1a.37.37,0,0,0,.3-.1l-.2-.2c-.1,0-.2.1-.2.3s-.1.3-.2.3a.37.37,0,0,0,.1-.3c-.1.1-.1.1-.2.1s-.1-.2-.1-.4a.35.35,0,0,0,.2-.1.14.14,0,0,0,0-.2c-.1,0-.1.1-.2.2l-.3.3c-.1.1-.2.2-.2.3C84.4,63.8,84.4,63.8,84.3,63.9Zm.5,1.4c0,.1,0,.1-.1.2.1,0,.2-.1.1-.2Zm0,.4h.1c-.1,0-.1-.1-.2-.1Zm-.2-1.1h.1v-.2C84.6,64.5,84.6,64.5,84.6,64.6ZM87,73.7ZM84.3,63.2c.1.1.1.1.2.1h.1A.37.37,0,0,1,84.3,63.2Zm1.8,6.7h0v0ZM87.6,75v.3c0,.1-.1.2-.1.3.1-.1.2-.1.2-.3a.37.37,0,0,0-.1-.3Zm0,.8c.1.1.1.1.1.2h-.1Zm.7,2.5a.37.37,0,0,1,.1-.3.1.1,0,0,0-.1-.1c0,.1-.1.1-.1.2s.1,0,.1.1c-.1-.1-.1,0,0,.1C88.2,78.2,88.2,78.3,88.3,78.3Zm-3.7-14Zm.5,1.4Zm.1-.3-.2.2h.1c.1,0,.1,0,0-.1S85.1,65.4,85.2,65.4Zm1.4,6.1Zm.5,2.4c0-.1,0-.1.1-.2h-.1Zm-1.8-7.4Zm1.5,4.6c-.1.1-.2.1-.3.2h.4l-.1-.1Zm-.1.9h.2c-.1,0-.1,0-.1-.1S86.7,71.9,86.7,72Zm1.8,6.7v.1l.1.1-.1-.1Zm0,.5h.2c-.1,0-.1,0-.1-.1Zm-1.8-8.5-.2.2c-.1.1-.1.1-.1.2v.1c.2-.3.3-.3.3-.5ZM85,65c.1,0,.1,0,.1.1,0-.1,0-.1-.1-.2Zm.5,2.2c.1,0,.1,0,.1.1,0-.1,0-.1-.1-.2C85.6,67.1,85.5,67.1,85.5,67.2Zm.6,1.8-.1.1h.1Zm.2,1.1h.1v-.2Zm.2.4-.1.1h.1Zm.3,1-.1.1h.1ZM88.9,78c-.2.1-.3.2-.5.3a1.27,1.27,0,0,0,.6-.1.1.1,0,0,1-.1-.1Zm-3-9.6Zm2.7,10h0v.1s.1,0,0-.1C88.7,78.5,88.6,78.5,88.6,78.4ZM85,64.7Zm.3,1.2h.1a.1.1,0,0,0-.1-.1Zm1.9,7.2h.1V73Zm0,.3h.1c0-.1,0-.1-.1,0Zm1,3.6h.1s0-.1-.1,0Zm.2,1,.1.1a.1.1,0,0,0,.1.1c-.1-.1-.1-.2-.2-.3C88.5,77.9,88.5,77.9,88.4,78Zm-.5-2.5.2-.2H88C87.9,75.4,87.9,75.4,87.9,75.5Zm.8.6c-.2.1-.4.1-.6.2a1.42,1.42,0,0,1,.6-.2Zm.1,1.7a.1.1,0,1,0,0-.2.37.37,0,0,0-.3.1C88.6,77.7,88.6,77.7,88.8,77.8Zm-.1,1a.1.1,0,0,0,.1-.1h0l-.1-.1C88.8,78.7,88.7,78.7,88.7,78.8Zm-3.6-14h.2c-.1,0-.1,0-.1-.1A.1.1,0,0,0,85.1,64.8Zm1,3.9h.2c-.1,0-.1,0-.1-.1A.1.1,0,0,0,86.1,68.7Zm1.6,5.4a.44.44,0,0,0-.1.3C87.7,74.2,87.7,74.2,87.7,74.1Zm-.5-1.3Zm.2.7h0c.1-.1,0-.1,0,0Zm-.3-1.3c.1-.1.2-.1.3-.2-.1,0-.1-.1-.2-.1s-.1.2-.1.3Zm.5,1.9c.1,0,.1,0,.2-.1s-.1-.1-.2-.1Zm.2.6c.1-.1.1-.1.1-.2s0-.2.1-.2h0C87.8,74.4,87.8,74.5,87.8,74.7ZM85.1,64l-.1.1h.1Zm2.7,10.8h.1v-.2C87.9,74.7,87.8,74.7,87.8,74.8Zm-2.1-10-.2.2a.37.37,0,0,0-.1.3h0C85.5,65.1,85.6,65,85.7,64.8Zm2.5,10.8Zm-3-11.4Zm.3,1.3h.1a.1.1,0,0,0-.1-.1Zm.8,3.2Zm.2.8h.1a.1.1,0,0,0-.1-.1C86.6,69.5,86.6,69.5,86.5,69.5Zm2,7.2a.1.1,0,0,1-.1.1h0c.1-.1.2-.1.1-.1Zm.3,1.3h.1c0-.1-.1-.1-.1,0Zm.4.3c-.2.2-.2.3-.2.4h.1a.22.22,0,0,0,.2-.2C89.2,78.5,89.2,78.4,89.2,78.3ZM85.3,63.7l-.1.1-.1-.1v-.1C85.2,63.7,85.2,63.7,85.3,63.7Zm.2.5a.22.22,0,0,0-.2.2l.1-.1C85.5,64.4,85.5,64.3,85.5,64.2Zm-.1.6h.1v-.1A.1.1,0,0,1,85.4,64.8Zm2.3,8.4h.1v-.1C87.7,73.1,87.7,73.1,87.7,73.2Zm2.5,4.6h0v-.1l-.3.3a.6.6,0,0,0-.1.4h-.1a.76.76,0,0,1,.1-.4.22.22,0,0,1-.2.2l-.2.2h.1c0,.1-.1.3-.2.3s-.2.2-.1.3a.37.37,0,0,0,.3-.1v-.2c.1,0,.1,0,.1-.1l.2.2c.2,0,.2-.1.2-.3s0-.2.1-.2.3.2.5.3c.1-.1.2-.2.3-.2s.2-.2.3-.2a.9.9,0,0,1-.5-.1c-.1,0-.1.1-.2.1l.4-.4h.2c0-.1,0-.2.1-.2s.1-.1.2-.1.1-.1.2-.1.1-.1.1-.2h0c-.1,0-.1,0-.1-.1h0l.1-.1c-.2.1-.4.1-.4.2s-.1.2,0,.4H91v.1l-.1-.1h-.2l-.3.3c-.1,0-.1-.1-.2-.1.1-.1.1-.1.1-.2h.1l.1-.1C90.3,77.8,90.3,77.8,90.2,77.8ZM87,70.5c.1,0,.1.1.2.1v-.2a.1.1,0,0,1-.1-.1A.31.31,0,0,0,87,70.5Zm.4,1.2a.1.1,0,0,1-.1.1h0A.1.1,0,0,0,87.4,71.7Zm0,.5h.1v-.1l-.1-.1C87.5,72.2,87.5,72.2,87.4,72.2Zm.9,3.3c.1,0,.1,0,.1.1v-.1l-.1-.1C88.4,75.4,88.3,75.4,88.3,75.5Zm.6,2.3H89v-.1l-.1-.1C89,77.8,89,77.8,88.9,77.8Zm.4,1.6h.1v-.1l-.1-.1C89.4,79.3,89.4,79.3,89.3,79.4ZM86.7,69.3h0a.77.77,0,0,0,.3-.2A.77.77,0,0,1,86.7,69.3Zm-1-5.3c0-.1,0-.1-.1-.2a.37.37,0,0,0-.3.1A.6.6,0,0,1,85.7,64Zm1.6,7.3h0l.1-.1h-.1Zm.4,1.3Zm-2.5-9.4Zm1.9,7.2v0Zm.3,1h0c.2,0,.2,0,.3-.1-.1,0-.1,0-.3.1Zm.3.7a.37.37,0,0,0-.1-.3h-.1C87.6,71.9,87.6,72,87.7,72.1Zm.8,3.4Zm.8,1.7a.52.52,0,0,0-.2.4c0-.1.1-.1.1-.2S89.3,77.3,89.3,77.2Zm0,1c.1-.1.2-.2.2-.3v-.3a1.07,1.07,0,0,0-.2.6Zm.2,1h.2c-.1,0-.1,0-.1-.1S89.5,79.1,89.5,79.2Zm-1.4-5.8Zm.2,1.1c.1-.2.1-.3.2-.4h0C88.4,74.3,88.4,74.4,88.3,74.5Zm-1-4.1h.1v-.1l-.1-.1Zm1.9,7.2h.1v-.1l-.1-.1ZM85.4,63.1a.1.1,0,0,1,.1-.1h-.2C85.4,63,85.4,63,85.4,63.1Zm.8-.6c-.3.2-.5.2-.8.4.3-.1.5-.2.8-.3Zm1,7Zm.7,2.7h0a.37.37,0,0,0,.3-.1.37.37,0,0,0-.3.1Zm1.2,4.7h0c.1,0,.1,0,0-.1C89.2,76.8,89.2,76.8,89.1,76.9Zm-1.6-6.4c.1.1.2.1.4.1,0-.1-.1-.1-.2-.1A.14.14,0,0,0,87.5,70.5Zm.1.5h0a1.07,1.07,0,0,0,.6-.2h-.5C87.6,70.9,87.6,70.9,87.6,71Zm.2.5c.1-.2.2-.3.3-.5H88C87.9,71.2,87.8,71.3,87.8,71.5Zm.4,1.6h.2c-.1,0-.1-.1-.2,0Zm.9,3.5c0-.1,0-.1.1-.2l-.1-.1Zm.3.8v0Zm0-.6-.1.1V77C89.3,76.9,89.4,76.9,89.4,76.8Zm.3,1.8v-.1c.2-.1.2-.2.4-.3a.86.86,0,0,1-.3.6c0-.1.1-.1.1-.2Zm-2.2-8.3h.1v-.1l-.1-.1C87.6,70.2,87.6,70.2,87.5,70.3Zm.4,1.3H88v-.1l-.1-.1ZM86,64.4Zm3.6,12.9Zm-2.9-13h0c.1-.1.1-.2.1-.4-.1,0-.1.1-.2.1h-.2v-.1c-.1.1-.1.1-.1.2l-.2-.2.2-.2h.1a.1.1,0,0,1-.1-.1v-.3c.1,0,.1,0,.2.1.1-.1.1-.2.1-.4a.6.6,0,0,1,.1-.4c-.2.1-.4.1-.4.2s-.1.2-.3.3l.1.1v.2H86v-.2c-.1.1-.1.1-.2.1a.1.1,0,0,0,.1.1v.2c0,.1,0,.2.1.2l.3.3.1-.1c.1.2.2.2.3.3,0-.1,0-.1.1-.2A.31.31,0,0,1,86.7,64.3Zm1.4,7.3Zm1.7,5.9ZM86.3,64.9Zm-.5-2c.2,0,.3-.1.4-.1h-.5C85.8,62.8,85.8,62.8,85.8,62.9Zm2.5,7.2c-.1.1-.2.1-.2.2a.37.37,0,0,0-.1.3l.1.1A4.17,4.17,0,0,0,88.3,70.1Zm2.1,8.7Zm-2.2-7.5h0c.1,0,.1-.1,0,0ZM88,70h.2c-.1,0-.1,0-.1-.1S88,69.9,88,70Zm.2.6v.1l.1.1-.1-.1Zm1.7,6.6h.2c-.1,0-.1,0-.1-.1A.1.1,0,0,0,89.9,77.2Zm.5,1.7h.2c-.1,0-.1,0-.1-.1Zm-.5-2,.2-.2h-.3C89.9,76.7,89.9,76.8,89.9,76.9Zm.2.7a.1.1,0,0,0,.1-.1.1.1,0,0,0-.1.1Zm-2.3-8.3h.1v-.1l-.1-.1C87.9,69.2,87.9,69.2,87.8,69.3Zm2.4,8.6Zm-1.8-7.2a.1.1,0,0,1-.1.1h0c.1,0,.2-.1.1-.1Zm1.8,6.2Zm-1.9-6.6Zm.1.5Zm2,6.4-.1.1h-.1v.1c.2-.1.3-.2.2-.2a1.38,1.38,0,0,1,.3-.4c-.1,0-.1,0-.2-.1a1.38,1.38,0,0,0-.3.4h0C90.3,77.1,90.4,77.1,90.4,77.2ZM86.4,63Zm4.3,15-.1.1-.1-.1v-.1C90.6,78,90.6,78,90.7,78Zm-1.9-7c0,.1-.1.2-.1.3l.2-.2C88.8,71.1,88.8,71.1,88.8,71Zm2.3,6.2v-.1a.1.1,0,0,0-.1.1.76.76,0,0,0,.2-.4c0-.2.1-.3.1-.5-.4.4-.5.7-.9,1.1a.37.37,0,0,1,.3.1c.1-.1.2-.1.3-.2h.1C91,77.3,91,77.3,91.1,77.2Zm-.2,1.2c-.1,0-.1,0-.2.1,0-.1.1-.1.2-.1ZM90,70.5a.6.6,0,0,1,.1-.4A.1.1,0,0,1,90,70v-.2h-.1a.1.1,0,0,1,.1-.1h-.1c-.1.1-.2.1-.3.2h-.4c0-.2-.1-.3-.1-.4s-.1.1-.2.2v.6a.22.22,0,0,1-.2.2c.1,0,.1.1.2.1a6.12,6.12,0,0,1,.4-.6c.1,0,.1,0,.2-.1V70h.4c.2,0,.2.1.3.2l-.1.1Zm-3.1-6.8a.22.22,0,0,0,.2.2c0-.1,0-.1-.1-.2S86.9,63.6,86.9,63.7Zm2,7.1h0v.1c.1,0,.1,0,0-.1Zm-2-7.4a.1.1,0,0,1,.1.1v-.3C86.9,63.3,86.9,63.3,86.9,63.4Zm0-.2Zm4.3,15.5h0l.1-.1c-.1,0-.1,0-.1.1ZM86.9,62.8Zm.2.7h0l-.1-.1Zm.1.5v0h.2v-.1c-.1-.1-.1-.1-.2-.1Zm1.9,6.8h.1a.1.1,0,0,1-.1-.1Zm2.1,6.7ZM87.3,62.9h0c0-.1-.1-.1-.2-.1s0,.1-.1.1Zm1.9,7.7a.9.9,0,0,1,.5-.1.9.9,0,0,0-.5.1ZM91.3,78c0,.1.2.1.4.1h.5c.1-.1.1-.1.2-.1-.2-.1-.3-.1-.5-.2-.1.1-.2.1-.3.2-.1-.1-.1-.1-.1-.2C91.5,77.9,91.4,77.9,91.3,78Zm-1.6-6.9c-.1.1-.1.1-.2.1a.35.35,0,0,1,.2-.1Zm1.8,7.4h0c0,.1.1.1,0,0,.1.1.1,0,.1,0ZM87.6,64Zm-.1-.4h0v.1s.1-.1,0-.1Zm0-.3c0-.1.1-.2.1-.3s-.1-.1-.2-.1a.6.6,0,0,1-.1.4Zm.1.6h.1a.1.1,0,0,0-.1-.1Zm4.1,14.5a.1.1,0,0,0,.1.1.1.1,0,0,1,.1-.1h-.1l-.1-.1Zm.1,0Zm-2.1-7.7-.1.1v.1c.1-.1.1-.1.1-.2ZM91.6,77c.1,0,.2-.1.3-.1-.1-.2-.2-.2-.4-.2l-.2.2c.1,0,.1,0,.2-.1C91.6,76.9,91.6,76.9,91.6,77Zm-.2-.4a.1.1,0,0,1,.1.1v-.1l-.1-.1Zm-3.9-14h0c.1-.1,0-.1,0,0Zm4.6,14.7a.35.35,0,0,0-.2.1c-.1.1-.1.1-.1.2.2,0,.2-.1.4-.1C92.1,77.4,92.1,77.4,92.1,77.3ZM92,78.5h.1l-.1-.1C92.1,78.4,92,78.4,92,78.5ZM87.7,62.8Zm2.2,7.9H90c0-.1,0-.1-.1,0Zm.2.3Zm1.7,6.1c.1,0,.1-.1.2-.1C91.9,77,91.9,77.1,91.8,77.1ZM87.9,63.4a.1.1,0,0,1,.1.1v-.1a.1.1,0,0,0-.1-.1Zm0-.7c-.1,0-.1.1-.1.2h0C87.9,62.9,87.9,62.8,87.9,62.7Zm-.2-.4h0a.1.1,0,0,0,.1-.1A.1.1,0,0,1,87.7,62.3Zm.2.7H88s0-.1-.1,0Zm.3.6h0c.2,0,.2,0,.3-.1h-.2A.1.1,0,0,0,88.2,63.6Zm2.4,6.9h0c-.1-.1-.2-.1-.4-.1h0C90.3,70.5,90.4,70.5,90.6,70.5ZM88,62.8a.1.1,0,0,1,.1.1h.1c0-.1-.1-.1-.1-.2A.1.1,0,0,1,88,62.8ZM92.1,77h0c.1.1.1.1.1.2a.1.1,0,0,1,.1.1v-.1l-.1-.1V77l-.1-.1C92.2,77,92.2,77,92.1,77ZM88,62.3h.1a.1.1,0,0,0-.1-.1Zm.1.2ZM90.6,70c-.1.1-.2.1-.3.2h.4l-.1-.1Zm2,8.2Zm1.2-.9c.1-.1.1-.2.2-.3a1.76,1.76,0,0,1-.5.4c-.1,0-.2,0-.2-.1L93,77c-.1-.1-.2-.2-.2-.3a.31.31,0,0,1-.1-.2h0v-.2a1.38,1.38,0,0,1-.4.3l.2.2c.1-.1.1-.1.2-.1s.1.2.2.3.1.2.2.3c-.2,0-.3.1-.3.2v.4c0,.1,0,.1-.1.1l.5-.5a1.38,1.38,0,0,1,.3.4.37.37,0,0,1,.1-.3c0-.2.1-.3.2-.3ZM88.5,63.6h.1a.1.1,0,0,1-.1-.1ZM92.4,77v.1l.1.1-.1-.1Zm-2.1-7.2h0a.1.1,0,0,0,.1-.1v-.2C90.4,69.7,90.4,69.7,90.3,69.8Zm-1.9-7.4a.1.1,0,0,1-.1.1h0c.1,0,.1,0,.1-.1ZM92.9,78ZM88.5,62.8c.1-.1.1-.1.1-.2s-.1-.1-.2-.1A.37.37,0,0,1,88.5,62.8Zm4.4,14.8a.1.1,0,0,1-.1.1c0-.1,0-.1.1-.1ZM88.6,62.9h.1a.1.1,0,0,1-.1-.1Zm.2.7c.1,0,.1,0,.2-.1a.1.1,0,0,1-.1-.1C88.9,63.5,88.8,63.5,88.8,63.6Zm2,6.7h0c.1,0,.1-.1,0,0Zm-.1-.5h0c.2,0,.2-.1.2-.2S90.8,69.7,90.7,69.8Zm-2-7.4h.1a.1.1,0,0,1-.1-.1Zm4.2,14.2c.1,0,.1-.1.2-.1s.1-.1.1-.2h.2c-.1,0-.2-.1-.3-.1S93,76.4,92.9,76.6Zm-3.7-13Zm-.5-1.4a.1.1,0,0,1,.1.1v-.1l-.1-.1C88.8,62.2,88.7,62.2,88.7,62.2ZM93,76.8a.1.1,0,0,1,.1.1v-.1l-.1-.1C93.1,76.7,93,76.7,93,76.8ZM89.3,62.7c.1,0,.1.1.2.1s.1-.2.1-.3-.1-.1-.2-.1,0-.1.1-.2h-.2a3.33,3.33,0,0,0-.3.6l.2-.2h.2C89.3,62.6,89.3,62.6,89.3,62.7Zm.1,1.1Zm3.8,13.1h0c.1,0,.2-.1.1-.2C93.2,76.8,93.2,76.8,93.2,76.9ZM89.1,62.8c.1-.1.1-.1.2-.1h-.1C89.1,62.7,89.1,62.7,89.1,62.8Zm4.4,14.3v-.3a.31.31,0,0,0-.2.1.1.1,0,0,0-.1.1c.1,0,.1,0,.2-.1A.31.31,0,0,1,93.5,77.1ZM89.3,63.6c.1,0,.1.1,0,0h.1a.1.1,0,0,1-.1-.1C89.4,63.6,89.4,63.6,89.3,63.6ZM91.2,70Zm2.4,7.6a.1.1,0,0,1,.1.1c.1-.1.1-.1.2-.1h-.3Zm.2.1a.1.1,0,0,1-.1.1h0a.1.1,0,0,0,.1-.1ZM91.6,70c.1-.1.1-.2.2-.3a.19.19,0,0,0,0-.3c-.1,0-.1-.1-.2-.1v.2c0,.1.1.1.1.2a.9.9,0,0,0-.5.1C91.4,69.9,91.5,69.9,91.6,70Zm-2.2-6.8Zm2.2,7.2h.1l-.1-.1ZM94,76.8h0c.1,0,.1,0,.2-.1-.1-.1-.1-.1-.1-.2s.1-.2.1-.4h-.1c0-.1,0-.1-.1-.2a1.33,1.33,0,0,1-.5.6.76.76,0,0,1,.4.1C93.9,76.7,93.9,76.8,94,76.8ZM89.6,63.5h.1a.1.1,0,0,1-.1-.1Zm3.8,12.7c.1.1.1.1.2.1v-.1l-.1-.1h-.1Zm.8,1.3c0-.1,0-.1.1-.2h-.1c-.1.1-.2.1-.3.2ZM89.1,61.7h0c.1.1.1.1,0,.2a.1.1,0,0,1,.1.1v-.1l-.1-.1v-.1l-.1-.1C89.2,61.6,89.2,61.6,89.1,61.7Zm2.3,7.5a.1.1,0,0,1,.1.1c.1-.1.1-.1.2-.1h-.2C91.4,69.1,91.4,69.1,91.4,69.2Zm2.1,7v0ZM89.8,63.1h.1a.1.1,0,0,1-.1-.1Zm-.3-1.2a.1.1,0,0,1,.1.1v-.1l-.1-.1ZM94.1,77h.1v-.1l-.1-.1ZM89.7,62Zm.3,1h.1a.1.1,0,0,0,.1-.1H90Zm1.8,5.9h.1a.1.1,0,0,1-.1-.1Zm.2.4v.1l.1.1-.1-.1Zm1.9,6.6H94a.1.1,0,0,1-.1-.1Zm.6,1.4Zm.1.1a.35.35,0,0,0,.2.1.1.1,0,0,1,.1-.1c-.1,0-.1-.1-.2-.1Zm-2.3-8.2Zm.1.5h.1c0-.1-.1-.1-.1,0Zm2.3,7.7v0Zm-4.5-15Zm4.5,13.9v-.2c0-.1-.1-.1-.1-.2s-.1-.1-.2,0,.1.2.1.3A.31.31,0,0,1,94.7,76.3ZM90.2,62h0c.3,0,.3-.1.5-.2-.1.1-.2.1-.5.2Zm.6.6c-.1.1-.2.1-.3.2h.3v-.2C90.7,62.7,90.8,62.7,90.8,62.6Zm1.6,6.5c0,.1.1.1,0,0h0ZM95,77.4h.1a.1.1,0,0,1-.1-.1C95.1,77.3,95,77.3,95,77.4Zm-2.4-8.2ZM95,76.5h0a.37.37,0,0,0,.1-.3A.37.37,0,0,0,95,76.5ZM90.6,61.9Zm0,.4ZM92.7,69h.1l-.1-.1Zm2.2,7.1H95l-.1-.1Zm.3-.1c-.1.1-.2.1-.3.2h.4c-.1,0-.1-.1-.1-.2Zm.5.2c-.3.1-.4.2-.7.3a2.12,2.12,0,0,1,.7-.3Zm-.5.6.1-.1-.1.1ZM90.7,62.2a.1.1,0,0,1,.1.1h0l.1.1v-.1a.35.35,0,0,0-.2-.1Zm.3.7a.1.1,0,0,1,.1.1v-.1l-.1-.1Zm2,6.7a.1.1,0,0,1,.1.1c.2-.1.3-.1.5-.2h-.5A.1.1,0,0,1,93,69.6Zm-2.1-7.5ZM91,62a.35.35,0,0,1,.2.1l-.2-.2Zm2.2,6.9h.1c0-.1,0-.1-.1,0Zm2.6,7.7a.1.1,0,0,1-.1.1h0a.1.1,0,0,0,.1-.1ZM91.2,62Zm.2.7h0c.1.1.1.1.1.2l.1.1v-.1l-.1-.1v-.1a.1.1,0,0,1-.1-.1Zm2.1,6.6h.1a.1.1,0,0,1-.1-.1Zm-2.4-7.9a.1.1,0,0,1,.1.1v-.1l-.1-.1Zm.3,1a.1.1,0,0,1,.1.1v-.1l-.1-.1Zm4.4,14h.1v-.1a.1.1,0,0,1-.1-.1ZM91.5,62.2h.1c0-.1,0-.1-.1,0Zm-.1-.7a.1.1,0,0,1,.1.1c.1-.1.1-.1.2-.1h-.2C91.4,61.4,91.4,61.5,91.4,61.5Zm.1.3a.1.1,0,0,1,.1.1v-.1l-.1-.1Zm.2.7a.1.1,0,0,1,.1.1v-.1l-.1-.1C91.8,62.5,91.7,62.5,91.7,62.5Zm2.2,7H94v-.1l-.1-.1C94,69.4,94,69.5,93.9,69.5Zm-2.2-7.4h.1l-.1-.1ZM93.9,69Zm2.5,7.7Zm-2.3-7.3h.1a.1.1,0,0,1-.1-.1ZM96.2,76h0v0ZM92,62.4a.1.1,0,0,1,.1.1v-.1l-.1-.1Zm4.5,14.1h.1v-.1a.1.1,0,0,1-.1-.1Zm.1.3Zm-2.5-8.3h.1a.1.1,0,0,1-.1-.1C94.2,68.4,94.1,68.5,94.1,68.5Zm2.4,7.2h.1s-.1-.1-.1,0Zm.5.9a.1.1,0,0,1,.1-.1c-.1,0-.1,0-.1.1Zm.2-1.2-.2.2.1-.1Zm-4.5-13h.1c0-.1-.1-.1-.1,0Zm.2.4H93a.1.1,0,0,1-.1-.1Zm-.4-1.5a.1.1,0,0,1,.1.1v-.1l-.1-.1ZM97,74.8h.1a.1.1,0,0,1-.1-.1ZM93.2,62.4c-.1.1-.1.1-.1.2h.1v-.2Zm4.3,13.5h0c.1,0,.1,0,.2-.1-.1.1-.1.1-.2.1ZM92.8,61.4h.1c0-.1,0-.1-.1-.2C92.9,61.3,92.9,61.4,92.8,61.4Zm0-.4Zm5.1,15h0c.2-.1.2-.1.2-.2Zm.1-.3h.1a.1.1,0,0,1-.1-.1Zm.1.4h.1a.1.1,0,0,1-.1-.1Zm.1-.7h.1a.1.1,0,0,1-.1-.1Z"/><path class="cls-1" d="M69,14.5l1.4-7.2S64,4.7,63.6,4.7s-8.5,5.5-8.5,5.5l3.7-.2-.1,3.7,10.7,8.5L56.2,17.6,39.4,26.8l.4,2,11.7,5.8,1.1,4.6s2,7.2,2.3,7.2c.5,0,6.9-13.2,6.9-13.2L72,30.4l2.6-9.2Zm-1.7-1.1-.2-.1v-.2h.3ZM43.2,28.8l-.1-.1.1-.2.2.1Zm2-.7-.2.1-.3-.1.1-.2.1-.1.2-.1.2.2Zm.5,2-.2-.2v-.3l.2.1.1.2Zm1.7,1.4-.2-.2-.1-.3h.2l.1.2Zm.5-.4-.2-.1.1-.2.2.1Zm1.5-4.5-.2-.1.1-.3.1.2Zm1.1-1-.2.1-.1-.4.1-.2.2.1.1.2Zm11.6-2.1-.2.1-.1-.2.1-.2.2.1Zm1.3,7.8-.2.1-.1-.2.1-.2.2.1Z"/><path class="cls-5" d="M9.2,13.6h0l-.1.3L9,13.8l-3.2,3L11.4,23l3-2.1.1-.2h.1l2.2-1.5-6-7.2Zm.3,4-.2-.2-.1-.2h.2l.1.2Zm.3-1.9H9.6l-.1-.2.1-.2h.2l.2.1Z"/><path class="cls-5" d="M87.3,15l.1-.1h0l-1.7-3.5L74.1,8.9H74l-.1-.1L70.2,8l-1.6,6.3,4.3,5,7.3-1.9,2.7-3.3,4.4.9Zm-18.5-.4-.1-.1.1-.2.2.2Zm3.7.6-.2-.2v-.3l.1-.2.3.1Zm1.6-1.9-.2-.1L74,13l.2.1Zm1.1,4-.1-.1.1-.1.1.1Zm.1-6.8-.2-.1.1-.2.2.1Zm.8,6.2-.2-.1v-.2l.3.1Z"/><polygon class="cls-1" points="7.4 20.1 15.4 13 15.9 14.4 8.9 22 7.4 20.1"/><path class="cls-4" d="M17.5,93.6a4.33,4.33,0,0,0-.5-.1c0-.2.1-.4.1-.6a.76.76,0,0,0,.4.1c.4.1.7-.2.8-.7l.6-3.9h-.7c0-.3.1-.4.1-.6a15.16,15.16,0,0,1,2.3.2,2.54,2.54,0,0,1,1.3.5,1.45,1.45,0,0,1,.7,1c0,.2.1.5,0,.7-.2,1.4-.4,2.7-.5,4.1-.3,0-.5-.1-.8-.1.2-1.4.4-2.7.6-4.1.1-.8-.4-1.3-1.5-1.4a2.25,2.25,0,0,1-.7-.1c-.2,1.3-.4,2.6-.6,3.8a1.88,1.88,0,0,1-.5,1.1A1.89,1.89,0,0,1,17.5,93.6Z"/><path class="cls-4" d="M24.4,94.5c-.3,0-.5-.1-.8-.1.2-2,.5-3.9.7-5.9.3,0,.5.1.8.1C24.9,90.6,24.6,92.5,24.4,94.5Z"/><path class="cls-4" d="M27.4,89.4h-.6a1.27,1.27,0,0,1,.1-.6h.8c1,.1,1.4.7,1.3,1.7-.1,1.2-.2,1.8-.3,3,0,.2-.1.5-.1.7a1.09,1.09,0,0,0-.1.5c0,.1,0,.1-.1.2-1.1-.1-1.7-.2-2.8-.3a1.27,1.27,0,0,1,.1-.6c.8.1,1.3.1,2.1.2.1-.2.1-.5.2-.8.1-1.2.2-1.8.3-2.9,0-.4,0-.6-.2-.8A.78.78,0,0,0,27.4,89.4Z"/><path class="cls-4" d="M30.1,95.2a4.33,4.33,0,0,0-.5-.1,1.08,1.08,0,0,1,.1-.6,1,1,0,0,0,.4.1c.5,0,.7-.2.8-.7.1-1.3.2-2.6.4-3.9h-.7a1.08,1.08,0,0,1,.1-.6,16.22,16.22,0,0,1,2.3.1,3.26,3.26,0,0,1,1.4.4,1.26,1.26,0,0,1,.7,1,1.7,1.7,0,0,1,.1.7c-.1,1.4-.2,2.8-.3,4.1a2.2,2.2,0,0,1-.8-.1c.1-1.4.2-2.8.3-4.1.1-.8-.5-1.3-1.6-1.4h-.7L31.8,94a1.82,1.82,0,0,1-.4,1.1C30.9,95.1,30.6,95.2,30.1,95.2Z"/><path class="cls-4" d="M39.1,89.8a1.49,1.49,0,0,1,1.3.6,2.41,2.41,0,0,1,.4,1.5c-.1,1.4-.1,2.7-.2,4.1-.8,0-1.3-.1-2.1-.1v-.6a5.7,5.7,0,0,1,1.3.1c.1-1.4.1-2.1.2-3.4,0-.9-.4-1.4-1.2-1.4a.6.6,0,0,0-.4.1.76.76,0,0,0-.4.2,2.18,2.18,0,0,0-.5.4l-.1.1c-.2,1.5-.5,3.1-.7,4.6a2.2,2.2,0,0,1-.8-.1c.3-1.5.5-3,.7-4.5v-.5c0-.2-.1-.4-.1-.6s-.1-.2-.1-.3a2.2,2.2,0,0,1,.8.1c.1.1.1.4.2.6h0a2.09,2.09,0,0,1,.6-.4.75.75,0,0,1,.5-.1C38.7,89.8,38.9,89.8,39.1,89.8Z"/><path class="cls-4" d="M44.7,96.1a1.09,1.09,0,0,1-.5-.1v-.6a1,1,0,0,1,.4.1c.5,0,.7-.2.7-.8,0-1.3.1-2.6.1-3.9h-.7v-.6a19.3,19.3,0,0,1,2.3-.1,2.9,2.9,0,0,1,1.4.3,1.42,1.42,0,0,1,.8.9,1.7,1.7,0,0,1,.1.7v4.1h-.8V92c0-.8-.5-1.2-1.6-1.2h-.7c0,1.3-.1,2.6-.1,3.9a1.25,1.25,0,0,1-.4,1.1A1.49,1.49,0,0,1,44.7,96.1Z"/><path class="cls-4" d="M50.9,96.2a1.09,1.09,0,0,1-.5-.1v-.6h.4c.5,0,.7-.3.7-.8V90.8a1.7,1.7,0,0,0-.7.1v-.6a21.51,21.51,0,0,1,2.3-.2,5.21,5.21,0,0,1,1.4.2,1.42,1.42,0,0,1,.8.9,1.7,1.7,0,0,1,.1.7c0,1.4.1,2.8.1,4.1h-.8c0-1.4-.1-2.8-.1-4.1,0-.8-.6-1.2-1.7-1.2h-.7v3.9a1.61,1.61,0,0,1-.3,1.1A1.23,1.23,0,0,1,50.9,96.2Z"/><path class="cls-4" d="M57.2,90.1c1.3,0,1.9-.1,3.1-.1v.6c-.3,1.2-.4,1.8-.7,3.1-.2.9-.2,1.4-.4,2.3h-.8c.2-.9.2-1.4.4-2.3.3-1.2.4-1.8.7-3.1-1.3.1-1.9.1-3.2.1a10.87,10.87,0,0,0-.1-1.8H57A4.3,4.3,0,0,1,57.2,90.1Z"/><path class="cls-4" d="M67.3,90.5c-.1-.1-.3-.2-.4-.3a1.27,1.27,0,0,0-.6-.1c-.2,0-.5,0-.6.1v-.6a2.5,2.5,0,0,1,1.4,0l.6.3a1,1,0,0,1,.5.6,4.74,4.74,0,0,1,.6,2v1.1a3.18,3.18,0,0,1-.3.9,1.47,1.47,0,0,1-.5.6,2.09,2.09,0,0,1-.6.4c-.2.1-.5.1-.7.2a2.2,2.2,0,0,1-.8-.1c-.2-.1-.5-.2-.7-.3a1.7,1.7,0,0,1-.6-.6,2,2,0,0,1-.4-.8,3.59,3.59,0,0,1-.2-1.1c-.1-1.2-.1-1.8-.2-3a2.2,2.2,0,0,0,.8-.1c.1,1.2.1,1.8.2,3a3.41,3.41,0,0,0,.4,1.6,1.21,1.21,0,0,0,.5.5.88.88,0,0,0,.7.1,1.45,1.45,0,0,0,.7-.2.78.78,0,0,0,.4-.4,1.07,1.07,0,0,0,.2-.6,5.72,5.72,0,0,0,.1-1.4c0-.3-.1-.5-.1-.7a1.42,1.42,0,0,0-.2-.6C67.5,90.8,67.4,90.7,67.3,90.5Z"/><path class="cls-4" d="M70.9,95.1a2.2,2.2,0,0,0-.8.1c-.2-2-.4-3.9-.5-5.9a2.2,2.2,0,0,0,.8-.1C70.6,91.2,70.7,93.1,70.9,95.1Z"/><path class="cls-4" d="M74.8,94.1a2.14,2.14,0,0,0,1.5-.9,3.43,3.43,0,0,0,.5-2.2c0-1-.1-1.6-.1-2.6.3,0,.5-.1.8-.1,0,1,.1,1.6.1,2.6a3.75,3.75,0,0,1-.1,1.1c-.1.3-.1.6-.2.8l-.3.6a2.65,2.65,0,0,1-.5.6,1.61,1.61,0,0,1-.7.4,3,3,0,0,1-1,.2c-.8.1-1.2.1-2,.2-.4-1.9-.7-3.9-1.1-5.8a2.2,2.2,0,0,0,.8-.1c.3,1.3.4,2,.6,3.3l.6-.3c.5-.2.7-.7.7-1.4V88.7c.3,0,.5-.1.8-.1v2.2c0,.2-.1.3-.1.5s-.1.4-.2.5-.2.3-.4.4l-.6.3c-.2.1-.4.1-.6.2.1.6.2.8.3,1.4A2.36,2.36,0,0,0,74.8,94.1Z"/><path class="cls-4" d="M78.6,90.3a2.77,2.77,0,0,1,.1-.9,1.61,1.61,0,0,1,.4-.7,1.79,1.79,0,0,1,.7-.5,6.89,6.89,0,0,1,.8-.3h.8a1.08,1.08,0,0,1,.7.3,2.65,2.65,0,0,1,.6.5,5.58,5.58,0,0,1,.5.8c.1.3.2.7.3,1.1a4.48,4.48,0,0,1,.1,1.1,2,2,0,0,1-.2.9,1.61,1.61,0,0,1-.4.7,2.09,2.09,0,0,1-1.3.7,8.6,8.6,0,0,1-1.6.1h-.2c0-.3-.1-.4-.1-.7H80a9.15,9.15,0,0,0,1.6-.1,1.42,1.42,0,0,0,.6-.2c.2-.1.3-.3.4-.4a1.42,1.42,0,0,0,.2-.6,3.3,3.3,0,0,0,0-1.4,3.35,3.35,0,0,0-.6-1.6,1,1,0,0,0-.6-.5,1.7,1.7,0,0,0-.7-.1.85.85,0,0,0-.6.2,1.38,1.38,0,0,0-.4.3.52.52,0,0,0-.2.4,2.2,2.2,0,0,0-.1.8,1.88,1.88,0,0,0,.4.9,1.33,1.33,0,0,0,1,.3h.2V92H81a2.12,2.12,0,0,1-1.4-.4A1.6,1.6,0,0,1,78.6,90.3Z"/><polygon class="cls-4" points="67.1 9.7 65.9 10.7 65 9.4 66.2 8.5 67.1 9.7"/><path class="cls-4" d="M87,11l-4.4-1-.1.1-.2-.1L71.1,7.4l.1-.7-.6-.2c-6.5-2.7-6.9-2.6-7.1-2.6s-.6,0-8.9,5.6l-2.4,1.6,3.9-.2H56l.1-.2.1-.1.2-.1.2.2-.2.2-.1.1,1.6-.1V14l6.4,5.1c-.2.1-.3.2-.5.2l-7.6-2.6L44.5,23.1a59.64,59.64,0,0,1-25-6.9l3-2-.1-3.3-3.9,1.4,3.3-2.6V7.4L17.3,7,15,11.4,12.3,8.1,9.4,10.5l.5.5L3.4,16.4l7.7,9.3,6.5-5.4.5.6L21,18.5l-.5-.5a57.58,57.58,0,0,0,22,6.1l-4,2.2L29,22.6l-4.4,5.2.2.2-.2.1-.1-.1v-.1l-2.5,3h1.7c2.8.1,5.1.1,6.8.1v-.2l.1-.2.3.1.1.2V31c3.6.1,4.9,0,5.4,0,.8.3,4.5,2.5,8,4.6l-6.5,6.2-1.3,4.6,6-3.2-6,4.8.7,4.4,7-5.2-6.4,6.7,1.5,4.2L48,50.3l-7.3,10,2.9,3,.6-.6c3-3.3,7.1-7.8,10.1-11l-.1-.1.1-.2.1.2-.1.1c1.6-1.7,2.9-3,3.2-3.4.5-.3,1.1-1.5,2.9-7.7l-.6,6.7,1.7,1.8,3.9-5.6-2.5,7.3,2.6,2.4,2.6-6.6L67,55.1l2.5,1.8,3.9-13.4-1.9-5.9h-.2v-.2h.1l-1.8-5.7,3-.8,2.8-10-1.1-1.3,6.5-1.5L84,14.8,88.8,16ZM18,8.2l2.6.2v.7l-4.5,3.6-.4-.4h0Zm-1.3,6.6-.1.2-.2-.1.1-.3Zm-3.4-4.6.2.1.1.2v.2l-.2.1-.1-.4ZM8.9,13.4l.2.1-.2.2-.1-.1Zm5.6,7.4v.1l-.2.1v-.1l-2.8,2L5.9,16.7l5-4.7,6,7.2Zm3.6-1.4-6.9-9.3,1-.1,7.1,8.4Zm-.3-4.7-.5-.7h-.2l4.2-1.5v1.1L19.2,15ZM26.4,28h-.2l.1-.2.2-.1.2.1Zm10.1-1.5-.3-.2v-.2l.3.2Zm2.6,28.1-.2-.1v-.4l.2.1.1.3Zm1-2.4-.1-.1.1-.1.1.1Zm5.1,4.3H45l.1-.2.1-.1.1.2ZM71.3,39.1l.3.1-.1.2-.2-.1Zm-.9,5.6.1.2-.3.1ZM73.6,8.5l.3.1.1-.3.2.4-.1.2h-.2l-.6-.4Zm-3.3,3.4,3.8.8c-1.1.9-2.2,1.8-3.4,2.6l-.9-1.1Zm3.9,1.2-.1.2-.2-.1L74,13Zm-1.4,1.6-.3.5-.2-.2v-.3l.1-.2ZM67.4,5.6l.3.2-.2.1-.2-.1ZM61.1,15l-.1-.1.1-.2.2.1Zm.7,1.2h-.2l.1-.2.2-.1.2.1Zm-2.3-2.9.1-4.2-1.7.1,1-.7V8.1l.2.1v.1C61.2,7,63,5.8,63.6,5.5c.8.2,3.3,1.2,5.8,2.2l-1.3,7,1.3,1.6a33.54,33.54,0,0,1-3.6,2.1Zm9.4,1.2-.1.1-.1-.1.1-.2ZM56.3,18.4l5.3,1.8a44.3,44.3,0,0,1-13.8,2.9Zm3.4,3.4-.1.2-.2-.1v-.2ZM42.5,34.1h-.2l.1-.2.2.1Zm2.9,2.5-.2-.1v-.2l.1-.2.2.1.1.2Zm.1-3.9h-.3v-.2h.2l.1.1Zm1.3-.2h-.2l.1-.2.2.1ZM49.4,52l-.1-.2.1-.2.1.2Zm1.1,3.6-.2-.2v-.3l.1-.2.3.1Zm.5-3.4h-.2l-.6-.4.2-.1.3.1.2-.2.2.4ZM51.8,40l-.2-.1v-.2l.1-.2.2.1.1.2Zm.7,11.9-.2-.1v-.2l.3.1Zm4-3.5-.1-.1.1-.2.2.2Zm.1-1.5-.1-.3.2.1.1.2Zm2.1-8.6-.2-.1V38h.2l.2.1Zm.9,1.4h-.2l.1-.2.3.1Zm1.3-2.2-.1-.1.2-.2.1.3ZM62,46.7l-.1-.1.1-.1.1.1ZM63.3,38h.2l.2.1-.1.2-.2-.1Zm.3.9-.1-.2.1-.1.2-.1.2.2V39Zm1.8,13.2-.2-.1.1-.2.2.1Zm-.1-7,.2-.3.1.2Zm.5-7.7-.1-.1.2-.2.1.3Zm.8,2.1-.2-.1.1-.2.3.1Zm.3,7.1-.1-.1.1-.1.1.1Zm1.6-7.8-.1-.2.1-.1.2-.1.2.2v.3Zm.3-5-.2.1-.3-.4v-.2l.1-.2.3.1.1.2Zm.4,18-.2-.1.1-.2.2.1Zm2.2-20.6-.3-.1v-.2h.2l.2.1Zm-.1-1.4-4.7,1.3h.1l-.1.2-.3-.1h0L62,32.3l1-3.6L55,44.8,52.5,35,40.3,28.9l.6-2.1,4.7-2.6h.2a42.46,42.46,0,0,0,17.3-3.5L69,22.8l.8-1.4L66.7,19A29,29,0,0,0,70,17l3.6,4.3Zm-3.8-8v-.2l.3.2.1.2Zm13.2-4.3-.1-.3.2.1.1.2Zm-.9-.8-6.7,1.5-1.7-2a39,39,0,0,0,4-3.1l6.5,1.4Zm4.5-3.3h-.2l-13.6-3L70.8,9l15,3.4.6,1.6Zm2.9,1.8.1-.2.1-.1.1.2-.2.1Z"/></g></svg>