<svg width="30" height="30" viewBox="0 0 30 30" xmlns="http://www.w3.org/2000/svg" xmlns:xlink="http://www.w3.org/1999/xlink">
    <defs>
        <path d="M15 0c8.284 0 15 6.716 15 15 0 8.284-6.716 15-15 15-8.284 0-15-6.716-15-15C0 6.716 6.716 0 15 0zm0 .8C7.158.8.8 7.158.8 15S7.158 29.2 15 29.2 29.2 22.842 29.2 15 22.842.8 15 .8zM20.88 6a2.403 2.403 0 0 1 2.394 2.236l.006.164v12.48a2.403 2.403 0 0 1-2.236 2.394l-.164.006H8.4a2.403 2.403 0 0 1-2.394-2.236L6 20.88V8.4a2.403 2.403 0 0 1 2.236-2.394L8.4 6h12.48zm0 .96H8.4a1.44 1.44 0 0 0-1.433 1.301L6.96 8.4v12.48a1.44 1.44 0 0 0 1.301 1.433l.139.007h12.48a1.44 1.44 0 0 0 1.433-1.301l.007-.139V8.4a1.44 1.44 0 0 0-1.44-1.44zm-6.24 2.88a4.8 4.8 0 1 1 0 9.6 4.8 4.8 0 0 1 0-9.6zm0 .96a3.84 3.84 0 1 0 0 7.68 3.84 3.84 0 0 0 0-7.68zm5.28-2.88a1.44 1.44 0 1 1 0 2.88 1.44 1.44 0 0 1 0-2.88zm0 .96a.48.48 0 1 0 0 .96.48.48 0 0 0 0-.96z" id="a"/>
    </defs>
    <g fill="none" fill-rule="evenodd">
        <mask id="b" fill="#fff">
            <use xlink:href="#a"/>
        </mask>
        <use fill="#4F5869" fill-rule="nonzero" xlink:href="#a"/>
        <g mask="url(#b)" fill="#79849A">
            <path d="M0 0h30v30H0z"/>
        </g>
    </g>
</svg>
