<svg width="65" height="65" xmlns="http://www.w3.org/2000/svg">
    <g fill="none" fill-rule="evenodd">
        <g fill="#FFA126">
            <path d="M9.6 34c.861.857 4.623 1.095 11.286.713-4.62-.717-7.665-1.483-9.134-2.298-1.47-.815-2.694-2.109-3.673-3.881.69 3.32 1.197 5.143 1.521 5.466z"/>
            <path d="m17.371 34.902-4.685-.03c0 13.788.78 21.064 2.343 21.83 2.342 1.15 31.353 2.72 33.03 0 .237-.384.55-1.11.941-2.178-16.575.806-25.946.46-28.114-1.036-2.168-1.495-3.34-7.691-3.515-18.586zM29.148 19.82c-1.549.17-2.323.298-2.323.381 0 .125-.825 4.1-.825 7.508 0 2.272.132 4.691.397 7.258h2.75c-.51-1.077-.73-3.617-.66-7.62.07-4.004.29-6.513.66-7.526z"/>
            <path d="M29.5 35.064H27c-.16 3.543-.16 7.465 0 11.766.16 4.302.496 8.094 1.006 11.379H31.5c-1.068-2.119-1.818-6.038-2.25-11.757-.432-5.719-.349-9.515.25-11.388z"/>
        </g>
        <path d="M49.462 34.708c0 .134 0 2.68-.048 4.642m-.14 13.613c-.177 1.873-.44 3.27-.76 3.745-1.537 2.292-30.899 2.177-33.258-.237-1.572-1.61-2.493-10.693-2.426-21.692" stroke="#323A48" stroke-linecap="round" stroke-linejoin="round"/>
        <path d="M26.984 34.967c-.43 1.843.43 22.524 1.022 23.242m7.076.148c.083-1.68 1.091-20.721.394-23.053" stroke="#323A48" stroke-linecap="round" stroke-linejoin="round"/>
        <path d="M29.868 34.967c-10.108.015-19.605-.253-20.241-1.062-.652-.83-1.23-3.547-1.433-6.196m38.493-7.383c3.064.136 5.122.388 5.432.79.334.436.565 1.337.706 2.474m0 7.592c0 1.615-.795 2.995-1.049 3.153-.776.483-12.776.89-17.914.665" stroke="#323A48" stroke-linecap="round" stroke-linejoin="round"/>
        <path d="M15.905 6.82c-.39.306-1.04 1.079-1.953 2.32-1.141 1.553-1.793 4.562-1.879 5.06-.36 2.089.683 4.154 1.378 4.702 1.685 1.33 5.905 1.034 8.677.254 1.849-.52 3.473-.622 4.872-.306l.656-1.426c-1.873-.142-3.22-.355-4.041-.64-3.472-1.203-4.275-2.395-5.355-2.584-1.138-.2-2.325 1.45-3.12 1.45-.651 0-1.986-.666-1.188-4.206.285-1.265.936-2.806 1.953-4.623z" fill="#FFA126"/>
        <path d="M30.287 16.82c-1.868.132-3.108.36-3.72.683-.612.323-.729 1.096-.349 2.318L34 19.508c-2.075-.31-3.313-.68-3.713-1.111-.4-.432-.4-.957 0-1.576zM35 19.718c2.134.627 3.399 1.137 3.795 1.529.244.242 1.012 1.354 1.307 3.036.122.694.122 2.207 0 4.538 1.38-1.856 2.27-3.037 2.668-3.546.599-.762.05-5.375-1.909-5.97-1.288-.391-3.241-.545-5.861-.463v.876z" fill="#FFA126"/>
        <path d="M40.369 9.82c-2.56 3.93-4.064 6.085-4.512 6.466-.449.381-1.068.688-1.857.92l.907 1.51c2.31.053 3.904.156 4.78.312.877.155 2.08.279 3.605.37 1.66.362 3.016.491 4.07.388 1.055-.102 1.934-1.12 2.638-3.054-1.336.815-2.657.158-3.965-1.97-.604-.984-2.209-.619-4.815 1.096-1.014.019-1.72-.347-2.117-1.097-.305-.577.117-2.224 1.266-4.94zM27 20.223v-1.402c-4.872.469-7.606 1.03-8.204 1.685-.934 1.022-1.532 3.793-1.796 8.315.688-.978 1.413-1.786 2.175-2.425 1.143-.958.413-2.916 1.481-4.207 1.09-1.317 3.204-1.972 6.344-1.966z" fill="#FFA126"/>
        <path d="M27.002 19.82c-.024-1.698.196-1.858.655-2.396.81-.95 5.887-.77 6.944.486.4.474.4 1.317.399 1.91M27.415 17.209c-4.514-2.8-5.235-10.668-10.119-10.38-3.905.23-8.185 11.002-2.662 11.992" stroke="#323A48" stroke-linecap="round" stroke-linejoin="round"/>
        <path d="M34 17.338c5.982-2.636 4.542-10.498 9.339-10.517 5.01-.02 9.068 11.16 4.991 12M24 16.564c-3.854-.764-5.392-3.239-6.725-2.655-.889.389-1.313 1.36-1.272 2.912" stroke="#323A48" stroke-linecap="round" stroke-linejoin="round"/>
        <path d="M38 16.962c4.389-.86 5.16-3.673 7.148-3.053 1.988.62 2.075 3.083 1.637 3.912M35.37 18.827c4.922-.076 7.824.515 8.706 1.774.882 1.259 1.133 3.703.752 7.334l-1.879-3.28-2.709 4.166c.18-3.891-.286-6.312-1.399-7.264s-2.546-1.531-4.3-1.736" stroke="#323A48" stroke-linecap="round" stroke-linejoin="round"/>
        <path d="M35.869 34.872c.449-.606.547-13.137-.739-14.837-.29-.382-7.692-.178-8.158.034-1.46.664-1.304 13.782-.574 14.64" stroke="#323A48" stroke-linecap="round" stroke-linejoin="round"/>
        <path d="M26.825 18.82c-4.792.126-7.6.818-8.427 2.075-.826 1.257-1.292 3.899-1.398 7.926l2.31-2.978 3.044 2.968c-.444-5.556 1.104-8.437 4.646-8.644" stroke="#323A48" stroke-linecap="round" stroke-linejoin="round"/>
        <g stroke="#323A48" stroke-linecap="round" stroke-linejoin="round">
            <path d="m55.225 24.2-.048 1.999M55.264 29.117l-.032 2M58.905 27.622l-1.999-.088M53.78 27.616l-1.999-.034"/>
        </g>
        <g stroke="#323A48" stroke-linecap="round" stroke-linejoin="round">
            <path d="m51.633 40.873-.02 4M51.523 47.873l-.045 4M57.011 46.453l-3.999-.07M50.035 46.37l-4-.062"/>
        </g>
        <g stroke="#323A48" stroke-linecap="round" stroke-linejoin="round">
            <path d="M10.613 18.5v3.373M10.524 24.873l.088 3.627M15.5 23.382h-3.488M9.035 23.37H5.5"/>
        </g>
    </g>
</svg>
