<svg xmlns="http://www.w3.org/2000/svg" width="32" height="32" viewBox="0 0 32 32">
    <g fill="none" fill-rule="evenodd">
        <g stroke="#4F5869" stroke-width=".8">
            <g>
                <g>
                    <g transform="translate(-1259 -956) translate(0 937) translate(1044 20) translate(216)">
                        <rect width="30" height="30" rx="15"/>
                        <path fill-rule="nonzero" d="M15.803 17.575v-.636c0-.424.092-.766.276-1.028.185-.261.624-.643 1.318-1.144 1.012-.707 1.7-1.342 2.06-1.907.362-.566.543-1.237.543-2.014 0-1.165-.44-2.098-1.318-2.797C17.804 7.349 16.62 7 15.13 7c-1.808 0-3.518.442-5.13 1.325h0l1.182 2.32c1.388-.692 2.625-1.038 3.71-1.038.621 0 1.106.12 1.453.36s.52.59.52 1.049c0 .41-.12.78-.363 1.112-.242.332-.743.763-1.502 1.293-.788.565-1.33 1.099-1.627 1.6-.296.502-.445 1.092-.445 1.77h0v.784h2.875zM14.49 23c.593 0 1.056-.16 1.389-.482.332-.322.498-.761.498-1.32 0-.579-.164-1.024-.493-1.334-.329-.311-.794-.467-1.394-.467-.622 0-1.095.152-1.42.456-.326.304-.489.752-.489 1.346 0 .572.167 1.015.5 1.33.332.314.802.471 1.41.471z"/>
                    </g>
                </g>
            </g>
        </g>
    </g>
</svg>
