<svg width="65" height="65" xmlns="http://www.w3.org/2000/svg">
    <g fill="none" fill-rule="evenodd">
        <g fill="#FFA126">
            <path d="M22.25 29.46 13.405 29c-.675 6.267.903 10.267 4.734 12 2.823 1.277 9.506 3.643 17.711 2.7 6.956-.8 10.175-4.4 10.72-5.7-3.326 3.4-17.366 4.24-21.477.297-2.741-2.628-3.689-5.574-2.843-8.838zM23.885 54.602c-3.114-.699-3.69-5.195-.653-7.212-3.565 0-5.618 2.311-5.618 5.428s2.301 5.314 5.618 5.314 3.768-2.832.653-3.53zM40.33 54.602c-3.115-.699-3.691-5.195-.654-7.212-3.565 0-5.617 2.311-5.617 5.428s2.3 5.314 5.617 5.314 3.768-2.832.654-3.53zM15.232 24.19c-.09.684-.288 1.446-.594 2.285-.306.839-.852 1.68-1.638 2.525l17.78-.137a60.911 60.911 0 0 1-8.89-2.01c-2.854-.88-5.074-1.767-6.658-2.664zM20.194 16c0 .178-.8 1.158-2.055 2-.546.366-1.573.9-3.083 1.6L31.5 28.361c-3.73-2.936-6.128-4.999-7.194-6.188-3.634-4.052-4.112-6.377-4.112-6.173zM49.11 14c-2.764.217-4.374.936-4.829 2.157-.455 1.22-.133 4.28.965 9.182-.606-4.893-.066-7.672 1.62-8.339 1.686-.667 2.434-1.667 2.244-3z"/>
        </g>
        <g stroke="#323A48" stroke-linecap="round" stroke-linejoin="round">
            <path d="M13 28.838c2.48-3.094 3.077-6.3 1.792-9.617 2.437-.164 6.577-2.637 6.577-6.737 1.504.506 7.419 1.139 9.661-2.484l1.615 17.592M24.188 16.157l7.607 11.732M18.484 21.502l12.592 6.879M45.442 27.175c0-1.645-.822-4.451-1.076-7.175-.255-2.724-.117-4 1.076-5.131 1.579-1.498 4.953-1.128 4.953.501 0 1.63-1.41.998-2.675 3.289-1.266 2.29-.148 7.179 0 11.204"/>
            <path d="M34.658 29.438c4.129.052 8.514.096 13.155.135.439 6.319-1.327 10.468-5.296 12.447-5.955 2.968-19.326 2.484-24.66-.924-3.556-2.273-5.16-6.303-4.81-12.093l17.618.338"/>
            <path d="M22.881 39.486c-2.692-.227-5.773-2.423-5.773-6.723M32.536 31.524c-1.053-.096-1.812-.952-1.696-1.912.115-.96.709-1.714 2.116-1.564 1.406.149 1.612 1.675 1.406 2.457M28.838 52.686c0 2.877-2.051 5.188-5.614 5.188-3.562 0-5.613-2.311-5.613-5.428s2.3-5.314 5.613-5.314a5.567 5.567 0 0 1 5.614 5.554zM45.751 52.686c0 2.877-2.05 5.188-5.613 5.188-3.563 0-5.614-2.311-5.614-5.428s2.3-5.314 5.614-5.314a5.567 5.567 0 0 1 5.613 5.554z"/>
            <path d="M23.475 50.755c1.102.065 1.804 1.01 1.804 1.986 0 .847-.635 1.727-1.67 1.792-.268.032-.502 0-.77-.033-.835-.163-1.47-.782-1.47-1.824M40.388 50.755c1.103.065 1.804 1.01 1.804 1.986 0 .847-.635 1.727-1.67 1.792-.268.032-.502 0-.77-.033-.835-.163-1.47-.782-1.47-1.824M28.016 49.344l9.325-5.744M35.389 49.256 24.057 43.3"/>
        </g>
    </g>
</svg>
