<svg width="65" height="65" xmlns="http://www.w3.org/2000/svg">
    <g fill="none" fill-rule="evenodd">
        <g fill="#FFA126">
            <path d="M31.687 21.06c-.996.103-2.19-.241-2.04-2.093.1-1.235.78-2.557 2.04-3.967-.608 1.564-.504 2.71.313 3.44 1.225 1.094.683 2.516-.313 2.62zM26 28c-3.531-.196-5.864.47-7 2-1.703 2.294-1.201 5.261 1 6.081 1.468.547 6.134.853 14 .919-5.965-.867-8.965-2.01-9-3.432-.046-1.853 1.75-2.109 1.75-3.868 0-.618-.25-1.185-.75-1.7z"/>
            <path d="m24.506 36.897-5.68-1.512c-2.756.743-4.298 2.115-4.626 4.115-.491 3 .62 3.932 1.6 4.77.98.838 4.506.713 5.2 1.73s0 3.736 1 4.25c1 .514 3-.322 3-1.286S24 44 26 44.27c2 .27-.694 3.73 2.306 3.73S28 45.104 30 44c1.333-.736 3.667-.736 7 0-.535-1.526-2.535-2.464-6-2.815-3.256-.33-6.287.172-7-1.142-.667-1.229-.498-2.277.506-3.146z"/>
            <path d="M18 45c1.2 7.336 2.533 11.336 4 12 2.2.996 19.117.658 20 .358.589-.2 1.256-.986 2-2.358-9.333.413-15 .313-17-.3s-2.933-2.065-2.8-4.356c-.784.844-1.62.725-2.506-.358-1.329-1.626-.016-3.09-.694-3.986-.452-.597-1.452-.93-3-1z"/>
        </g>
        <g stroke="#323A48" stroke-linecap="round">
            <path d="M45.178 35.39c5.235-.224 5.2 7.258 2.791 8.175-2.408.916-4.19-.045-5.71.195-1.517.24-1.68 1.477-1.517 2.683.38 2.832.454 2.087.509 3.241.054 1.888-2.652 1.866-3.251.66-.327-.734 0-1.43 0-3.327s-.965-3.033-2-3.452c-1.709-.697-4.19-.827-5.566-.063-.925.524-1.098.928-.76 2.035.743 2.43-1.147 2.8-2 2.4-.852-.4-.674-1.574-.674-2.637s-1.098-1.3-1.82-1.093c-.722.207-1.226 1.562-.344 3.404.882 1.841-.614 2.914-1.836 2.889-1.222-.025-1.9-.575-1.517-2.85.566-3.37-4.846-2.715-6.438-3.744-1.592-1.029-1.984-7.986 3.382-8.386" stroke-linejoin="round"/>
            <path d="M17.892 44.667c.186 5.207 2.036 10.098 3.27 11.612 1.85 2.27 19.116 1.966 21.305.96 1.46-.672 2.648-4.033 3.533-12.969" stroke-linejoin="round"/>
            <path d="M35.08 36.647c-7.005.082-13.918.015-15.287-.605-2.259-1.024-2.831-5.112.095-6.957 1.255-.791 5.302-1.18 9.736-1.233m3.903.037c4.634.142 8.933.624 10.194 1.37 2.827 1.674 2.827 6.044 0 7.068-.564.204-1.884.377-3.769.32"/>
            <path stroke-linejoin="round" d="m26 53 .75 4.3M38 54.081l-.5 3.277M31.75 51l.25 6.9"/>
            <g stroke-linejoin="round">
                <path d="M33.265 30.723c.42-4.528.526-7.016.316-7.466-.316-.675-3.542-1.225-3.96-.203-.28.682-.076 3.215.609 7.601M31.513 20.793c-.977.097-2.148-.44-2-2.175.098-1.157.765-2.396 2-3.716 1.514 1.896 2.237 3.246 2.168 4.05-.102 1.207-1.19 1.744-2.168 1.84zM24.476 23.333c.636-1.43 1.752-2.274 3.35-2.53M36.197 20.804c2.01.645 2.512 2.529 2.512 2.529M34.914 13.757c.798-1.473 2.16-2.332 4.083-2.576m2.811-.016c.192-.088 1.192.016 2.192.44M19.837 11.17c1.163-.17 2.546-.068 2.965 0M19.194 21.06c.212-.538.86-1.574 1.222-1.872m1.958-1.547c.88-.566 2.27-.725 3.546-.548M36.685 17.25c.352-.196 1.315-.25 2.024-.13m2.291.216c.881.05 1.921.582 2.755 1.286M30.361 9.132c.623.664.731 1.737.778 2.196M25.311 11.545c1.34.178 2.3.815 2.88 1.91M29.063 30.94c1.914.322 3.734.268 5.46-.162"/>
            </g>
        </g>
    </g>
</svg>
