<svg width="24" height="24" viewBox="0 0 24 24" fill="none" xmlns="http://www.w3.org/2000/svg">
<path d="M20 4.5C21.1046 4.5 22 5.39543 22 6.5V17.5C22 18.6046 21.1046 19.5 20 19.5H4C2.89543 19.5 2 18.6046 2 17.5V6.5C2 5.39543 2.89543 4.5 4 4.5H20ZM20.8639 5.99594L12 13.8737L3.13615 5.99594C3.0496 6.14394 3 6.31618 3 6.5V17.5C3 17.5895 3.01176 17.6762 3.03381 17.7588L6.32843 14.4645L7.03553 15.1716L3.74122 18.4662C3.82376 18.4882 3.91051 18.5 4 18.5H20L16.6716 15.1716L17.3787 14.4645L20.8833 17.9693C20.9578 17.8293 21 17.6696 21 17.5V6.5C21 6.31618 20.9504 6.14394 20.8639 5.99594ZM19.914 5.5H4.085L12 12.5357L19.914 5.5Z" fill="#FFA126"/>
</svg>
